<svg width="514" height="221" viewBox="0 0 514 221" fill="none" xmlns="http://www.w3.org/2000/svg">
<path d="M10 210.561C94.3444 215.065 173.98 184.68 239.509 131.159C262.078 112.726 284.504 88.2709 297.703 61.887C303.688 49.9238 311.672 26.3774 301.463 15.3244C284.513 -3.0277 262.231 30.9432 254.875 43.5888C241.578 66.4472 251.569 110.955 275.308 123.807C319.376 147.664 384.691 141.967 433.055 139.818C452.366 138.96 472.018 134.1 491.086 134.1C498.484 134.1 480.606 124.82 477.845 122.337C461.555 107.683 460.693 107.956 480.788 120.866C483.57 122.654 504 133.653 504 135.57C504 136.909 469.249 162.483 466.075 166.449" stroke="#1C1C1C" stroke-width="20" stroke-linecap="round"/>
</svg>
