<svg width="1000" height="1000" viewBox="0 0 1000 1000" fill="none" xmlns="http://www.w3.org/2000/svg">
<path d="M487.784 21.2727L501.058 66.9105H501.564L514.838 21.2727H534.686L513.321 86H489.301L467.936 21.2727H487.784Z" fill="black"/>
<path d="M584.92 94.5463L595.723 47.2179L612.731 51.1L601.929 98.4284L584.92 94.5463ZM605.352 44.229C603.051 43.7038 601.253 42.4937 599.957 40.5985C598.66 38.7034 598.256 36.6876 598.743 34.5512C599.231 32.4149 600.47 30.7742 602.46 29.6292C604.45 28.4842 606.596 28.1742 608.897 28.6994C611.218 29.2292 613.016 30.4393 614.292 32.3298C615.589 34.225 615.993 36.2407 615.505 38.3771C615.018 40.5134 613.779 42.1541 611.789 43.2991C609.819 44.4488 607.673 44.7588 605.352 44.229Z" fill="black"/>
<path d="M681.08 128.279C676.41 126.03 672.815 123.199 670.295 119.788C667.804 116.366 666.456 112.537 666.251 108.299C666.075 104.051 667.121 99.5736 669.388 94.8657C671.564 90.3476 674.376 86.8379 677.826 84.3364C681.276 81.835 685.114 80.4445 689.341 80.165C693.569 79.8855 697.941 80.8336 702.459 83.0094C705.762 84.6001 708.505 86.5525 710.688 88.8667C712.871 91.1808 714.441 93.7726 715.398 96.6421C716.364 99.4926 716.692 102.55 716.382 105.816C716.073 109.081 715.082 112.451 713.409 115.925L711.653 119.569L672.585 100.755L676.754 92.0988L701.357 103.947C701.941 102.685 702.148 101.428 701.979 100.177C701.838 98.9167 701.373 97.7692 700.585 96.7348C699.825 95.6906 698.79 94.8532 697.48 94.2224C696.208 93.6098 694.908 93.3229 693.58 93.3615C692.261 93.381 691.05 93.71 689.948 94.3484C688.864 94.9958 687.997 95.9464 687.347 97.2L682.849 106.54C682.172 107.945 681.863 109.339 681.922 110.724C681.98 112.108 682.409 113.379 683.208 114.535C684.007 115.692 685.185 116.645 686.742 117.395C687.824 117.916 688.884 118.24 689.923 118.365C690.98 118.501 691.969 118.439 692.889 118.18C693.817 117.902 694.63 117.429 695.327 116.759L709.679 123.67C707.722 126.47 705.284 128.546 702.364 129.899C699.453 131.234 696.182 131.786 692.55 131.558C688.947 131.319 685.123 130.226 681.08 128.279Z" fill="black"/>
<path d="M738.694 160.163L759.473 114.642L773.113 125.52L759.018 152.116L759.314 152.353L782.602 133.087L795.846 143.649L782.6 170.599L782.897 170.836L805.335 151.216L818.975 162.093L779.218 192.48L764.491 180.736L775.391 156.119L774.996 155.803L753.421 171.908L738.694 160.163Z" fill="black"/>
<path d="M857.592 286.653L901.33 265.59L908.515 280.511L900.201 284.515L900.42 284.971C903.593 284.566 906.506 285.08 909.161 286.514C911.816 287.948 913.875 290.184 915.338 293.222C916.819 296.297 917.278 299.338 916.715 302.346C916.171 305.344 914.671 307.715 912.213 309.46L912.433 309.915C915.466 309.367 918.37 309.909 921.144 311.543C923.938 313.168 926.116 315.603 927.68 318.849C929.7 323.045 929.989 327.092 928.546 330.991C927.111 334.909 924.154 337.946 919.674 340.104L890.174 354.31L882.604 338.592L908.118 326.305C910.036 325.382 911.302 324.176 911.918 322.686C912.553 321.188 912.477 319.622 911.691 317.99C910.914 316.376 909.746 315.36 908.188 314.941C906.658 314.532 904.934 314.789 903.017 315.712L877.503 327.999L870.263 312.964L895.777 300.678C897.694 299.754 898.96 298.548 899.576 297.059C900.211 295.56 900.135 293.995 899.349 292.362C898.828 291.28 898.133 290.469 897.265 289.928C896.397 289.388 895.392 289.123 894.252 289.134C893.139 289.155 891.947 289.472 890.675 290.085L865.162 302.372L857.592 286.653Z" fill="black"/>
<path d="M884.055 400.326C883.609 398.374 883.339 396.48 883.244 394.643C883.128 392.811 883.175 391.169 883.384 389.716L896.306 390.657C896.132 392.166 896.104 393.513 896.223 394.696C896.346 395.899 896.656 396.877 897.152 397.628C897.652 398.4 898.376 398.873 899.323 399.045L900.27 399.218L945.896 371.299L949.947 389.047L918.906 404.171L919.019 404.664L953.576 404.946L957.655 422.818L902.444 417.265C899.638 416.998 897.011 416.279 894.561 415.109C892.095 413.965 889.954 412.206 888.137 409.833C886.32 407.459 884.959 404.29 884.055 400.326Z" fill="black"/>
<path d="M910.137 567.213L973.241 581.617L967.024 608.855C965.955 613.539 964.168 617.442 961.661 620.566C959.154 623.689 956.076 625.861 952.426 627.081C948.776 628.301 944.712 628.4 940.234 627.378C935.715 626.346 932.134 624.47 929.492 621.749C926.844 619.048 925.143 615.71 924.386 611.734C923.625 607.778 923.793 603.397 924.89 598.59L928.603 582.321L941.914 585.359L938.989 598.177C938.529 600.19 938.384 601.961 938.554 603.491C938.739 605.047 939.3 606.331 940.236 607.344C941.167 608.378 942.526 609.099 944.313 609.506C946.121 609.919 947.678 609.864 948.986 609.341C950.31 608.844 951.403 607.937 952.265 606.621C953.144 605.33 953.812 603.678 954.272 601.665L955.65 595.626L906.227 584.345L910.137 567.213ZM930.662 610.799L898.097 619.965L902.345 601.354L934.825 592.558L930.662 610.799Z" fill="black"/>
<path d="M872.55 680.249C874.799 675.579 877.629 671.984 881.041 669.465C884.462 666.973 888.292 665.625 892.53 665.421C896.777 665.245 901.255 666.29 905.963 668.557C910.481 670.733 913.991 673.546 916.492 676.996C918.994 680.445 920.384 684.284 920.664 688.511C920.943 692.738 919.995 697.111 917.819 701.629C916.228 704.932 914.276 707.675 911.962 709.858C909.648 712.041 907.056 713.611 904.187 714.567C901.336 715.533 898.278 715.861 895.013 715.552C891.748 715.242 888.378 714.251 884.904 712.578L881.259 710.823L900.073 671.755L908.73 675.923L896.882 700.526C898.144 701.11 899.4 701.318 900.651 701.149C901.912 701.007 903.059 700.543 904.094 699.755C905.138 698.995 905.975 697.96 906.606 696.65C907.219 695.378 907.506 694.078 907.467 692.75C907.448 691.431 907.119 690.22 906.48 689.117C905.833 688.034 904.882 687.167 903.629 686.516L894.289 682.018C892.884 681.342 891.489 681.033 890.105 681.091C888.72 681.149 887.45 681.578 886.293 682.377C885.137 683.177 884.183 684.355 883.434 685.911C882.913 686.993 882.589 688.054 882.463 689.092C882.328 690.15 882.39 691.138 882.649 692.058C882.926 692.987 883.4 693.8 884.07 694.497L877.159 708.848C874.359 706.892 872.283 704.454 870.929 701.533C869.595 698.622 869.042 695.351 869.271 691.72C869.51 688.116 870.603 684.293 872.55 680.249Z" fill="black"/>
<path d="M835.685 796.63L845.696 784.077C846.523 784.629 847.407 784.889 848.348 784.858C849.289 784.827 850.21 784.551 851.11 784.03C852.015 783.538 852.828 782.839 853.55 781.933C854.483 780.763 855.07 779.588 855.312 778.406C855.554 777.224 855.273 776.326 854.469 775.712C853.922 775.249 853.212 775.074 852.341 775.187C851.456 775.317 850.303 776.002 848.884 777.241L841.352 783.847C837.543 787.17 834.043 789.109 830.852 789.663C827.665 790.247 824.664 789.431 821.85 787.214C819.162 785.043 817.458 782.364 816.739 779.176C816.024 776.018 816.219 772.63 817.326 769.012C818.436 765.424 820.39 761.875 823.188 758.366C827.812 752.568 832.618 748.975 837.604 747.589C842.577 746.219 847.159 746.895 851.349 749.616L840.55 763.157C839.203 762.379 837.799 762.23 836.339 762.709C834.882 763.218 833.536 764.247 832.301 765.796C831.303 767.048 830.696 768.248 830.48 769.397C830.252 770.562 830.526 771.468 831.304 772.115C832.042 772.677 832.908 772.774 833.901 772.407C834.881 772.057 836.094 771.246 837.54 769.973L844.086 764.198C847.848 760.865 851.445 758.991 854.877 758.574C858.308 758.158 861.508 759.146 864.477 761.541C867.126 763.626 868.806 766.098 869.518 768.957C870.233 771.845 870.024 774.979 868.891 778.36C867.761 781.771 865.757 785.28 862.88 788.888C858.506 794.374 853.92 797.791 849.125 799.141C844.316 800.508 839.836 799.671 835.685 796.63Z" fill="black"/>
<path d="M766.723 844.654L783.748 866.003L770.108 876.88L739.841 838.926L752.789 828.6L758.543 835.816L758.938 835.5C757.83 832.422 757.761 829.378 758.73 826.369C759.712 823.376 761.62 820.75 764.453 818.49C767.105 816.375 769.914 815.132 772.879 814.762C775.828 814.404 778.708 814.856 781.52 816.117C784.315 817.392 786.824 819.406 789.048 822.161L808.359 846.376L794.719 857.254L777.694 835.904C776.18 834.04 774.526 832.946 772.733 832.624C770.924 832.315 769.163 832.844 767.449 834.21C766.313 835.117 765.523 836.137 765.08 837.272C764.634 838.436 764.544 839.64 764.808 840.885C765.07 842.159 765.708 843.415 766.723 844.654Z" fill="black"/>
<path d="M714.18 856.761L735.243 900.499L720.322 907.685L716.317 899.37L715.862 899.59C716.267 902.762 715.753 905.676 714.318 908.331C712.884 910.986 710.649 913.045 707.611 914.508C704.536 915.989 701.495 916.448 698.487 915.885C695.489 915.341 693.118 913.84 691.373 911.383L690.918 911.602C691.466 914.635 690.924 917.539 689.29 920.314C687.665 923.107 685.23 925.286 681.983 926.849C677.788 928.87 673.741 929.158 669.842 927.715C665.924 926.281 662.887 923.324 660.729 918.844L646.522 889.343L662.241 881.774L674.528 907.288C675.451 909.205 676.657 910.472 678.146 911.087C679.645 911.722 681.21 911.646 682.843 910.86C684.456 910.083 685.473 908.916 685.892 907.357C686.301 905.827 686.044 904.104 685.12 902.186L672.834 876.673L687.868 869.432L700.155 894.946C701.079 896.863 702.285 898.13 703.774 898.746C705.273 899.38 706.838 899.305 708.471 898.519C709.553 897.997 710.364 897.303 710.905 896.434C711.445 895.566 711.71 894.562 711.699 893.421C711.677 892.309 711.361 891.117 710.748 889.845L698.461 864.331L714.18 856.761Z" fill="black"/>
<path d="M591.675 903.005C596.728 901.851 601.303 901.823 605.401 902.919C609.482 904.041 612.923 906.194 615.725 909.38C618.511 912.591 620.486 916.744 621.649 921.838C622.764 926.727 622.754 931.225 621.616 935.332C620.479 939.438 618.345 942.918 615.214 945.773C612.083 948.627 608.074 950.612 603.185 951.728C599.61 952.543 596.248 952.727 593.099 952.279C589.949 951.831 587.106 950.783 584.569 949.136C582.036 947.51 579.873 945.324 578.079 942.578C576.286 939.832 574.96 936.579 574.102 932.82L573.202 928.876L615.477 919.227L617.615 928.594L590.992 934.671C591.322 936.022 591.944 937.133 592.856 938.006C593.752 938.903 594.831 939.511 596.092 939.828C597.337 940.171 598.669 940.18 600.086 939.857C601.462 939.543 602.658 938.956 603.672 938.098C604.691 937.26 605.433 936.248 605.897 935.062C606.34 933.88 606.425 932.596 606.152 931.21L603.846 921.104C603.499 919.584 602.871 918.301 601.962 917.255C601.053 916.209 599.926 915.483 598.58 915.077C597.234 914.671 595.718 914.66 594.034 915.044C592.863 915.312 591.832 915.72 590.942 916.269C590.031 916.822 589.296 917.487 588.739 918.263C588.186 919.059 587.846 919.936 587.718 920.895L572.189 924.439C571.973 921.031 572.584 917.887 574.024 915.008C575.468 912.15 577.681 909.678 580.663 907.593C583.629 905.533 587.299 904.003 591.675 903.005Z" fill="black"/>
<path d="M406.051 915.203C408.536 915.77 410.668 916.894 412.445 918.575C414.218 920.277 415.486 922.295 416.25 924.631C416.993 926.961 417.081 929.37 416.514 931.855C415.942 934.361 414.818 936.493 413.141 938.25C411.44 940.023 409.424 941.281 407.093 942.024C404.758 942.787 402.347 942.886 399.862 942.318C397.356 941.746 395.226 940.612 393.474 938.915C391.696 937.234 390.436 935.229 389.693 932.898C388.925 930.583 388.827 928.172 389.399 925.666C389.966 923.181 391.1 921.051 392.802 919.279C394.482 917.501 396.491 916.23 398.826 915.467C401.136 914.719 403.544 914.631 406.051 915.203Z" fill="black"/>
<path d="M220.333 891.33L266.889 832.95L258.679 826.402L212.122 884.782L220.333 891.33ZM243.15 887.556L249.476 879.623L218.651 855.041L212.325 862.974L243.15 887.556ZM233.692 874.435C242.44 868.89 256.469 863.003 266.517 861.681C266.845 858.414 267.727 853.311 268.848 850.335C257.385 852.577 241.635 860.621 230.554 867.949L233.692 874.435ZM202.035 887.439C210.448 889.594 222.618 895.316 232.969 901.179C233.451 898.718 234.613 894.977 235.708 892.891C224.968 886.375 212.003 879.792 201.184 876.515L202.035 887.439ZM230.685 862.361L237.996 862.044C237.709 856.693 237.65 845.491 238.225 839.916L228.291 842.239C228.518 845.38 229.845 858.846 230.685 862.361ZM188.839 874.866C204.659 858.454 226.813 839.239 242.446 827.914L235.706 819.807C220.1 830.812 198.028 849.068 180.527 865.733L188.839 874.866ZM246.376 834.691L251.475 824.3C241.347 818.159 227.574 810.021 214.441 802.508L208.546 810.328C222.584 819.133 237.332 828.617 246.376 834.691ZM208.318 833.596C211.898 820.97 217.935 805.977 223.024 797.741L212.023 793.407C206.977 802.019 201.634 816.997 198.485 829.511L208.318 833.596Z" fill="black"/>
<path d="M124.127 789.415L131.451 799.17C139.312 794.039 148.535 789.188 156.685 785.99C168.409 781.421 174.971 780.514 177.357 783.506C179.466 786.15 178.276 791.653 171.248 797.257C162.48 804.249 144.006 805.777 132.242 791.026C122.642 778.988 124.997 765.954 135.921 757.242C146.15 749.085 158.031 750.993 167.236 758.11C169.151 759.656 171.053 761.327 173.565 763.763L177.559 751.927C160.861 736.556 143.335 735.848 128.723 747.501C113.484 759.653 110.228 780.122 123.934 797.309C138.306 815.331 163.237 818.33 179.241 805.568C191.001 796.19 194.454 782.963 188.239 775.169C182.191 767.585 168.79 768.482 151.405 775.516C141.252 779.628 132.001 784.729 124.127 789.415Z" fill="black"/>
<path d="M76.9554 742.397L101.252 730.696C114.162 724.479 132.917 716.04 148.749 716.713C148.434 713.802 148.636 708.272 149.271 705.694C132.322 705.164 110.532 714.275 96.4991 721.032L72.2829 732.694L76.9554 742.397ZM73.3255 734.859L80.6225 731.345L58.1482 684.677L62.4782 682.592L84.9525 729.26L92.2495 725.746L65.1413 669.455L46.2173 678.568L73.3255 734.859ZM109.831 678.359L115.043 675.849L105.466 655.963L100.254 658.473L109.831 678.359ZM83.5304 696.359L89.5444 693.463L74.4456 662.11L68.4317 665.006L83.5304 696.359ZM101.181 660.397L102.063 659.972C112.764 660.45 122.845 670.511 130.927 683.807C131.874 681.672 133.989 678.678 135.604 677.109C125.633 662.352 114.049 651.632 99.0421 651.648L99.4732 657.466L100.447 658.873L101.181 660.397ZM113.163 676.458L117.975 682.142C123.861 671.8 123.545 658.221 118.516 643.06C116.048 643.063 112.115 642.487 109.819 641.617C115.226 655.51 117.027 668.275 113.163 676.458ZM105.946 679.933C111.821 681.055 118.685 685.257 124.144 690.235C124.575 688.052 125.869 683.971 126.615 682.031C120.357 677.241 112.103 672.82 104.517 671.632L105.946 679.933ZM100.61 682.8L92.8479 666.682L95.5742 665.369L103.336 681.487L100.61 682.8ZM94.1146 685.927L86.3528 669.81L88.9188 668.574L96.6805 684.692L94.1146 685.927ZM93.652 695.633L111.213 687.176L95.8437 655.262L78.283 663.719L93.652 695.633ZM78.8855 698.2C84.8581 698.09 91.5614 699.702 96.6195 702.206C97.8073 699.954 100.973 695.861 102.309 694.329C95.5079 691.282 85.8999 689.587 77.8572 689.706L78.8855 698.2ZM98.9185 705.544C105.675 706.241 113.192 709.338 118.871 712.926C120.297 710.757 123.745 706.43 125.238 705.019C117.739 700.728 107.198 697.506 98.1724 696.815L98.9185 705.544ZM115.553 705.831L142.897 692.663L138.881 684.323L106.806 699.769L107.276 703.001L115.553 705.831ZM86.5966 712.367C91.3605 713.234 96.775 715.862 101.028 718.95C101.699 716.651 103.632 712.46 104.615 710.604C99.3671 707.501 91.8054 704.722 85.5297 703.792L86.5966 712.367Z" fill="black"/>
<path d="M32.9141 635.592L42.2851 633.453L26.9961 566.467L17.6251 568.606L32.9141 635.592ZM100.262 619.49L109.546 617.371L94.3163 550.646L85.032 552.765L100.262 619.49ZM76.9224 588.027L85.8596 585.988L80.2747 561.519L71.3376 563.559L76.9224 588.027ZM49.1936 626.125L57.0028 624.342L50.8437 597.357L43.0345 599.14L49.1936 626.125ZM34.4786 642.446L61.2901 636.327C74.9995 633.198 94.6413 629.262 109.489 632.72C109.782 630.006 111.222 625.113 112.261 622.867C96.34 619.107 73.8896 623.135 59.0522 626.522L32.2407 632.642L34.4786 642.446ZM40.0935 618.251L75.5818 610.151L73.6212 601.561L38.1328 609.661L40.0935 618.251ZM70.7202 595.651L99.5274 589.076L97.2103 578.924L68.4031 585.499L70.7202 595.651ZM81.6442 613.515L102.903 608.663L100.684 598.945L79.4261 603.797L81.6442 613.515ZM51.3536 615.59C58.428 616.988 66.7237 620.937 71.4893 625.418C72.4617 623.279 74.8375 620.089 76.3428 618.285C70.603 613.935 60.6982 610.536 51.9752 609.514L51.3536 615.59ZM42.5592 597.057L50.3683 595.275L43.2784 564.212L35.4692 565.994L42.5592 597.057ZM33.3798 588.837L68.8681 580.737L66.8877 572.06L31.3994 580.16L33.3798 588.837ZM44.7389 586.609C51.4663 588.086 59.3282 592.134 63.8334 596.675C64.9124 594.603 67.1817 591.346 68.7737 589.522C63.2074 585.133 53.7563 581.721 45.3606 580.534L44.7389 586.609ZM53.7436 606.463L58.5168 610.577C59.9579 607.692 63.4278 601.697 65.382 599.06L57.8125 595.493C57.041 597.312 54.3492 604.317 53.7436 606.463ZM42.8208 577.005L46.0094 582.577C53.4527 577.591 60.2151 570.023 62.8748 562.478C60.3888 561.584 56.671 559.694 54.5867 558.162C53.102 565.256 48.2882 572.562 42.8208 577.005Z" fill="black"/>
<path d="M66.0936 528.514H95.1076V518.19H72.7686V480.009H95.0186V469.24H66.0936V528.514ZM76.0616 523.085H82.2916V476.182H76.0616V523.085ZM85.7626 523.085H92.5266V476.182H85.7626V523.085ZM11.0026 505.285H60.6646V494.516H11.0026V505.285ZM16.6096 530.561H22.8396V480.276H36.8126V531.54H43.0426V469.685H16.6096V530.561ZM26.0436 539.639H33.4306V459.361H26.0436V539.639ZM46.1576 533.498H52.6546V465.947H46.1576V533.498ZM55.8586 539.817H63.2456V459.45H55.8586V539.817Z" fill="black"/>
<path d="M27.4567 392.72L23.8881 403.956C28.2538 405.226 33.2893 407.562 37.5787 410.367C46.2915 416.19 54.1375 425.01 61.8413 438.453L70.9018 430.753C67.7573 426.932 65.1882 423.789 63.1793 420.592C60.8082 416.582 59.1925 410.462 60.2817 405.69C61.1135 402.045 63.7278 398.99 69.281 400.258C73.9863 401.241 81.322 403.098 85.3209 404.375L87.6975 393.963C82.2112 392.802 72.694 390.904 68.0085 389.834C59.9391 387.993 54.4397 392.489 52.796 399.69C52.1226 402.641 51.6804 407.378 52.1869 409.958C49.2707 406.737 44.8992 403.092 41.0634 400.299C35.3706 396.444 30.5087 394.147 27.4567 392.72ZM28.0599 427.274L38.1251 429.571C39.6482 424.898 41.2674 418.603 42.0794 415.046C44.4955 404.46 47.6953 386.841 48.7523 374.211L38.707 371.827C38.0913 384.923 35.1141 400.767 32.4999 412.22C31.4899 416.646 29.6773 422.987 28.0599 427.274ZM68.3873 364.177L57.2649 366.112C58.161 369.786 58.8561 373.139 59.5588 376.86C60.8001 382.621 61.6348 388.562 63.9777 397.496C66.8073 409.096 71.0903 423.128 83.1511 425.881C94.3443 428.436 100.045 419.056 103.135 405.52C105.016 397.277 106.651 386.513 107.197 380.521L96.0835 377.619C95.9026 385.612 94.6389 395.548 92.9556 402.923C91.0346 411.339 88.7824 415.207 84.0101 414.118C79.2379 413.029 76.4772 407.926 74.2013 399.099C71.898 389.992 70.5568 381.47 69.6748 375.335C69.2202 372.127 68.5542 367.046 68.3873 364.177Z" fill="black"/>
<path d="M75.5138 315.366L91.7324 281.688L96.704 284.082L80.4854 317.761L75.5138 315.366ZM88.3436 321.545L104.562 287.867L109.534 290.261L93.3152 323.939L88.3436 321.545ZM62.7642 309.227L78.9828 275.548L83.9543 277.943L67.7358 311.621L62.7642 309.227ZM49.8652 314.474L97.2553 337.295L122.664 284.533L75.2743 261.711L49.8652 314.474ZM105.125 304.338L124.37 313.606C133.511 318.008 137.518 317.073 142.152 307.451C143.04 305.606 146.283 298.871 147.249 296.866C151.11 288.847 149.059 284.698 136.811 277.516C134.895 279.853 131.245 283.331 128.714 284.483C137.983 289.44 139.115 290.578 137.763 293.384C136.952 295.068 134.365 300.441 133.708 301.804C132.318 304.691 131.647 305.059 129.081 303.823L109.836 294.556L105.125 304.338ZM98.952 325.567C109.195 331.784 114.327 336.922 108.816 357.186C111.866 356.185 117.031 355.512 119.983 355.946C125.518 331.94 117.871 323.614 103.933 315.223L98.952 325.567Z" fill="black"/>
<path d="M108.974 218.739L118.242 225.674C119.24 223.852 120.821 221.584 122.18 219.594C124.898 215.614 132.208 205.734 134.899 202.075C135.242 207.926 135.26 219.893 135.353 226.343C135.544 233.097 135.928 247.177 135.884 255.225L147.475 254.109C144.993 239.949 144.781 228.51 153.326 217.794C159.818 209.653 169.057 206.776 175.389 211.825C182.835 217.763 182.516 227.298 173.138 239.058C169.753 243.302 165.738 244.768 163.164 242.715C161.355 241.272 161.141 238.256 163.195 235.682C166.468 231.576 172.056 231.707 177.177 235.563L182.626 226.589C174.805 220.694 164.186 220.877 156.584 230.41C150.702 237.786 151.745 247.041 157.381 251.536C164.409 257.141 174.619 253.33 182.333 243.658C195.761 226.819 193.722 211.533 182.728 202.765C172.639 194.719 158.104 197.814 148.671 209.643C146.951 211.8 145.425 213.998 144.165 216.863C144.237 209.636 143.94 197.446 144.293 191.58C144.331 189.106 144.688 186.659 144.921 184.226L135.107 183.685C134.719 184.742 133.721 186.565 131.599 189.654C128.784 193.897 117.313 208.996 114.316 212.754C112.763 214.702 110.737 216.957 108.974 218.739Z" fill="black"/>
<path d="M316.056 116.287C313.759 117.393 311.392 117.843 308.954 117.637C306.507 117.413 304.257 116.625 302.204 115.275C300.17 113.916 298.6 112.088 297.494 109.791C296.378 107.475 295.928 105.108 296.143 102.689C296.368 100.242 297.16 98.002 298.519 95.9677C299.869 93.9145 301.692 92.3348 303.989 91.2287C306.305 90.1133 308.677 89.6727 311.105 89.9066C313.543 90.1124 315.779 90.8948 317.813 92.2538C319.857 93.5847 321.437 95.4081 322.552 97.7241C323.658 100.021 324.099 102.393 323.874 104.84C323.668 107.278 322.89 109.523 321.54 111.576C320.2 113.601 318.372 115.172 316.056 116.287Z" fill="black"/>
</svg>
