<svg width="1000" height="1000" viewBox="0 0 1000 1000" fill="none" xmlns="http://www.w3.org/2000/svg">
<path d="M487.823 46.8182L499.755 87.8409H500.21L512.141 46.8182H529.982L510.778 105H489.187L469.982 46.8182H487.823Z" fill="black"/>
<path d="M580.235 113.155L589.945 70.6123L605.233 74.1019L595.523 116.644L580.235 113.155ZM598.6 67.9256C596.532 67.4536 594.916 66.3658 593.75 64.6623C592.585 62.9588 592.222 61.1469 592.66 59.2265C593.098 57.3062 594.212 55.8315 596.001 54.8022C597.79 53.773 599.719 53.4944 601.787 53.9664C603.873 54.4427 605.49 55.5304 606.637 57.2297C607.802 58.9333 608.165 60.7452 607.727 62.6655C607.289 64.5858 606.175 66.0606 604.386 67.0898C602.615 68.1232 600.687 68.4018 598.6 67.9256Z" fill="black"/>
<path d="M671.986 145.29C667.789 143.269 664.557 140.725 662.293 137.658C660.053 134.583 658.841 131.14 658.658 127.331C658.499 123.513 659.439 119.488 661.477 115.256C663.433 111.195 665.961 108.04 669.062 105.792C672.163 103.543 675.613 102.293 679.413 102.042C683.212 101.791 687.143 102.643 691.204 104.599C694.173 106.029 696.639 107.784 698.601 109.864C700.563 111.944 701.974 114.274 702.834 116.853C703.703 119.415 703.998 122.164 703.719 125.099C703.441 128.034 702.55 131.063 701.046 134.186L699.468 137.462L664.351 120.55L668.098 112.769L690.213 123.419C690.738 122.285 690.925 121.155 690.773 120.031C690.646 118.898 690.228 117.866 689.519 116.936C688.836 115.998 687.906 115.245 686.729 114.678C685.585 114.127 684.417 113.869 683.223 113.904C682.037 113.922 680.949 114.217 679.958 114.791C678.984 115.373 678.205 116.228 677.62 117.355L673.577 125.75C672.969 127.013 672.691 128.266 672.743 129.511C672.796 130.755 673.181 131.897 673.9 132.937C674.618 133.977 675.677 134.833 677.076 135.507C678.049 135.976 679.002 136.266 679.935 136.38C680.886 136.501 681.775 136.446 682.601 136.213C683.436 135.963 684.167 135.537 684.793 134.935L697.693 141.148C695.935 143.664 693.743 145.531 691.118 146.747C688.502 147.946 685.561 148.443 682.297 148.238C679.058 148.023 675.621 147.041 671.986 145.29Z" fill="black"/>
<path d="M728.065 176.651L746.743 135.733L759.004 145.511L746.334 169.418L746.6 169.63L767.533 152.312L779.438 161.807L767.531 186.032L767.798 186.244L787.967 168.608L800.227 178.386L764.492 205.7L751.254 195.143L761.051 173.016L760.696 172.732L741.303 187.208L728.065 176.651Z" fill="black"/>
<path d="M841.286 298.307L880.601 279.374L887.06 292.786L879.586 296.385L879.784 296.795C882.635 296.431 885.254 296.893 887.641 298.182C890.028 299.471 891.878 301.481 893.193 304.211C894.524 306.976 894.937 309.709 894.431 312.413C893.942 315.107 892.593 317.239 890.384 318.807L890.581 319.217C893.308 318.724 895.918 319.211 898.412 320.68C900.923 322.14 902.882 324.329 904.287 327.247C906.103 331.019 906.362 334.656 905.065 338.161C903.776 341.683 901.118 344.413 897.091 346.353L870.574 359.123L863.77 344.994L886.703 333.949C888.427 333.119 889.565 332.035 890.119 330.696C890.689 329.35 890.621 327.942 889.915 326.475C889.216 325.024 888.167 324.111 886.766 323.734C885.391 323.367 883.841 323.598 882.118 324.428L859.184 335.472L852.676 321.958L875.61 310.913C877.333 310.083 878.472 308.999 879.025 307.66C879.596 306.313 879.528 304.906 878.821 303.439C878.353 302.466 877.728 301.737 876.948 301.251C876.167 300.765 875.264 300.527 874.239 300.537C873.239 300.556 872.168 300.841 871.024 301.392L848.091 312.436L841.286 298.307Z" fill="black"/>
<path d="M866.876 405.805C866.475 404.05 866.232 402.348 866.147 400.697C866.043 399.05 866.085 397.573 866.273 396.268L877.888 397.113C877.732 398.47 877.707 399.68 877.814 400.744C877.925 401.826 878.203 402.704 878.648 403.38C879.098 404.074 879.749 404.498 880.6 404.654L881.451 404.809L922.463 379.713L926.105 395.666L898.203 409.261L898.304 409.704L929.367 409.958L933.033 426.022L883.406 421.031C880.884 420.791 878.522 420.145 876.319 419.093C874.103 418.064 872.178 416.483 870.545 414.35C868.912 412.217 867.689 409.368 866.876 405.805Z" fill="black"/>
<path d="M890.209 565.503L946.932 578.45L941.343 602.934C940.382 607.144 938.775 610.653 936.522 613.46C934.269 616.268 931.502 618.22 928.221 619.317C924.94 620.414 921.287 620.503 917.262 619.584C913.2 618.657 909.981 616.97 907.606 614.524C905.227 612.097 903.697 609.096 903.017 605.522C902.333 601.966 902.484 598.028 903.47 593.707L906.808 579.083L918.773 581.814L916.143 593.336C915.73 595.145 915.599 596.738 915.752 598.113C915.918 599.511 916.422 600.665 917.263 601.576C918.1 602.505 919.322 603.153 920.928 603.52C922.553 603.891 923.954 603.841 925.129 603.371C926.319 602.924 927.302 602.109 928.077 600.926C928.866 599.766 929.467 598.281 929.88 596.471L931.119 591.043L886.694 580.903L890.209 565.503ZM908.658 604.682L879.386 612.92L883.204 596.192L912.4 588.285L908.658 604.682Z" fill="black"/>
<path d="M854.71 671.986C856.731 667.789 859.276 664.557 862.342 662.293C865.418 660.053 868.86 658.841 872.669 658.658C876.487 658.499 880.512 659.439 884.744 661.477C888.805 663.433 891.96 665.961 894.209 669.062C896.457 672.163 897.707 675.613 897.958 679.413C898.209 683.212 897.357 687.143 895.401 691.204C893.972 694.173 892.217 696.639 890.136 698.601C888.056 700.563 885.727 701.974 883.147 702.834C880.585 703.703 877.836 703.998 874.901 703.719C871.966 703.441 868.937 702.55 865.815 701.046L862.539 699.468L879.45 664.351L887.231 668.098L876.581 690.213C877.716 690.738 878.845 690.925 879.97 690.773C881.103 690.646 882.134 690.228 883.064 689.519C884.003 688.836 884.755 687.906 885.322 686.729C885.873 685.585 886.131 684.417 886.096 683.223C886.079 682.037 885.783 680.949 885.209 679.958C884.627 678.984 883.773 678.205 882.646 677.62L874.25 673.577C872.988 672.969 871.734 672.691 870.49 672.743C869.245 672.796 868.103 673.181 867.063 673.9C866.024 674.618 865.167 675.677 864.493 677.076C864.025 678.049 863.734 679.002 863.621 679.935C863.499 680.886 863.555 681.775 863.787 682.601C864.037 683.436 864.463 684.167 865.065 684.793L858.853 697.693C856.336 695.935 854.47 693.743 853.253 691.118C852.054 688.502 851.557 685.561 851.763 682.297C851.977 679.058 852.96 675.621 854.71 671.986Z" fill="black"/>
<path d="M819.15 780.538L828.148 769.255C828.891 769.75 829.686 769.984 830.532 769.956C831.377 769.928 832.205 769.68 833.015 769.212C833.828 768.77 834.559 768.141 835.208 767.327C836.047 766.276 836.575 765.219 836.792 764.157C837.009 763.095 836.756 762.287 836.034 761.735C835.542 761.319 834.904 761.162 834.121 761.264C833.325 761.38 832.29 761.996 831.013 763.11L824.243 769.048C820.82 772.034 817.674 773.777 814.805 774.275C811.94 774.8 809.243 774.067 806.714 772.074C804.297 770.123 802.766 767.714 802.12 764.849C801.476 762.011 801.652 758.965 802.647 755.713C803.644 752.487 805.401 749.298 807.916 746.144C812.073 740.931 816.392 737.702 820.874 736.456C825.345 735.225 829.463 735.832 833.229 738.278L823.522 750.45C822.312 749.751 821.05 749.617 819.737 750.048C818.428 750.505 817.218 751.43 816.108 752.822C815.21 753.947 814.665 755.026 814.471 756.059C814.266 757.106 814.513 757.92 815.212 758.502C815.875 759.007 816.653 759.094 817.546 758.765C818.427 758.45 819.517 757.72 820.817 756.577L826.701 751.386C830.083 748.39 833.316 746.705 836.4 746.33C839.485 745.956 842.361 746.845 845.03 748.997C847.411 750.871 848.921 753.093 849.561 755.663C850.204 758.259 850.016 761.076 848.997 764.116C847.982 767.182 846.181 770.336 843.595 773.579C839.662 778.51 835.541 781.582 831.23 782.795C826.908 784.024 822.881 783.271 819.15 780.538Z" fill="black"/>
<path d="M753.259 827.677L768.563 846.868L756.302 856.645L729.096 822.529L740.734 813.248L745.906 819.733L746.262 819.45C745.266 816.683 745.204 813.947 746.075 811.241C746.957 808.551 748.672 806.191 751.219 804.159C753.603 802.258 756.128 801.141 758.793 800.808C761.444 800.487 764.033 800.893 766.56 802.027C769.073 803.172 771.328 804.983 773.327 807.459L790.685 829.226L778.425 839.003L763.121 819.813C761.76 818.137 760.274 817.154 758.662 816.865C757.036 816.587 755.452 817.062 753.912 818.29C752.891 819.105 752.181 820.022 751.783 821.042C751.382 822.089 751.301 823.171 751.538 824.29C751.773 825.435 752.347 826.564 753.259 827.677Z" fill="black"/>
<path d="M701.694 841.286L720.627 880.601L707.215 887.06L703.615 879.586L703.206 879.784C703.57 882.635 703.108 885.254 701.819 887.641C700.529 890.028 698.52 891.878 695.79 893.193C693.025 894.524 690.292 894.937 687.588 894.431C684.893 893.942 682.762 892.593 681.194 890.384L680.784 890.581C681.277 893.308 680.79 895.918 679.321 898.412C677.861 900.923 675.671 902.882 672.753 904.287C668.982 906.103 665.344 906.362 661.84 905.065C658.318 903.776 655.588 901.118 653.648 897.091L640.878 870.574L655.007 863.77L666.051 886.703C666.881 888.427 667.966 889.565 669.304 890.119C670.651 890.689 672.058 890.621 673.526 889.915C674.976 889.216 675.89 888.167 676.266 886.766C676.634 885.391 676.403 883.841 675.573 882.118L664.529 859.184L678.043 852.676L689.088 875.61C689.918 877.333 691.002 878.472 692.341 879.025C693.687 879.596 695.095 879.528 696.562 878.821C697.535 878.353 698.264 877.728 698.75 876.948C699.236 876.167 699.474 875.264 699.464 874.239C699.445 873.239 699.16 872.168 698.609 871.024L687.565 848.091L701.694 841.286Z" fill="black"/>
<path d="M586.695 884.556C591.237 883.519 595.35 883.494 599.033 884.479C602.701 885.487 605.795 887.423 608.314 890.287C610.818 893.173 612.593 896.906 613.638 901.485C614.641 905.88 614.631 909.923 613.609 913.614C612.586 917.305 610.668 920.434 607.854 922.999C605.04 925.565 601.436 927.349 597.041 928.352C593.828 929.085 590.806 929.25 587.975 928.848C585.144 928.445 582.588 927.503 580.308 926.023C578.031 924.561 576.087 922.596 574.475 920.127C572.862 917.659 571.67 914.736 570.899 911.357L570.09 907.811L608.09 899.138L610.012 907.558L586.082 913.02C586.378 914.234 586.937 915.234 587.757 916.018C588.563 916.825 589.532 917.371 590.666 917.656C591.785 917.964 592.982 917.972 594.256 917.681C595.493 917.399 596.567 916.872 597.479 916.101C598.395 915.348 599.062 914.438 599.479 913.371C599.877 912.309 599.954 911.155 599.709 909.91L597.635 900.825C597.323 899.459 596.759 898.305 595.942 897.365C595.125 896.425 594.112 895.772 592.902 895.407C591.692 895.042 590.33 895.033 588.816 895.378C587.763 895.618 586.837 895.985 586.036 896.479C585.217 896.977 584.557 897.574 584.056 898.271C583.559 898.987 583.253 899.776 583.139 900.637L569.18 903.823C568.986 900.759 569.535 897.933 570.829 895.346C572.127 892.777 574.116 890.555 576.797 888.68C579.463 886.828 582.762 885.454 586.695 884.556Z" fill="black"/>
<path d="M409.716 895.509C411.95 896.019 413.866 897.03 415.464 898.541C417.058 900.07 418.198 901.884 418.884 903.984C419.552 906.079 419.631 908.243 419.121 910.478C418.607 912.73 417.597 914.646 416.09 916.226C414.561 917.819 412.748 918.95 410.653 919.618C408.554 920.304 406.387 920.393 404.153 919.883C401.9 919.369 399.986 918.349 398.411 916.824C396.814 915.313 395.681 913.51 395.013 911.415C394.322 909.334 394.234 907.167 394.748 904.915C395.258 902.68 396.278 900.766 397.807 899.173C399.318 897.575 401.123 896.433 403.222 895.747C405.299 895.074 407.463 894.995 409.716 895.509Z" fill="black"/>
<path d="M233.963 869.914L275.811 817.438L268.431 811.552L226.582 864.028L233.963 869.914ZM254.472 866.522L260.159 859.391L232.45 837.295L226.764 844.425L254.472 866.522ZM245.971 854.728C253.834 849.743 266.445 844.451 275.476 843.263C275.772 840.327 276.564 835.74 277.572 833.065C267.268 835.08 253.111 842.311 243.151 848.898L245.971 854.728ZM217.515 866.416C225.077 868.354 236.017 873.497 245.321 878.767C245.755 876.555 246.799 873.193 247.783 871.317C238.129 865.46 226.475 859.543 216.75 856.597L217.515 866.416ZM243.268 843.875L249.839 843.59C249.582 838.78 249.529 828.71 250.046 823.699L241.116 825.787C241.32 828.61 242.513 840.715 243.268 843.875ZM205.654 855.115C219.874 840.363 239.787 823.09 253.84 812.911L247.782 805.624C233.754 815.516 213.914 831.926 198.182 846.906L205.654 855.115ZM257.373 819.003L261.956 809.663C252.852 804.142 240.472 796.827 228.667 790.074L223.368 797.103C235.986 805.018 249.243 813.543 257.373 819.003ZM223.163 818.019C226.381 806.669 231.808 793.192 236.382 785.789L226.493 781.894C221.957 789.634 217.155 803.098 214.324 814.347L223.163 818.019Z" fill="black"/>
<path d="M143.793 774.754L150.377 783.523C157.443 778.911 165.733 774.551 173.059 771.676C183.598 767.569 189.496 766.754 191.641 769.443C193.536 771.82 192.467 776.766 186.149 781.804C178.269 788.088 161.662 789.462 151.088 776.202C142.459 765.382 144.576 753.666 154.395 745.835C163.59 738.502 174.269 740.218 182.543 746.615C184.265 748.005 185.974 749.507 188.232 751.697L191.822 741.057C176.813 727.241 161.059 726.604 147.925 737.079C134.227 748.002 131.3 766.401 143.62 781.85C156.539 798.05 178.949 800.746 193.334 789.274C203.905 780.844 207.009 768.955 201.423 761.949C195.986 755.132 183.94 755.938 168.313 762.261C159.187 765.957 150.872 770.542 143.793 774.754Z" fill="black"/>
<path d="M98.5827 728.209L120.422 717.692C132.027 712.103 148.885 704.518 163.117 705.123C162.834 702.506 163.015 697.535 163.586 695.218C148.35 694.741 128.764 702.931 116.15 709.005L94.3827 719.488L98.5827 728.209ZM95.3199 721.434L101.879 718.275L81.6773 676.326L85.5695 674.452L105.771 716.401L112.33 713.242L87.9633 662.644L70.953 670.835L95.3199 721.434ZM128.134 670.647L132.819 668.391L124.211 650.515L119.526 652.772L128.134 670.647ZM104.493 686.827L109.899 684.223L96.3267 656.041L90.9209 658.644L104.493 686.827ZM120.359 654.502L121.152 654.12C130.77 654.549 139.832 663.593 147.097 675.544C147.948 673.625 149.849 670.934 151.301 669.524C142.338 656.259 131.926 646.623 118.436 646.637L118.823 651.867L119.699 653.132L120.359 654.502ZM131.129 668.938L135.454 674.047C140.745 664.751 140.461 652.546 135.94 638.918C133.722 638.921 130.187 638.403 128.123 637.621C132.983 650.109 134.602 661.583 131.129 668.938ZM124.642 672.062C129.923 673.071 136.093 676.848 141 681.322C141.387 679.36 142.55 675.691 143.22 673.948C137.595 669.642 130.176 665.668 123.357 664.601L124.642 672.062ZM119.845 674.639L112.868 660.151L115.319 658.971L122.296 673.458L119.845 674.639ZM114.007 677.45L107.03 662.963L109.336 661.852L116.313 676.339L114.007 677.45ZM113.591 686.175L129.376 678.573L115.561 649.886L99.776 657.488L113.591 686.175ZM100.318 688.482C105.686 688.383 111.712 689.832 116.258 692.082C117.326 690.059 120.172 686.38 121.373 685.002C115.259 682.263 106.623 680.74 99.3934 680.847L100.318 688.482ZM118.325 695.083C124.398 695.71 131.155 698.494 136.26 701.718C137.541 699.769 140.64 695.879 141.983 694.611C135.242 690.754 125.767 687.858 117.654 687.237L118.325 695.083ZM133.277 695.341L157.856 683.504L154.246 676.008L125.415 689.892L125.837 692.797L133.277 695.341ZM107.249 701.216C111.531 701.995 116.398 704.357 120.221 707.133C120.824 705.067 122.562 701.3 123.446 699.631C118.728 696.842 111.931 694.344 106.29 693.509L107.249 701.216Z" fill="black"/>
<path d="M57.2087 627.405L65.632 625.483L51.8891 565.271L43.4658 567.194L57.2087 627.405ZM117.746 612.932L126.091 611.027L112.402 551.049L104.056 552.954L117.746 612.932ZM96.7667 584.651L104.8 582.817L99.78 560.823L91.7466 562.656L96.7667 584.651ZM71.842 618.896L78.8615 617.294L73.3251 593.037L66.3057 594.639L71.842 618.896ZM58.615 633.567L82.7152 628.066C95.0383 625.253 112.694 621.716 126.04 624.824C126.304 622.384 127.597 617.986 128.532 615.968C114.221 612.587 94.0406 616.209 80.7036 619.253L56.6034 624.753L58.615 633.567ZM63.6621 611.818L95.5617 604.538L93.7993 596.816L61.8997 604.097L63.6621 611.818ZM91.1917 591.503L117.086 585.593L115.003 576.468L89.1089 582.378L91.1917 591.503ZM101.011 607.561L120.12 603.199L118.126 594.464L99.0173 598.825L101.011 607.561ZM73.7835 609.426C80.1425 610.683 87.5994 614.232 91.883 618.26C92.7571 616.337 94.8927 613.47 96.2457 611.849C91.0863 607.939 82.1832 604.883 74.3423 603.965L73.7835 609.426ZM65.8784 592.768L72.8979 591.165L66.5249 563.244L59.5054 564.846L65.8784 592.768ZM57.6273 585.378L89.5269 578.097L87.7468 570.298L55.8471 577.579L57.6273 585.378ZM67.8378 583.376C73.8848 584.704 80.9517 588.343 85.0014 592.424C85.9712 590.561 88.011 587.634 89.442 585.994C84.4386 582.049 75.9433 578.982 68.3965 577.915L67.8378 583.376ZM75.9319 601.222L80.2223 604.92C81.5177 602.327 84.6367 596.938 86.3933 594.568L79.5893 591.361C78.8958 592.997 76.4762 599.293 75.9319 601.222ZM66.1136 574.743L68.9797 579.751C75.6703 575.27 81.7489 568.467 84.1397 561.685C81.905 560.882 78.5632 559.183 76.6896 557.805C75.3552 564.182 71.0281 570.75 66.1136 574.743Z" fill="black"/>
<path d="M86.36 526.08H112.44V516.8H92.36V482.48H112.36V472.8H86.36V526.08ZM95.32 521.2H100.92V479.04H95.32V521.2ZM104.04 521.2H110.12V479.04H104.04V521.2ZM36.84 505.2H81.48V495.52H36.84V505.2ZM41.88 527.92H47.48V482.72H60.04V528.8H65.64V473.2H41.88V527.92ZM50.36 536.08H57V463.92H50.36V536.08ZM68.44 530.56H74.28V469.84H68.44V530.56ZM77.16 536.24H83.8V464H77.16V536.24Z" fill="black"/>
<path d="M52.1029 398.919L48.8952 409.018C52.8195 410.16 57.3457 412.26 61.2014 414.781C69.0331 420.015 76.0857 427.943 83.0104 440.027L91.1547 433.106C88.3283 429.671 86.0189 426.846 84.2131 423.972C82.0818 420.367 80.6295 414.866 81.6086 410.577C82.3563 407.301 84.7062 404.555 89.6978 405.694C93.9273 406.577 100.521 408.247 104.116 409.395L106.252 400.036C101.321 398.992 92.7657 397.286 88.5541 396.325C81.3006 394.669 76.3574 398.711 74.8798 405.184C74.2746 407.836 73.877 412.094 74.3323 414.414C71.711 411.518 67.7816 408.241 64.3337 405.731C59.2166 402.266 54.8463 400.201 52.1029 398.919ZM52.6452 429.978L61.6925 432.043C63.0616 427.842 64.5171 422.184 65.247 418.987C67.4188 409.471 70.2949 393.634 71.2451 382.281L62.2156 380.138C61.6622 391.91 58.986 406.152 56.6362 416.447C55.7283 420.425 54.099 426.125 52.6452 429.978ZM88.8945 373.262L78.8969 375.001C79.7023 378.303 80.3271 381.318 80.9588 384.662C82.0745 389.84 82.8249 395.181 84.9308 403.211C87.4743 413.639 91.3242 426.252 102.165 428.726C112.227 431.022 117.351 422.591 120.128 410.424C121.819 403.015 123.289 393.339 123.78 387.953L113.79 385.345C113.627 392.529 112.491 401.46 110.978 408.09C109.252 415.655 107.227 419.132 102.938 418.153C98.6478 417.174 96.1664 412.586 94.1206 404.652C92.0502 396.466 90.8446 388.806 90.0518 383.291C89.6432 380.408 89.0446 375.84 88.8945 373.262Z" fill="black"/>
<path d="M96.8969 324.521L111.475 294.249L115.944 296.401L101.366 326.674L96.8969 324.521ZM108.429 330.075L123.008 299.803L127.477 301.955L112.898 332.227L108.429 330.075ZM85.4365 319.002L100.015 288.73L104.484 290.882L89.9053 321.155L85.4365 319.002ZM73.842 323.719L116.44 344.233L139.279 296.806L96.6816 276.292L73.842 323.719ZM123.514 314.608L140.812 322.939C149.029 326.896 152.631 326.055 156.796 317.406C157.594 315.748 160.51 309.694 161.378 307.892C164.849 300.684 163.004 296.955 151.995 290.498C150.273 292.599 146.992 295.725 144.717 296.761C153.049 301.217 154.066 302.24 152.851 304.762C152.122 306.276 149.797 311.105 149.207 312.331C147.957 314.925 147.354 315.256 145.047 314.146L127.749 305.815L123.514 314.608ZM117.965 333.691C127.172 339.279 131.785 343.898 126.831 362.112C129.573 361.213 134.216 360.607 136.869 360.997C141.844 339.419 134.971 331.935 122.443 324.393L117.965 333.691Z" fill="black"/>
<path d="M129.613 233.276L137.943 239.51C138.84 237.872 140.262 235.833 141.483 234.045C143.927 230.468 150.497 221.587 152.916 218.297C153.224 223.557 153.24 234.314 153.324 240.111C153.496 246.183 153.841 258.839 153.802 266.073L164.22 265.07C161.989 252.342 161.798 242.06 169.48 232.428C175.316 225.11 183.62 222.523 189.312 227.062C196.004 232.399 195.718 240.97 187.288 251.541C184.245 255.356 180.637 256.674 178.322 254.828C176.696 253.531 176.505 250.82 178.35 248.506C181.293 244.816 186.316 244.933 190.919 248.399L195.817 240.333C188.787 235.034 179.242 235.199 172.408 243.767C167.121 250.397 168.058 258.717 173.125 262.757C179.442 267.795 188.62 264.37 195.553 255.676C207.624 240.54 205.791 226.799 195.908 218.918C186.839 211.686 173.775 214.467 165.295 225.1C163.749 227.039 162.378 229.015 161.245 231.591C161.31 225.094 161.043 214.137 161.36 208.864C161.394 206.64 161.715 204.441 161.924 202.254L153.103 201.768C152.754 202.718 151.857 204.356 149.95 207.132C147.42 210.947 137.108 224.519 134.415 227.896C133.018 229.648 131.197 231.674 129.613 233.276Z" fill="black"/>
<path d="M323.99 134.489C321.926 135.484 319.798 135.888 317.607 135.703C315.407 135.501 313.385 134.794 311.539 133.58C309.71 132.359 308.299 130.716 307.305 128.651C306.302 126.569 305.898 124.441 306.091 122.267C306.293 120.067 307.005 118.053 308.226 116.225C309.44 114.379 311.079 112.959 313.143 111.965C315.225 110.963 317.357 110.566 319.54 110.777C321.731 110.962 323.741 111.665 325.569 112.887C327.406 114.083 328.826 115.722 329.829 117.804C330.823 119.868 331.219 122 331.017 124.2C330.832 126.391 330.133 128.41 328.92 130.255C327.715 132.075 326.072 133.487 323.99 134.489Z" fill="black"/>
</svg>
