<svg width="1000" height="1000" viewBox="0 0 1000 1000" fill="none" xmlns="http://www.w3.org/2000/svg">
<path d="M487.823 46.8182L499.755 87.8409H500.21L512.141 46.8182H529.982L510.778 105H489.187L469.982 46.8182H487.823Z" fill="black"/>
<path d="M580.236 113.156L589.946 70.6136L605.234 74.1032L595.524 116.645L580.236 113.156ZM598.601 67.9269C596.533 67.4549 594.917 66.3671 593.751 64.6636C592.586 62.9601 592.223 61.1481 592.661 59.2278C593.099 57.3075 594.213 55.8327 596.002 54.8035C597.791 53.7743 599.719 53.4957 601.787 53.9677C603.874 54.4439 605.491 55.5317 606.637 57.231C607.803 58.9345 608.166 60.7465 607.728 62.6668C607.29 64.5871 606.176 66.0619 604.387 67.0911C602.616 68.1245 600.688 68.4031 598.601 67.9269Z" fill="black"/>
<path d="M671.987 145.289C667.79 143.268 664.558 140.724 662.293 137.657C660.054 134.581 658.842 131.139 658.659 127.33C658.5 123.512 659.44 119.487 661.478 115.255C663.434 111.194 665.962 108.039 669.063 105.791C672.164 103.542 675.614 102.292 679.414 102.041C683.213 101.79 687.144 102.642 691.205 104.598C694.174 106.028 696.64 107.783 698.602 109.863C700.564 111.943 701.975 114.273 702.835 116.852C703.704 119.414 703.998 122.163 703.72 125.098C703.442 128.033 702.551 131.062 701.047 134.185L699.469 137.461L664.352 120.549L668.099 112.768L690.214 123.418C690.739 122.284 690.926 121.154 690.773 120.03C690.646 118.897 690.229 117.865 689.52 116.935C688.837 115.997 687.907 115.244 686.73 114.677C685.586 114.126 684.418 113.868 683.224 113.903C682.038 113.921 680.95 114.216 679.959 114.79C678.985 115.372 678.205 116.227 677.621 117.353L673.578 125.749C672.97 127.012 672.692 128.265 672.744 129.51C672.796 130.754 673.182 131.896 673.9 132.936C674.619 133.976 675.678 134.832 677.077 135.506C678.05 135.975 679.003 136.265 679.936 136.379C680.887 136.5 681.775 136.444 682.602 136.212C683.437 135.962 684.168 135.536 684.794 134.934L697.694 141.147C695.936 143.663 693.744 145.53 691.119 146.746C688.503 147.945 685.562 148.442 682.298 148.237C679.059 148.022 675.622 147.04 671.987 145.289Z" fill="black"/>
<path d="M728.067 176.652L746.745 135.734L759.006 145.512L746.336 169.419L746.602 169.631L767.535 152.313L779.44 161.807L767.533 186.033L767.8 186.245L787.969 168.609L800.229 178.387L764.494 205.701L751.256 195.144L761.053 173.016L760.698 172.733L741.305 187.209L728.067 176.652Z" fill="black"/>
<path d="M841.285 298.305L880.6 279.372L887.059 292.784L879.585 296.384L879.782 296.793C882.634 296.429 885.253 296.891 887.64 298.181C890.026 299.47 891.877 301.479 893.192 304.21C894.523 306.974 894.935 309.708 894.429 312.411C893.94 315.106 892.592 317.237 890.383 318.806L890.58 319.215C893.306 318.722 895.917 319.21 898.411 320.678C900.922 322.139 902.88 324.328 904.285 327.246C906.101 331.017 906.361 334.655 905.063 338.159C903.774 341.681 901.116 344.412 897.089 346.351L870.572 359.121L863.768 344.992L886.702 333.948C888.425 333.118 889.564 332.033 890.117 330.695C890.688 329.348 890.62 327.941 889.913 326.473C889.215 325.023 888.165 324.109 886.765 323.733C885.389 323.365 883.84 323.596 882.116 324.426L859.183 335.47L852.674 321.956L875.608 310.912C877.332 310.082 878.47 308.997 879.024 307.659C879.594 306.312 879.526 304.905 878.82 303.437C878.351 302.464 877.727 301.735 876.946 301.249C876.165 300.763 875.263 300.525 874.238 300.536C873.238 300.555 872.166 300.839 871.023 301.39L848.089 312.434L841.285 298.305Z" fill="black"/>
<path d="M866.873 405.802C866.472 404.048 866.229 402.346 866.144 400.695C866.04 399.048 866.082 397.571 866.269 396.266L877.885 397.111C877.729 398.468 877.704 399.678 877.81 400.742C877.921 401.824 878.2 402.702 878.645 403.378C879.095 404.072 879.746 404.496 880.597 404.651L881.448 404.807L922.46 379.711L926.102 395.664L898.2 409.259L898.301 409.702L929.363 409.956L933.03 426.02L883.402 421.029C880.88 420.788 878.518 420.143 876.316 419.091C874.1 418.062 872.175 416.481 870.542 414.348C868.909 412.215 867.686 409.366 866.873 405.802Z" fill="black"/>
<path d="M253 600.061C337.344 604.565 416.98 574.18 482.509 520.659C505.078 502.226 527.504 477.771 540.703 451.387C546.688 439.424 554.672 415.877 544.463 404.824C527.513 386.472 505.231 420.443 497.875 433.089C484.578 455.947 494.569 500.455 518.308 513.307C562.376 537.164 627.691 531.467 676.055 529.318C695.366 528.46 715.018 523.6 734.086 523.6C741.484 523.6 723.606 514.32 720.845 511.837C704.555 497.183 703.693 497.456 723.788 510.366C726.57 512.154 747 523.153 747 525.07C747 526.409 712.249 551.983 709.075 555.949" stroke="#1C1C1C" stroke-width="20" stroke-linecap="round"/>
<path d="M890.206 565.505L946.929 578.452L941.34 602.936C940.379 607.146 938.772 610.655 936.519 613.462C934.266 616.27 931.499 618.222 928.218 619.319C924.937 620.416 921.284 620.505 917.259 619.586C913.197 618.659 909.978 616.972 907.603 614.526C905.224 612.099 903.694 609.098 903.014 605.524C902.33 601.968 902.481 598.03 903.467 593.709L906.805 579.085L918.77 581.816L916.14 593.338C915.727 595.147 915.596 596.74 915.749 598.115C915.915 599.513 916.419 600.667 917.26 601.578C918.097 602.507 919.319 603.155 920.925 603.522C922.55 603.893 923.951 603.843 925.126 603.373C926.316 602.926 927.299 602.111 928.074 600.928C928.863 599.768 929.464 598.283 929.877 596.473L931.116 591.045L886.691 580.905L890.206 565.505ZM908.655 604.684L879.383 612.922L883.201 596.194L912.397 588.287L908.655 604.684Z" fill="black"/>
<path d="M854.708 671.989C856.73 667.791 859.274 664.56 862.341 662.295C865.416 660.055 868.858 658.844 872.668 658.66C876.486 658.502 880.511 659.441 884.742 661.479C888.804 663.435 891.958 665.963 894.207 669.064C896.455 672.165 897.705 675.615 897.956 679.415C898.208 683.215 897.355 687.145 895.4 691.206C893.97 694.176 892.215 696.641 890.135 698.603C888.055 700.566 885.725 701.977 883.146 702.837C880.583 703.705 877.835 704 874.9 703.722C871.965 703.443 868.936 702.552 865.813 701.048L862.537 699.471L879.448 664.353L887.229 668.101L876.58 690.215C877.714 690.741 878.843 690.927 879.968 690.775C881.101 690.648 882.133 690.23 883.062 689.522C884.001 688.839 884.754 687.908 885.321 686.731C885.871 685.588 886.129 684.419 886.095 683.225C886.077 682.04 885.781 680.951 885.207 679.96C884.625 678.986 883.771 678.207 882.644 677.622L874.249 673.579C872.986 672.971 871.732 672.693 870.488 672.746C869.244 672.798 868.101 673.183 867.062 673.902C866.022 674.62 865.165 675.679 864.491 677.079C864.023 678.051 863.732 679.004 863.619 679.938C863.498 680.888 863.553 681.777 863.786 682.604C864.035 683.438 864.461 684.169 865.063 684.795L858.851 697.696C856.334 695.937 854.468 693.746 853.252 691.121C852.052 688.504 851.555 685.564 851.761 682.299C851.975 679.06 852.958 675.623 854.708 671.989Z" fill="black"/>
<path d="M819.149 780.538L828.147 769.255C828.89 769.75 829.685 769.984 830.531 769.956C831.377 769.928 832.205 769.68 833.014 769.212C833.827 768.77 834.558 768.141 835.208 767.327C836.046 766.276 836.574 765.219 836.791 764.157C837.008 763.095 836.756 762.287 836.033 761.735C835.541 761.319 834.904 761.162 834.12 761.264C833.325 761.38 832.289 761.996 831.013 763.11L824.243 769.048C820.819 772.034 817.673 773.777 814.805 774.275C811.939 774.8 809.242 774.067 806.713 772.074C804.297 770.123 802.765 767.714 802.119 764.849C801.476 762.011 801.651 758.965 802.646 755.713C803.644 752.487 805.4 749.298 807.915 746.144C812.072 740.931 816.391 737.702 820.874 736.456C825.344 735.225 829.462 735.832 833.228 738.278L823.522 750.45C822.311 749.751 821.049 749.617 819.737 750.048C818.427 750.505 817.217 751.43 816.107 752.822C815.21 753.947 814.664 755.026 814.471 756.059C814.265 757.106 814.512 757.92 815.211 758.502C815.874 759.007 816.652 759.094 817.545 758.765C818.426 758.45 819.516 757.72 820.816 756.577L826.7 751.386C830.082 748.39 833.315 746.705 836.4 746.33C839.484 745.956 842.361 746.845 845.029 748.997C847.41 750.871 848.92 753.093 849.56 755.663C850.203 758.259 850.015 761.076 848.996 764.116C847.981 767.182 846.18 770.336 843.594 773.579C839.662 778.51 835.54 781.582 831.229 782.795C826.907 784.024 822.88 783.271 819.149 780.538Z" fill="black"/>
<path d="M753.26 827.678L768.564 846.869L756.304 856.646L729.097 822.53L740.735 813.248L745.908 819.734L746.263 819.45C745.267 816.683 745.205 813.947 746.076 811.242C746.959 808.552 748.673 806.191 751.22 804.16C753.604 802.259 756.129 801.142 758.794 800.809C761.445 800.488 764.034 800.894 766.561 802.028C769.074 803.173 771.329 804.984 773.328 807.46L790.686 829.227L778.426 839.004L763.122 819.814C761.761 818.137 760.275 817.155 758.663 816.865C757.037 816.588 755.454 817.063 753.914 818.291C752.892 819.106 752.182 820.023 751.784 821.043C751.383 822.089 751.302 823.172 751.54 824.29C751.775 825.435 752.348 826.565 753.26 827.678Z" fill="black"/>
<path d="M701.695 841.283L720.628 880.598L707.216 887.057L703.617 879.583L703.207 879.78C703.571 882.632 703.109 885.251 701.82 887.638C700.531 890.024 698.521 891.875 695.791 893.19C693.026 894.521 690.293 894.934 687.59 894.428C684.895 893.939 682.763 892.59 681.195 890.381L680.785 890.578C681.278 893.305 680.791 895.915 679.322 898.409C677.862 900.92 675.673 902.878 672.755 904.283C668.984 906.099 665.346 906.359 661.841 905.062C658.319 903.773 655.589 901.115 653.65 897.087L640.88 870.57L655.008 863.766L666.053 886.7C666.883 888.423 667.967 889.562 669.306 890.115C670.653 890.686 672.06 890.618 673.527 889.911C674.978 889.213 675.891 888.163 676.268 886.763C676.635 885.387 676.404 883.838 675.574 882.115L664.53 859.181L678.045 852.673L689.089 875.606C689.919 877.33 691.003 878.468 692.342 879.022C693.689 879.592 695.096 879.524 696.563 878.818C697.536 878.349 698.265 877.725 698.751 876.944C699.237 876.164 699.475 875.261 699.465 874.236C699.446 873.236 699.161 872.164 698.61 871.021L687.566 848.087L701.695 841.283Z" fill="black"/>
<path d="M586.696 884.552C591.238 883.516 595.351 883.49 599.034 884.476C602.702 885.484 605.796 887.42 608.314 890.283C610.819 893.17 612.593 896.902 613.639 901.482C614.642 905.876 614.632 909.919 613.61 913.61C612.587 917.302 610.669 920.43 607.855 922.995C605.041 925.561 601.436 927.345 597.042 928.348C593.829 929.082 590.807 929.247 587.976 928.844C585.145 928.441 582.589 927.499 580.309 926.019C578.032 924.557 576.088 922.592 574.476 920.124C572.863 917.656 571.671 914.732 570.9 911.353L570.091 907.808L608.091 899.134L610.013 907.554L586.083 913.016C586.379 914.231 586.938 915.23 587.758 916.014C588.563 916.821 589.533 917.367 590.667 917.652C591.786 917.96 592.983 917.969 594.257 917.678C595.494 917.395 596.568 916.868 597.48 916.097C598.396 915.344 599.063 914.434 599.48 913.368C599.878 912.305 599.955 911.151 599.709 909.906L597.636 900.821C597.324 899.455 596.76 898.302 595.943 897.361C595.126 896.421 594.113 895.768 592.903 895.404C591.693 895.039 590.331 895.029 588.816 895.375C587.764 895.615 586.838 895.982 586.037 896.475C585.218 896.973 584.558 897.57 584.057 898.268C583.56 898.983 583.254 899.772 583.14 900.633L569.181 903.819C568.986 900.755 569.536 897.93 570.83 895.342C572.128 892.773 574.117 890.551 576.797 888.677C579.464 886.825 582.763 885.45 586.696 884.552Z" fill="black"/>
<path d="M409.716 895.505C411.95 896.015 413.866 897.026 415.464 898.537C417.058 900.066 418.198 901.88 418.884 903.979C419.552 906.075 419.631 908.239 419.121 910.473C418.607 912.726 417.597 914.642 416.09 916.221C414.561 917.815 412.748 918.946 410.653 919.614C408.554 920.3 406.387 920.388 404.153 919.879C401.9 919.364 399.986 918.345 398.411 916.82C396.814 915.309 395.681 913.506 395.013 911.411C394.322 909.33 394.234 907.163 394.748 904.91C395.258 902.676 396.278 900.762 397.807 899.169C399.318 897.571 401.123 896.429 403.222 895.742C405.299 895.07 407.463 894.991 409.716 895.505Z" fill="black"/>
<path d="M233.963 869.915L275.811 817.438L268.431 811.553L226.582 864.029L233.963 869.915ZM254.472 866.522L260.159 859.392L232.45 837.296L226.764 844.426L254.472 866.522ZM245.971 854.729C253.834 849.744 266.445 844.452 275.476 843.264C275.772 840.327 276.564 835.741 277.572 833.066C267.268 835.08 253.111 842.311 243.151 848.898L245.971 854.729ZM217.515 866.417C225.077 868.354 236.017 873.497 245.321 878.768C245.755 876.556 246.799 873.193 247.783 871.318C238.129 865.461 226.475 859.544 216.75 856.598L217.515 866.417ZM243.268 843.876L249.839 843.591C249.582 838.781 249.529 828.711 250.046 823.7L241.116 825.788C241.32 828.611 242.513 840.716 243.268 843.876ZM205.654 855.116C219.874 840.364 239.787 823.091 253.84 812.912L247.782 805.625C233.754 815.517 213.914 831.927 198.182 846.906L205.654 855.116ZM257.373 819.004L261.956 809.664C252.852 804.143 240.472 796.828 228.667 790.074L223.368 797.104C235.986 805.018 249.243 813.544 257.373 819.004ZM223.163 818.019C226.381 806.67 231.808 793.193 236.382 785.79L226.493 781.894C221.957 789.635 217.155 803.098 214.324 814.347L223.163 818.019Z" fill="black"/>
<path d="M143.794 774.754L150.377 783.522C157.443 778.91 165.733 774.55 173.059 771.676C183.598 767.569 189.496 766.753 191.641 769.443C193.536 771.82 192.467 776.766 186.15 781.803C178.269 788.088 161.662 789.462 151.088 776.202C142.459 765.381 144.576 753.665 154.396 745.834C163.59 738.502 174.27 740.218 182.543 746.615C184.265 748.004 185.975 749.506 188.233 751.696L191.822 741.057C176.813 727.241 161.06 726.604 147.925 737.079C134.227 748.002 131.3 766.401 143.62 781.85C156.539 798.05 178.949 800.746 193.335 789.273C203.905 780.844 207.009 768.954 201.423 761.949C195.986 755.132 183.941 755.938 168.313 762.26C159.187 765.957 150.872 770.542 143.794 774.754Z" fill="black"/>
<path d="M98.5827 728.211L120.422 717.694C132.027 712.106 148.885 704.52 163.117 705.125C162.834 702.509 163.015 697.538 163.586 695.221C148.35 694.744 128.764 702.933 116.15 709.007L94.3827 719.49L98.5827 728.211ZM95.3199 721.436L101.879 718.277L81.6773 676.328L85.5695 674.454L105.771 716.403L112.33 713.244L87.9633 662.646L70.953 670.838L95.3199 721.436ZM128.134 670.649L132.819 668.393L124.211 650.518L119.526 652.774L128.134 670.649ZM104.493 686.829L109.899 684.226L96.3267 656.043L90.9209 658.647L104.493 686.829ZM120.359 654.504L121.152 654.122C130.77 654.551 139.832 663.595 147.097 675.547C147.948 673.627 149.849 670.936 151.301 669.526C142.338 656.261 131.926 646.625 118.436 646.639L118.823 651.869L119.699 653.134L120.359 654.504ZM131.129 668.94L135.454 674.05C140.745 664.754 140.461 652.548 135.94 638.92C133.722 638.923 130.187 638.405 128.123 637.623C132.983 650.111 134.602 661.585 131.129 668.94ZM124.642 672.064C129.923 673.073 136.093 676.85 141 681.324C141.387 679.362 142.55 675.694 143.22 673.95C137.595 669.645 130.176 665.67 123.357 664.603L124.642 672.064ZM119.845 674.641L112.868 660.153L115.319 658.973L122.296 673.461L119.845 674.641ZM114.007 677.453L107.03 662.965L109.336 661.854L116.313 676.342L114.007 677.453ZM113.591 686.177L129.376 678.575L115.561 649.888L99.776 657.49L113.591 686.177ZM100.318 688.484C105.686 688.385 111.712 689.834 116.258 692.085C117.326 690.061 120.172 686.382 121.373 685.004C115.259 682.266 106.623 680.742 99.3934 680.849L100.318 688.484ZM118.325 695.085C124.398 695.712 131.155 698.496 136.26 701.72C137.541 699.772 140.64 695.882 141.983 694.613C135.242 690.756 125.767 687.861 117.654 687.239L118.325 695.085ZM133.277 695.343L157.856 683.507L154.246 676.011L125.415 689.895L125.837 692.799L133.277 695.343ZM107.249 701.218C111.531 701.997 116.398 704.36 120.221 707.136C120.824 705.069 122.562 701.302 123.446 699.634C118.728 696.844 111.931 694.346 106.29 693.511L107.249 701.218Z" fill="black"/>
<path d="M57.2082 627.407L65.6315 625.485L51.8886 565.273L43.4653 567.196L57.2082 627.407ZM117.745 612.934L126.091 611.029L112.401 551.051L104.056 552.956L117.745 612.934ZM96.7662 584.653L104.8 582.819L99.7795 560.825L91.7461 562.658L96.7662 584.653ZM71.8415 618.898L78.861 617.296L73.3247 593.039L66.3052 594.641L71.8415 618.898ZM58.6145 633.569L82.7147 628.068C95.0378 625.255 112.693 621.718 126.04 624.826C126.303 622.386 127.597 617.988 128.531 615.97C114.22 612.589 94.0401 616.211 80.7031 619.255L56.6029 624.755L58.6145 633.569ZM63.6616 611.82L95.5612 604.54L93.7989 596.818L61.8992 604.099L63.6616 611.82ZM91.1912 591.505L117.085 585.595L115.003 576.47L89.1084 582.38L91.1912 591.505ZM101.011 607.563L120.119 603.201L118.125 594.466L99.0168 598.827L101.011 607.563ZM73.783 609.428C80.1421 610.685 87.5989 614.234 91.8826 618.262C92.7566 616.339 94.8922 613.472 96.2452 611.851C91.0858 607.941 82.1827 604.885 74.3418 603.967L73.783 609.428ZM65.8779 592.77L72.8974 591.167L66.5244 563.246L59.5049 564.848L65.8779 592.77ZM57.6268 585.38L89.5265 578.1L87.7463 570.3L55.8466 577.581L57.6268 585.38ZM67.8373 583.378C73.8843 584.706 80.9512 588.345 85.0009 592.426C85.9707 590.563 88.0105 587.636 89.4415 585.996C84.4381 582.051 75.9428 578.984 68.396 577.917L67.8373 583.378ZM75.9314 601.224L80.2218 604.922C81.5173 602.329 84.6363 596.94 86.3929 594.57L79.5888 591.363C78.8953 592.999 76.4757 599.295 75.9314 601.224ZM66.1131 574.745L68.9793 579.753C75.6699 575.272 81.7484 568.469 84.1392 561.687C81.9045 560.884 78.5627 559.185 76.6892 557.807C75.3547 564.184 71.0276 570.752 66.1131 574.745Z" fill="black"/>
<path d="M86.36 526.08H112.44V516.8H92.36V482.48H112.36V472.8H86.36V526.08ZM95.32 521.2H100.92V479.04H95.32V521.2ZM104.04 521.2H110.12V479.04H104.04V521.2ZM36.84 505.2H81.48V495.52H36.84V505.2ZM41.88 527.92H47.48V482.72H60.04V528.8H65.64V473.2H41.88V527.92ZM50.36 536.08H57V463.92H50.36V536.08ZM68.44 530.56H74.28V469.84H68.44V530.56ZM77.16 536.24H83.8V464H77.16V536.24Z" fill="black"/>
<path d="M52.1026 398.917L48.8948 409.016C52.8191 410.158 57.3454 412.258 61.201 414.779C69.0327 420.013 76.0854 427.941 83.0101 440.025L91.1544 433.104C88.3279 429.669 86.0185 426.844 84.2128 423.97C82.0814 420.366 80.6291 414.865 81.6082 410.575C82.3559 407.299 84.7058 404.553 89.6975 405.693C93.927 406.576 100.521 408.245 104.115 409.394L106.252 400.034C101.32 398.991 92.7654 397.284 88.5537 396.323C81.3002 394.668 76.357 398.709 74.8795 405.182C74.2742 407.834 73.8767 412.093 74.332 414.412C71.7106 411.516 67.7812 408.24 64.3333 405.729C59.2162 402.264 54.846 400.2 52.1026 398.917ZM52.6448 429.976L61.6921 432.041C63.0612 427.841 64.5167 422.183 65.2466 418.985C67.4184 409.47 70.2946 393.633 71.2447 382.279L62.2152 380.136C61.6618 391.908 58.9857 406.15 56.6358 416.445C55.728 420.423 54.0987 426.123 52.6448 429.976ZM88.8941 373.261L78.8965 375C79.7019 378.302 80.3268 381.316 80.9584 384.661C82.0741 389.839 82.8245 395.18 84.9305 403.21C87.4739 413.637 91.3238 426.25 102.165 428.724C112.226 431.021 117.351 422.59 120.128 410.423C121.819 403.013 123.289 393.338 123.78 387.952L113.79 385.343C113.627 392.527 112.491 401.458 110.978 408.088C109.251 415.653 107.227 419.13 102.937 418.151C98.6475 417.172 96.166 412.585 94.1202 404.651C92.0499 396.465 90.8442 388.804 90.0515 383.29C89.6428 380.406 89.0442 375.839 88.8941 373.261Z" fill="black"/>
<path d="M96.8969 324.52L111.475 294.247L115.944 296.399L101.366 326.672L96.8969 324.52ZM108.429 330.074L123.008 299.801L127.477 301.953L112.898 332.226L108.429 330.074ZM85.4365 319.001L100.015 288.728L104.484 290.88L89.9053 321.153L85.4365 319.001ZM73.842 323.717L116.44 344.231L139.279 296.804L96.6816 276.29L73.842 323.717ZM123.514 314.607L140.812 322.937C149.029 326.894 152.631 326.054 156.796 317.404C157.594 315.747 160.51 309.692 161.378 307.89C164.849 300.682 163.004 296.953 151.995 290.497C150.273 292.598 146.992 295.724 144.717 296.759C153.049 301.216 154.066 302.238 152.851 304.761C152.122 306.274 149.797 311.104 149.207 312.329C147.957 314.924 147.354 315.255 145.047 314.144L127.749 305.813L123.514 314.607ZM117.965 333.689C127.172 339.277 131.785 343.896 126.831 362.111C129.573 361.211 134.216 360.605 136.869 360.995C141.844 339.417 134.971 331.934 122.443 324.391L117.965 333.689Z" fill="black"/>
<path d="M129.613 233.275L137.943 239.509C138.84 237.871 140.262 235.833 141.483 234.044C143.927 230.467 150.497 221.586 152.916 218.297C153.224 223.556 153.24 234.313 153.324 240.11C153.496 246.182 153.84 258.838 153.802 266.072L164.22 265.069C161.989 252.341 161.798 242.059 169.48 232.427C175.315 225.109 183.62 222.522 189.312 227.061C196.004 232.398 195.718 240.97 187.288 251.54C184.245 255.355 180.637 256.673 178.322 254.827C176.696 253.53 176.505 250.819 178.35 248.505C181.293 244.815 186.316 244.932 190.919 248.398L195.816 240.332C188.787 235.033 179.242 235.198 172.408 243.767C167.121 250.397 168.058 258.716 173.125 262.756C179.442 267.794 188.62 264.369 195.553 255.675C207.624 240.539 205.791 226.798 195.908 218.917C186.839 211.685 173.775 214.466 165.295 225.099C163.749 227.038 162.378 229.014 161.245 231.59C161.31 225.093 161.043 214.136 161.36 208.863C161.394 206.639 161.715 204.44 161.924 202.253L153.103 201.767C152.754 202.717 151.857 204.355 149.95 207.132C147.42 210.946 137.108 224.518 134.415 227.895C133.018 229.647 131.197 231.674 129.613 233.275Z" fill="black"/>
<path d="M323.99 134.488C321.926 135.483 319.798 135.887 317.607 135.702C315.407 135.5 313.385 134.792 311.539 133.579C309.71 132.358 308.299 130.714 307.305 128.65C306.302 126.568 305.898 124.44 306.091 122.266C306.293 120.066 307.005 118.052 308.226 116.224C309.44 114.378 311.079 112.958 313.143 111.964C315.225 110.961 317.357 110.565 319.54 110.776C321.731 110.961 323.741 111.664 325.569 112.886C327.406 114.082 328.826 115.721 329.829 117.803C330.823 119.867 331.219 121.999 331.017 124.199C330.832 126.39 330.133 128.408 328.92 130.254C327.715 132.074 326.072 133.486 323.99 134.488Z" fill="black"/>
</svg>
