<svg width="289" height="218" viewBox="0 0 289 218" fill="none" xmlns="http://www.w3.org/2000/svg">
<path d="M161.209 75L127.5 63.75V15L161.25 25L161.209 75Z" fill="#F68D11"/>
<path d="M170 25L203.75 15L203.633 63.7162L170 75V25Z" fill="#F68D11"/>
<path d="M196.875 9.72119L165.42 -6.10352e-05L134.375 9.72119L165.465 18.0549L196.875 9.72119Z" fill="#F68D11"/>
<path d="M246.209 75L212.5 63.75V15L246.25 25L246.209 75Z" fill="#F68D11"/>
<path d="M255 25L288.75 15L288.633 63.7162L255 75V25Z" fill="#F68D11"/>
<path d="M281.875 9.72119L250.42 -6.10352e-05L219.375 9.72119L250.465 18.0549L281.875 9.72119Z" fill="#F68D11"/>
<path d="M33.75 96.25L0 86.25V135L33.709 146.25L33.75 96.25Z" fill="#F68D11"/>
<path d="M42.5 96.25L76.25 86.25L76.1329 134.967L42.5 146.25V96.25Z" fill="#F68D11"/>
<path d="M69.375 80.9712L37.9199 71.2499L6.875 80.9712L37.9654 89.3049L69.375 80.9712Z" fill="#F68D11"/>
<path d="M118.709 146.25L85 135V86.25L118.75 96.25L118.709 146.25Z" fill="#F68D11"/>
<path d="M127.5 96.25L161.25 86.25L161.133 134.967L127.5 146.25V96.25Z" fill="#F68D11"/>
<path d="M154.375 80.9712L122.92 71.2499L91.875 80.9712L122.965 89.3049L154.375 80.9712Z" fill="#F68D11"/>
<path d="M76.209 217.5L42.5 206.25V157.5L76.25 167.5L76.209 217.5Z" fill="#F68D11"/>
<path d="M85 167.5L118.75 157.5L118.633 206.217L85 217.5V167.5Z" fill="#F68D11"/>
<path d="M111.875 152.221L80.4199 142.5L49.375 152.221L80.4654 160.555L111.875 152.221Z" fill="#F68D11"/>
</svg>
