<svg width="350" height="392" viewBox="0 0 350 392" fill="none" xmlns="http://www.w3.org/2000/svg">
<path d="M18.092 290.36L32.4676 298.66L192.618 21.28L178.242 12.98L18.092 290.36Z" fill="#E535AB"/>
<path d="M335.1 268.2H14.8V284.8H335.1V268.2Z" fill="#E535AB"/>
<path d="M21.1379 277.526L181.348 370.026L189.648 355.65L29.4379 263.15L21.1379 277.526Z" fill="#E535AB"/>
<path d="M160.312 36.4464L320.522 128.947L328.822 114.571L168.612 22.0708L160.312 36.4464Z" fill="#E535AB"/>
<path d="M21.1823 114.508L29.4823 128.883L189.692 36.3834L181.392 22.0078L21.1823 114.508Z" fill="#E535AB"/>
<path d="M157.418 21.2832L317.568 298.663L331.944 290.363L171.794 12.9832L157.418 21.2832Z" fill="#E535AB"/>
<path d="M44.1 103.5H27.5V288.5H44.1V103.5Z" fill="#E535AB"/>
<path d="M322.5 103.5H305.9V288.5H322.5V103.5Z" fill="#E535AB"/>
<path d="M171.272 350.442L178.522 362.999L317.861 282.549L310.611 269.992L171.272 350.442Z" fill="#E535AB"/>
<path d="M344.5 293.9C334.9 310.6 313.5 316.3 296.8 306.7C280.1 297.1 274.4 275.7 284 259C293.6 242.3 315 236.6 331.7 246.2C348.5 255.9 354.2 277.2 344.5 293.9Z" fill="#E535AB"/>
<path d="M65.9001 133C56.3001 149.7 34.9001 155.4 18.2001 145.8C1.50006 136.2 -4.19994 114.8 5.40006 98.1C15.0001 81.4 36.4001 75.7 53.1001 85.3C69.8001 95 75.5001 116.3 65.9001 133Z" fill="#E535AB"/>
<path d="M5.49991 293.9C-4.10009 277.2 1.59991 255.9 18.2999 246.2C34.9999 236.6 56.2999 242.3 65.9999 259C75.5999 275.7 69.8999 297 53.1999 306.7C36.3999 316.3 15.0999 310.6 5.49991 293.9Z" fill="#E535AB"/>
<path d="M284.1 133C274.5 116.3 280.2 95 296.9 85.3C313.6 75.7 334.9 81.4 344.6 98.1C354.2 114.8 348.5 136.1 331.8 145.8C315.1 155.4 293.7 149.7 284.1 133Z" fill="#E535AB"/>
<path d="M175 391.8C155.7 391.8 140.1 376.2 140.1 356.9C140.1 337.6 155.7 322 175 322C194.3 322 209.9 337.6 209.9 356.9C209.9 376.1 194.3 391.8 175 391.8Z" fill="#E535AB"/>
<path d="M175 70C155.7 70 140.1 54.3999 140.1 35.0999C140.1 15.7999 155.7 0.199951 175 0.199951C194.3 0.199951 209.9 15.7999 209.9 35.0999C209.9 54.3999 194.3 70 175 70Z" fill="#E535AB"/>
</svg>
