<svg width="226" height="312" viewBox="0 0 226 312" fill="none" xmlns="http://www.w3.org/2000/svg">
<path fill-rule="evenodd" clip-rule="evenodd" d="M222.148 150.42C222.148 212.206 173.179 262.294 112.773 262.294C52.3673 262.294 3.39844 212.206 3.39844 150.42C3.39844 88.6324 52.3673 38.5437 112.773 38.5437C173.179 38.5437 222.148 88.6324 222.148 150.42Z" fill="#D33833"/>
<path d="M7.85547 178.127C7.85547 178.127 -0.0624943 61.4612 107.438 58.1274L99.9385 45.6274L41.6055 65.2112L24.9385 84.3774L10.3555 112.295L2.02148 144.795L4.52148 166.461" fill="#EF3D3A"/>
<path d="M37.8604 74.1013C18.6704 93.7363 6.79541 120.846 6.79541 150.838C6.79541 180.823 18.6704 207.936 37.8604 227.567C57.0596 247.199 83.519 259.313 112.771 259.313C142.024 259.313 168.485 247.199 187.682 227.567C206.871 207.936 218.749 180.823 218.749 150.838C218.749 120.846 206.871 93.7363 187.682 74.1013C168.485 54.4738 142.024 42.36 112.771 42.3575C83.519 42.36 57.0596 54.4738 37.8604 74.1013ZM33.0029 232.316C12.6084 211.459 0 182.634 0 150.838C0 119.036 12.6084 90.2138 33.0029 69.355C53.3926 48.4925 81.6172 35.5613 112.771 35.565C143.925 35.5613 172.153 48.4925 192.539 69.355C212.935 90.2138 225.545 119.039 225.543 150.838C225.545 182.634 212.935 211.459 192.539 232.316C172.153 253.178 143.925 266.107 112.771 266.107C81.6172 266.107 53.3926 253.178 33.0029 232.316Z" fill="#231F20"/>
<path fill-rule="evenodd" clip-rule="evenodd" d="M158.814 151.04L142.146 153.54L119.646 156.04L105.062 156.456L90.896 156.04L80.062 152.706L70.4785 142.29L62.9785 121.04L61.312 116.456L51.312 113.124L45.4785 103.54L41.312 89.79L45.896 77.7063L56.7285 73.9563L65.4785 78.1238L69.646 87.29L74.646 86.4563L76.312 84.3738L74.646 74.79L74.2285 62.7063L76.7285 46.04L76.6309 36.52L84.2285 24.3738L97.562 14.79L120.896 4.79004L146.729 8.54004L169.229 24.79L179.646 41.4563L186.313 53.54L187.979 83.54L182.979 109.374L173.813 132.29L165.063 144.374" fill="#F0D6B7"/>
<path fill-rule="evenodd" clip-rule="evenodd" d="M144.646 223.123L85.062 225.623V235.623L90.062 270.623L87.562 273.54L45.896 259.373L42.9785 254.373L38.812 207.29L29.23 178.956L27.146 172.29L60.4785 149.374L70.896 145.206L80.062 156.456L87.9785 163.54L97.146 166.456L101.312 167.706L106.312 189.373L110.062 193.956L119.646 190.623L112.978 203.54L149.229 220.623L144.646 223.123Z" fill="#335061"/>
<path fill-rule="evenodd" clip-rule="evenodd" d="M45.896 77.7063L56.7285 73.9563L65.4785 78.1238L69.646 87.29L74.646 86.4563L75.896 81.4563L73.396 71.8738L75.896 48.9563L73.812 36.4563L81.312 27.7063L97.562 14.79L92.9785 8.54004L70.062 19.79L60.4785 27.29L55.062 38.9563L46.7285 50.2063L44.2285 63.54L45.896 77.7063Z" fill="#6D6B6D"/>
<path fill-rule="evenodd" clip-rule="evenodd" d="M62.9785 38.54C62.9785 38.54 69.2285 23.1238 94.2285 15.6238C119.228 8.12378 95.4785 10.2063 95.4785 10.2063L68.396 20.6238L57.9785 31.04L53.396 39.3738L62.9785 38.54Z" fill="#DCD9D8"/>
<path fill-rule="evenodd" clip-rule="evenodd" d="M50.4785 74.79C50.4785 74.79 41.7285 45.6225 75.062 41.4563L73.812 36.4563L50.896 41.8738L44.2285 63.54L45.896 77.7063L50.4785 74.79Z" fill="#DCD9D8"/>
<path fill-rule="evenodd" clip-rule="evenodd" d="M63.812 113.54L69.2676 108.254C69.2676 108.254 71.73 108.54 72.146 111.456C72.562 114.374 73.812 140.624 91.7285 154.791C93.3628 156.084 78.396 152.706 78.396 152.706L65.062 131.874" fill="#F7E4CD"/>
<path fill-rule="evenodd" clip-rule="evenodd" d="M140.481 105.624C140.481 105.624 141.452 92.9938 144.854 93.965C148.255 94.9363 148.255 98.3375 148.255 98.3375C148.255 98.3375 139.995 103.681 140.481 105.624Z" fill="#F7E4CD"/>
<path d="M175.062 59.3737C175.062 59.3737 168.195 60.8237 167.562 66.8737C166.93 72.925 175.062 68.1237 176.312 67.7075" fill="#F7E4CD"/>
<path d="M124.646 59.7911C124.646 59.7911 115.479 61.0411 115.479 66.8736C115.479 72.7074 125.896 72.2911 128.813 69.7911" fill="#F7E4CD"/>
<path fill-rule="evenodd" clip-rule="evenodd" d="M67.9785 86.8738C67.9785 86.8738 52.1445 77.29 50.4785 86.4575C48.812 95.6238 45.061 102.291 52.9785 111.874L47.562 110.208L42.562 97.2913L40.896 84.7913L50.4785 74.79L61.312 75.6238L67.562 80.6238L67.9785 86.8738Z" fill="#F7E4CD"/>
<path fill-rule="evenodd" clip-rule="evenodd" d="M75.4785 60.6238C75.4785 60.6238 82.562 23.9575 118.396 16.8738C147.897 11.0425 163.395 18.1238 169.229 24.79C169.229 24.79 142.979 -6.45872 117.978 3.12378C92.9785 12.7075 74.646 30.2075 75.062 41.4563C75.7715 60.6163 75.4785 60.6238 75.4785 60.6238Z" fill="#F7E4CD"/>
<path fill-rule="evenodd" clip-rule="evenodd" d="M172.146 28.9563C172.146 28.9563 160.064 28.54 159.646 39.3738C159.646 39.3738 159.645 41.04 160.479 42.7063C160.479 42.7063 170.064 31.8725 175.896 37.7063" fill="#F7E4CD"/>
<path fill-rule="evenodd" clip-rule="evenodd" d="M119.236 43.835C119.236 43.835 117.156 27.2062 102.978 36.8737C93.812 43.1237 94.646 51.8737 96.312 53.54C97.9785 55.2075 97.5253 58.5637 98.794 56.26C100.062 53.9562 99.6445 46.4562 104.228 44.3737C108.812 42.29 116.326 39.9625 119.236 43.835Z" fill="#F7E4CD"/>
<path fill-rule="evenodd" clip-rule="evenodd" d="M80.062 156.456L40.896 173.956C40.896 173.956 57.146 238.54 48.812 258.54L42.9785 256.458L42.562 231.874L31.73 185.208L27.146 172.29L67.9785 144.791L80.062 156.456Z" fill="#49728B"/>
<path fill-rule="evenodd" clip-rule="evenodd" d="M84.0894 192.178L89.646 198.958V223.958H82.9785C82.9785 223.958 82.146 206.458 82.146 204.374C82.146 202.29 82.9785 194.79 82.9785 194.79" fill="#49728B"/>
<path fill-rule="evenodd" clip-rule="evenodd" d="M84.2285 227.708L65.4785 228.54L70.896 232.29L84.2285 234.374" fill="#49728B"/>
<path fill-rule="evenodd" clip-rule="evenodd" d="M148.396 223.54L163.812 223.124L167.562 261.458L151.729 263.54L148.396 223.54Z" fill="#335061"/>
<path fill-rule="evenodd" clip-rule="evenodd" d="M152.562 223.54L175.896 222.29C175.896 222.29 185.479 198.124 185.479 196.874C185.479 195.624 193.812 161.874 193.812 161.874L175.062 142.291L171.312 138.958L161.312 148.958V187.708L152.562 223.54Z" fill="#335061"/>
<path fill-rule="evenodd" clip-rule="evenodd" d="M162.979 220.623L148.396 223.54L150.479 235.207C155.895 237.707 165.062 231.04 165.062 231.04" fill="#49728B"/>
<path fill-rule="evenodd" clip-rule="evenodd" d="M163.396 147.708L192.562 169.374L193.396 159.374L171.312 138.958L163.396 147.708Z" fill="#49728B"/>
<path fill-rule="evenodd" clip-rule="evenodd" d="M98.6885 305.627L90.062 270.622L85.7715 244.794L85.062 225.622L124.106 223.544L148.396 223.54L146.188 267.294L149.938 301.044L149.521 307.294L117.856 309.794L98.6885 305.627Z" fill="white"/>
<path fill-rule="evenodd" clip-rule="evenodd" d="M142.979 223.124C142.979 223.124 140.896 266.458 147.146 297.29C147.146 297.29 134.646 305.208 116.312 307.29L151.313 306.04L155.479 303.54L150.479 235.208L149.229 220.623" fill="#DCD9D8"/>
<path fill-rule="evenodd" clip-rule="evenodd" d="M168.272 258.127L184.522 253.544L215.355 251.877L219.939 237.711L211.605 213.127L202.022 211.877L188.689 216.044L175.896 222.29L169.105 221.044L163.812 223.123" fill="white"/>
<path fill-rule="evenodd" clip-rule="evenodd" d="M167.979 249.79C167.979 249.79 178.811 244.791 180.479 245.208L175.896 222.29L181.313 220.208C181.313 220.208 185.063 241.874 185.063 244.374C185.063 244.374 208.395 245.624 210.479 245.624C210.479 245.624 215.479 236.04 214.229 226.04L218.813 239.374L219.229 246.874L212.563 256.874L205.063 258.54L192.563 258.124L188.396 252.708L173.813 254.79L169.229 256.458" fill="#DCD9D8"/>
<path d="M151.605 220.211L142.439 196.878L132.855 183.128C132.855 183.128 134.937 177.294 137.855 177.294C140.772 177.294 147.439 177.294 147.439 177.294L156.605 180.628L155.772 196.044L151.605 220.211Z" fill="white"/>
<path fill-rule="evenodd" clip-rule="evenodd" d="M153.396 212.29C153.396 212.29 141.729 189.791 141.729 186.458C141.729 186.458 143.811 181.458 146.729 182.708C149.646 183.958 155.896 187.29 155.896 187.29V179.374L141.729 176.456L132.146 177.706L148.396 216.04L151.729 216.458" fill="#DCD9D8"/>
<path d="M102.439 157.295L90.896 156.04L80.062 152.706V156.456L85.3555 162.294L102.022 169.794" fill="white"/>
<path fill-rule="evenodd" clip-rule="evenodd" d="M83.8135 158.544C83.8135 158.544 96.731 163.961 100.897 162.711L101.312 167.706L89.6475 165.211L82.5635 160.211L83.8135 158.544Z" fill="#DCD9D8"/>
<path fill-rule="evenodd" clip-rule="evenodd" d="M168.228 178.712C161.158 178.505 154.77 177.665 149.178 176.087C149.558 173.795 148.846 171.545 149.418 169.894C150.976 168.771 153.589 168.789 155.945 168.525C153.908 167.524 151.045 167.127 148.694 167.706C148.639 166.115 147.925 165.129 147.493 163.884C151.468 162.465 160.851 153.164 166.13 156.244C168.645 157.709 169.714 166.076 169.909 170.145C170.071 173.52 169.603 176.925 168.228 178.712Z" fill="#D33833"/>
<path d="M168.228 178.712C161.158 178.505 154.77 177.665 149.178 176.087C149.558 173.795 148.846 171.545 149.418 169.894C150.976 168.771 153.589 168.789 155.945 168.525C153.908 167.524 151.045 167.127 148.694 167.706C148.639 166.115 147.925 165.129 147.493 163.884C151.468 162.465 160.851 153.164 166.13 156.244C168.645 157.709 169.714 166.076 169.909 170.145C170.071 173.52 169.603 176.925 168.228 178.712Z" stroke="#D33833" stroke-width="2.5"/>
<path fill-rule="evenodd" clip-rule="evenodd" d="M134.419 167.155C134.4 167.69 134.378 168.229 134.356 168.769C132.149 170.219 128.585 170.201 126.163 171.42C129.734 171.576 132.545 172.436 134.978 173.649C134.924 174.996 134.873 176.342 134.82 177.69C130.774 180.46 127.078 184.585 122.314 187.183C120.061 188.411 112.156 191.572 109.759 191.014C108.403 190.699 108.281 189.016 107.739 187.43C106.585 184.034 103.926 178.627 103.694 173.515C103.399 167.057 102.747 156.235 109.706 157.565C115.32 158.636 121.85 161.222 126.196 163.597C128.853 165.05 130.389 166.845 134.419 167.155Z" fill="#D33833"/>
<path d="M134.419 167.155C134.4 167.69 134.378 168.229 134.356 168.769C132.149 170.219 128.585 170.201 126.163 171.42C129.734 171.576 132.545 172.436 134.978 173.649C134.924 174.996 134.873 176.342 134.82 177.69C130.774 180.46 127.078 184.585 122.314 187.183C120.061 188.411 112.156 191.572 109.759 191.014C108.403 190.699 108.281 189.016 107.739 187.43C106.585 184.034 103.926 178.627 103.694 173.515C103.399 167.057 102.747 156.235 109.706 157.565C115.32 158.636 121.85 161.222 126.196 163.597C128.853 165.05 130.389 166.845 134.419 167.155Z" stroke="#D33833" stroke-width="2.5"/>
<path fill-rule="evenodd" clip-rule="evenodd" d="M138.437 174.86C137.82 171.343 137.106 170.339 137.382 167.27C146.764 161.015 148.525 178.014 138.437 174.86Z" fill="#D33833"/>
<path d="M138.437 174.86C137.82 171.343 137.106 170.339 137.382 167.27C146.764 161.015 148.525 178.014 138.437 174.86Z" stroke="#D33833" stroke-width="2.5"/>
<path fill-rule="evenodd" clip-rule="evenodd" d="M152.021 177.711C152.021 177.711 149.104 173.544 151.188 172.294C153.271 171.044 155.355 172.295 156.605 170.211C157.855 168.127 156.605 166.877 157.021 164.377C157.437 161.877 159.522 161.46 161.605 161.044C163.687 160.627 169.522 159.794 170.355 161.877L167.855 154.377L162.855 152.711L147.021 161.877L146.188 166.461V175.627" fill="#EF3D3A"/>
<path fill-rule="evenodd" clip-rule="evenodd" d="M108.271 191.461C107.771 184.959 107.241 178.465 106.652 171.969C105.77 162.269 108.982 163.961 117.39 163.961C118.674 163.961 125.297 165.493 125.771 166.461C128.044 171.103 121.971 170.071 128.389 173.571C133.806 176.525 143.376 171.778 141.187 165.211C139.962 163.751 134.805 164.756 132.956 163.798C129.701 162.11 126.446 160.423 123.191 158.735C119.049 156.586 109.477 153.454 105.062 156.456C93.874 164.065 105.768 183.076 109.759 191.014" fill="#EF3D3A"/>
<path fill-rule="evenodd" clip-rule="evenodd" d="M119.236 43.835C107.879 41.19 102.236 48.5875 98.794 56.26C95.7202 55.515 96.9433 51.335 97.7197 49.205C99.7525 43.615 107.944 36.1737 114.638 37.1825C117.518 37.6162 121.416 40.25 119.236 43.835Z" fill="#231F20"/>
<path fill-rule="evenodd" clip-rule="evenodd" d="M174.569 56.7675C174.748 56.775 174.929 56.7812 175.107 56.7887C177.674 62.12 179.895 67.7675 183.132 72.4737C180.964 77.525 166.71 81.995 166.93 72.925C170.013 71.5775 175.334 72.65 178.066 70.9288C176.486 66.5925 174.206 62.9012 174.569 56.7675Z" fill="#231F20"/>
<path fill-rule="evenodd" clip-rule="evenodd" d="M125.05 56.9062C127.485 61.3699 128.278 66.0599 131.739 69.4337C133.298 70.9524 136.329 72.8037 134.826 77.0274C134.475 78.0237 131.909 80.2449 130.428 80.6812C125.016 82.2787 112.407 81.0112 116.677 74.2649C121.152 74.4737 127.168 77.1712 130.513 73.9224C127.944 69.8162 123.364 61.6924 125.05 56.9062Z" fill="#231F20"/>
<path fill-rule="evenodd" clip-rule="evenodd" d="M172.537 102.274C164.39 107.507 155.305 113.199 141.955 111.879C139.102 109.399 138.015 103.88 140.786 100.235C142.229 102.715 141.322 107.276 145.342 107.962C152.917 109.259 161.734 103.329 167.182 101.256C170.561 95.5599 166.891 93.4649 163.847 89.7986C157.616 82.2874 149.257 72.9774 149.561 61.7324C152.08 59.9061 152.297 64.5199 152.659 65.3599C155.912 72.9749 164.101 82.7136 170.077 89.2311C171.545 90.8361 173.961 92.3761 174.23 93.4374C175.005 96.5236 172.214 100.221 172.537 102.274Z" fill="#231F20"/>
<path fill-rule="evenodd" clip-rule="evenodd" d="M65.127 96.7637C62.5733 95.3062 61.9654 88.8862 58.9673 88.7037C54.6827 88.4437 55.4639 97.0324 55.481 102.055C52.5318 99.3774 52.0132 91.1337 54.1798 86.8999C51.7105 85.6874 50.6079 88.2374 49.2383 89.1362C50.9985 76.3487 67.9444 83.2049 65.127 96.7637Z" fill="#231F20"/>
<path fill-rule="evenodd" clip-rule="evenodd" d="M177.725 107.599C173.932 114.818 168.568 122.768 157.439 122.999C157.213 120.668 157.039 117.12 157.451 115.716C165.959 114.899 171.211 110.569 177.725 107.599Z" fill="#231F20"/>
<path fill-rule="evenodd" clip-rule="evenodd" d="M124.408 112.279C131.506 116.011 144.551 116.413 154.199 116.13C154.716 118.244 154.704 120.855 154.724 123.433C142.322 124.051 127.66 120.983 124.408 112.279Z" fill="#231F20"/>
<path fill-rule="evenodd" clip-rule="evenodd" d="M123.059 119.239C127.968 131.563 144.837 130.144 159.064 129.804C158.437 131.404 157.08 133.294 155.392 133.978C150.834 135.833 138.26 137.24 131.931 133.879C127.917 131.745 125.339 126.924 123.14 124.098C122.078 122.733 116.79 119.246 123.059 119.239Z" fill="#231F20"/>
<path fill-rule="evenodd" clip-rule="evenodd" d="M171.945 187.217C166.185 197.083 160.674 207.215 153.84 215.917C156.705 207.493 157.931 193.394 158.364 182.645C164.357 179.84 169.49 183.276 171.945 187.217Z" fill="#81B0C4"/>
<path fill-rule="evenodd" clip-rule="evenodd" d="M202.94 222.674C196.491 223.965 191.96 230.232 185.669 229.83C189.126 224.956 195.185 222.901 202.94 222.674Z" fill="#231F20"/>
<path fill-rule="evenodd" clip-rule="evenodd" d="M205.785 232.766C200.529 233.321 194.355 234.172 189.024 233.734C191.547 229.879 201.271 231.209 205.785 232.766Z" fill="#231F20"/>
<path fill-rule="evenodd" clip-rule="evenodd" d="M207.606 241.467C201.699 241.595 194.356 241.477 188.741 241.006C192.062 237.439 203.775 239.683 207.606 241.467Z" fill="#231F20"/>
<path fill-rule="evenodd" clip-rule="evenodd" d="M160.83 265.279C161.678 272.698 164.619 280.215 164.25 288.34C160.984 289.441 159.108 290.405 154.731 290.399C154.423 283.494 153.499 272.938 153.775 266.355C155.928 266.498 159.101 264.817 160.83 265.279Z" fill="#DCD9D8"/>
<path fill-rule="evenodd" clip-rule="evenodd" d="M151.306 155.939C148.34 157.875 145.814 160.293 142.965 162.36C136.647 162.673 133.2 161.923 128.559 158.295C128.635 158.004 129.101 158.134 129.119 157.776C135.881 160.79 144.477 156.549 151.306 155.939Z" fill="#F0D6B7"/>
<path fill-rule="evenodd" clip-rule="evenodd" d="M115.806 202.036C117.664 193.985 124.944 189.815 131.555 185.381C138.379 194.042 142.529 205.179 147.099 215.926C136.301 212.671 125.269 207.39 115.806 202.036Z" fill="#81B0C4"/>
<path fill-rule="evenodd" clip-rule="evenodd" d="M153.775 266.355C153.499 272.938 154.422 283.494 154.731 290.399C159.107 290.405 160.984 289.441 164.25 288.34C164.619 280.215 161.677 272.698 160.83 265.279C159.101 264.817 155.927 266.498 153.775 266.355ZM85.6323 228.919C88.5181 255.448 92.6977 277.749 100.364 301.24C117.378 306.406 137.889 306.856 152.927 302.195C150.166 288.936 151.372 272.794 149.759 258.645C148.542 248.01 149.162 237.31 147.495 226.46C129.272 222.669 103.516 225.574 85.6323 228.919ZM151.804 226.627C151.65 238.02 152.314 249.259 153.184 260.667C157.559 260.01 160.527 259.571 164.592 258.68C163.272 247.698 163.435 235.34 160.746 225.625C157.639 225.655 154.902 225.589 151.804 226.627ZM173.997 224.79C171.921 224.314 169.504 224.772 167.52 224.81C168.452 234.098 170.715 244.346 171.511 254.095C174.632 254.192 176.3 252.72 178.867 252.225C179.005 243.668 178.12 231.878 173.997 224.79ZM207.602 255.494C214.109 253.914 218.2 245.945 216.38 237.761C215.159 232.261 212.984 221.905 210.656 218.386C208.936 215.784 204.272 212.377 200.549 214.761C194.491 218.64 183.82 219.766 179.402 224.461C181.617 231.836 182.305 241.966 183.219 251.311C190.786 251.783 200.097 249.229 206.391 251.939C201.997 253.362 196.296 253.374 192.5 255.448C195.602 256.946 202.866 256.644 207.602 255.494ZM147.099 215.926C142.529 205.179 138.379 194.042 131.555 185.381C124.944 189.815 117.664 193.985 115.806 202.036C125.269 207.39 136.301 212.671 147.099 215.926ZM158.364 182.645C157.931 193.394 156.705 207.493 153.84 215.917C160.674 207.215 166.185 197.083 171.945 187.217C169.49 183.276 164.357 179.84 158.364 182.645ZM145.594 178.108C143.005 177.829 140.807 181.084 137.441 179.676C136.67 180.529 135.969 181.453 135.182 182.285C142.617 191.245 145.996 203.958 151.739 214.487C154.82 204.373 154.465 193.291 155.144 182.251C150.91 182.52 148.561 178.423 145.594 178.108ZM137.382 167.27C137.106 170.339 137.82 171.343 138.437 174.86C148.525 178.014 146.764 161.015 137.382 167.27ZM126.196 163.598C121.85 161.223 115.32 158.636 109.706 157.565C102.747 156.234 103.398 167.058 103.694 173.515C103.926 178.628 106.584 184.034 107.739 187.43C108.281 189.016 108.403 190.699 109.759 191.014C112.156 191.572 120.061 188.411 122.313 187.183C127.077 184.585 130.774 180.46 134.82 177.69C134.872 176.343 134.924 174.996 134.977 173.649C132.545 172.436 129.734 171.576 126.162 171.42C128.585 170.201 132.149 170.219 134.356 168.769C134.377 168.229 134.4 167.69 134.419 167.155C130.389 166.845 128.852 165.05 126.196 163.598ZM84.6792 156.056C81.0717 159.719 94.7974 164.711 99.1675 164.98C99.1431 162.663 100.488 160.478 100.217 158.815C95.0269 157.904 88.2056 158.505 84.6792 156.056ZM129.119 157.776C129.101 158.134 128.635 158.004 128.559 158.295C133.2 161.923 136.647 162.673 142.965 162.36C145.814 160.293 148.34 157.875 151.306 155.939C144.477 156.549 135.881 160.79 129.119 157.776ZM169.909 170.145C169.714 166.076 168.645 157.709 166.13 156.244C160.851 153.163 151.467 162.465 147.492 163.884C147.925 165.129 148.639 166.115 148.694 167.706C151.045 167.128 153.907 167.524 155.945 168.525C153.589 168.789 150.976 168.771 149.417 169.894C148.846 171.545 149.557 173.795 149.177 176.088C154.77 177.665 161.157 178.505 168.227 178.713C169.602 176.925 170.071 173.52 169.909 170.145ZM78.606 159.599C77.4731 158.791 69.8096 148.82 68.7597 149.234C54.8926 154.703 41.9262 164.159 30.3394 173.103C41.3867 196.808 45.8462 225.85 46.6342 253.842C59.2895 259.761 70.4052 268.294 87.5781 269.185C85.5909 255.125 83.7769 242.581 82.6489 229.344C78.334 227.525 72.1435 229.426 68.1055 228.78C68.0712 223.914 74.2725 226.649 74.789 223.377C75.1782 220.901 71.377 220.714 72.6147 216.816C75.7715 217.964 77.4292 220.499 80.7959 221.45C83.8721 214.72 80.7529 202.813 81.1962 197.188C81.2802 196.131 81.7236 191.336 84.0894 192.178C86.1831 192.922 83.9697 204.93 84.1992 210.254C84.4082 215.159 83.6069 219.905 85.5932 222.984C102.187 220.725 119.05 219.265 137.005 218.773C133.055 217.078 128.362 215.474 123.218 212.574C120.429 211.002 111.637 207.73 110.832 205.081C109.548 200.86 114.202 198.611 114.997 194.993C106.621 199.561 104.987 190.614 103.005 184.275C101.21 178.534 100.188 174.245 99.7475 170.934C92.5317 167.494 84.8169 164.01 78.606 159.599ZM162.58 150.44C174.134 144.838 176.216 171.379 171.687 179.929C172.387 182.479 174.795 183.455 175.777 185.748C169.33 197.297 162.169 208.079 155.59 219.493C160.484 216.446 167.474 218.948 173.232 216.668C175.337 215.835 176.861 211.016 178.455 207.161C182.839 196.555 187.441 183.184 189.489 173.063C189.951 170.756 191.211 165.731 190.929 163.679C190.425 160.004 185.439 157.279 182.902 155.006C178.23 150.809 175.287 147.115 170.414 143.19C168.437 146.108 164.196 148.068 162.58 150.44ZM52.1826 47.98C46.6772 54.0375 47.8296 65.3875 48.4961 73.4625C58.4472 67.2025 71.6552 73.9575 71.5307 84.605C76.2817 84.4788 73.3056 78.6713 72.4462 74.93C69.6377 62.71 77.1777 49.4338 72.7881 38.2588C64.2651 38.905 57.2631 42.3863 52.1826 47.98ZM91.5747 12.8225C79.1114 16.355 63.1381 25.4113 58.0166 36.6075C61.9824 36.0313 64.7354 34.0313 68.6475 33.7838C70.126 33.6875 72.063 34.4038 73.7622 33.9813C77.1485 33.1413 80.0064 25.5488 82.561 22.7238C85.0512 19.965 88.0444 18.7863 90.0927 16.2713C91.4087 15.6363 93.3545 15.68 93.4292 13.7038C92.8589 13.0938 92.2582 12.6288 91.5747 12.8225ZM156.454 16.145C143.517 8.84628 121.621 3.35628 107.86 10.2163C96.7569 15.7525 81.748 24.9125 76.6309 36.52C81.4111 47.7213 75.2149 57.985 74.8194 69.3575C74.6094 75.4088 77.6685 80.6913 77.9029 87.2788C76.2671 89.9775 71.2695 90.31 67.81 90.125C66.6455 84.2975 64.6069 77.7475 58.606 77.09C50.1147 76.1613 43.9062 83.1888 43.5205 90.5325C43.064 99.1688 50.1537 113.483 60.2026 112.489C64.0845 112.105 65.0381 108.214 69.2676 108.254C71.56 112.828 65.7315 114.264 65.1319 117.535C64.9756 118.38 65.6152 121.683 65.9872 123.231C67.8125 130.773 71.8814 140.533 75.8862 146.274C80.9692 153.556 90.9556 154.654 101.699 155.368C103.618 151.234 110.687 151.574 115.293 152.655C109.773 150.469 104.641 145.169 100.388 140.478C95.5029 135.095 90.5542 129.321 90.3042 122.286C99.5361 135.094 107.163 146.279 123.95 151.913C136.652 156.173 151.487 149.96 161.247 143.106C165.297 140.258 167.715 135.738 170.594 131.6C181.365 116.106 186.391 93.9913 185.286 72.5563C184.831 63.7163 184.851 54.9063 181.885 48.9588C178.785 42.74 168.3 37.1763 162.162 42.8013C161.025 36.7538 167.266 33.0138 174.597 35.19C169.37 28.4438 163.884 20.3375 156.454 16.145ZM180.555 215.604C190.664 210.579 209.551 202.078 215.889 215.623C218.227 220.615 220.971 229.055 222.182 234.209C223.894 241.48 220.327 256.763 212.854 259.203C206.252 261.357 198.55 261.226 190.599 259.629C189.662 258.85 188.62 257.493 187.891 256.078C182.214 255.857 176.897 256.382 172.412 258.716C172.837 262.915 169.997 263.589 167.335 264.454C165.361 272.28 171.284 282.5 169.866 289.636C168.855 294.72 162.6 295.506 158.002 296.458C157.852 299.283 158.204 301.641 158.517 304.031C157.466 307.905 152.751 310.11 148.284 310.65C133.585 312.418 111.267 313.211 97.1289 308.127C93.1836 298.45 90.0756 286.68 86.7895 275.63C73.0005 277.103 61.8481 269.68 51.3345 264.817C47.6944 263.13 42.6587 262.2 41.2989 259.303C39.9805 256.498 40.52 251.121 40.1929 246.043C39.3604 233.071 38.6475 220.56 35.2221 207.279C33.6841 201.319 31.0034 196.06 29.1332 190.317C27.4047 184.995 24.3847 178.418 23.5971 173.11C22.4292 165.244 29.8364 164.806 34.5727 161.398C41.8945 156.126 47.6416 153.211 55.5712 148.454C57.9199 147.045 65.0025 143.479 65.8081 141.836C67.4096 138.58 63.0591 133.989 61.896 131.436C60.0561 127.4 59.0966 123.971 58.833 119.989C52.1811 118.938 47.1386 114.979 44.0927 110.515C39.0542 103.128 35.56 89.46 39.9194 79.0638C40.2612 78.245 41.9662 76.635 42.2177 75.3775C42.7139 72.9013 41.2841 69.6088 41.1952 66.975C40.7372 53.4625 43.4815 41.82 52.5781 37.745C56.271 23.0338 69.4882 18.1425 81.9408 10.8313C86.5957 8.09879 91.727 6.35253 97.0264 4.40253C116.037 -2.59372 145.204 -1.27621 160.981 10.6563C167.671 15.7163 178.365 26.4 182.19 34.135C192.292 54.5563 191.575 88.685 184.509 113.526C183.559 116.861 182.181 121.764 180.257 125.77C178.916 128.568 174.747 134.165 175.254 136.635C175.775 139.189 184.759 146.01 186.685 147.868C190.154 151.214 196.744 155.655 197.277 159.878C197.851 164.371 195.297 170.519 194.004 174.855C189.679 189.326 185.459 202.703 180.555 215.604Z" fill="#231F20"/>
<path fill-rule="evenodd" clip-rule="evenodd" d="M113.114 115.431C113.662 114.701 116.677 113.592 120.896 115.624C120.896 115.624 115.896 116.457 116.312 124.794L114.228 124.376C114.228 124.376 112.075 116.817 113.114 115.431Z" fill="#F7E4CD"/>
<path fill-rule="evenodd" clip-rule="evenodd" d="M149.646 187.083C149.646 188.348 148.62 189.374 147.354 189.374C146.089 189.374 145.062 188.348 145.062 187.083C145.062 185.818 146.089 184.79 147.354 184.79C148.62 184.79 149.646 185.818 149.646 187.083Z" fill="#1D1919"/>
<path fill-rule="evenodd" clip-rule="evenodd" d="M151.938 197.708C151.938 198.973 150.911 199.999 149.645 199.999C148.38 199.999 147.354 198.973 147.354 197.708C147.354 196.442 148.38 195.415 149.645 195.415C150.911 195.415 151.938 196.442 151.938 197.708Z" fill="#1D1919"/>
</svg>
