<svg width="131" height="292" viewBox="0 0 131 292" fill="none" xmlns="http://www.w3.org/2000/svg">
<path d="M128.44 116.34C113.13 48.7999 81.22 30.8199 73.08 18.1099C69.7234 12.5109 66.7499 6.69089 64.18 0.689941C63.75 6.68994 62.96 10.4699 57.86 15.0199C47.62 24.1499 4.12998 59.5899 0.469984 136.33C-2.94002 207.88 53.07 252 60.47 256.56C66.16 259.36 73.09 256.62 76.47 254.05C103.47 235.52 140.36 186.12 128.47 116.34" fill="#10AA50"/>
<path d="M66.5 218.46C65.09 236.17 64.08 246.46 60.5 256.58C60.5 256.58 62.85 273.44 64.5 291.3H70.34C71.733 278.723 73.86 266.239 76.71 253.91C69.15 250.19 66.79 234 66.5 218.46Z" fill="#B8C4C2"/>
<path d="M76.7 253.92C69.06 250.39 66.85 233.86 66.51 218.46C68.3994 193.057 68.9502 167.571 68.16 142.11C67.76 128.75 68.35 18.37 64.87 2.20996C67.2505 7.68319 69.9932 12.9916 73.08 18.1C81.22 30.82 113.14 48.8 128.44 116.34C140.36 186 103.67 235.27 76.7 253.92Z" fill="#12924F"/>
</svg>
