<svg width="577" height="595" viewBox="0 0 577 595" fill="none" xmlns="http://www.w3.org/2000/svg">
<path d="M430.823 433.201C434.6 401.733 433.468 397.118 456.907 402.216L462.857 402.738C480.88 403.558 504.456 399.84 518.307 393.405C548.123 379.57 565.803 356.472 536.403 362.541C469.34 376.376 464.729 353.668 464.729 353.668C535.544 248.597 565.147 115.22 539.595 82.5716C469.901 -6.48041 349.264 35.6303 347.245 36.7236L346.603 36.8423C333.352 34.0929 318.523 32.4503 301.864 32.1809C271.516 31.6823 248.488 40.1369 231.02 53.3863C231.02 53.3863 15.8092 -35.2777 25.8212 164.89C27.9506 207.472 86.8572 487.097 157.115 402.637C182.793 371.753 207.609 345.64 207.609 345.64C219.932 353.826 234.685 358.002 250.159 356.502L251.355 355.482C250.98 359.317 251.145 363.068 251.833 367.508C233.737 387.73 239.055 391.281 202.869 398.729C166.26 406.274 187.768 419.708 201.807 423.218C218.831 427.476 258.213 433.506 284.831 396.253L283.771 400.504C290.871 406.184 290.391 441.329 291.397 466.44C292.405 491.552 294.087 514.985 299.205 528.801C304.324 542.614 310.364 578.201 357.92 568.009C397.665 559.492 428.053 547.234 430.823 433.201Z" fill="black" stroke="black" stroke-width="49.8604"/>
<path d="M536.409 362.538C469.34 376.373 464.729 353.665 464.729 353.665C535.544 248.588 565.147 115.208 539.6 82.5636C469.907 -6.48312 349.264 35.6302 347.251 36.7236L346.603 36.8396C333.352 34.0889 318.523 32.4502 301.856 32.1782C271.508 31.6809 248.488 40.1342 231.02 53.3809C231.02 53.3809 15.8052 -35.2791 25.8146 164.888C27.9439 207.472 86.8493 487.097 157.109 402.637C182.789 371.753 207.601 345.64 207.601 345.64C219.925 353.826 234.679 358.002 250.145 356.502L251.347 355.482C250.973 359.317 251.144 363.068 251.828 367.508C233.728 387.73 239.047 391.281 202.864 398.729C166.252 406.274 187.76 419.708 201.803 423.218C218.827 427.476 258.212 433.506 284.824 396.253L283.763 400.504C290.855 406.184 295.835 437.452 295 465.796C294.165 494.141 293.608 513.601 299.196 528.801C304.784 544.001 310.353 578.201 357.919 568.009C397.664 559.492 418.26 537.42 421.125 500.602C423.159 474.428 427.76 478.297 428.051 454.896L431.741 443.817C435.997 408.336 432.417 396.889 456.904 402.213L462.855 402.736C480.877 403.556 504.465 399.837 518.309 393.402C548.12 379.568 565.8 356.469 536.407 362.538H536.409Z" fill="#336791"/>
<path d="M287.704 382.877C285.857 448.898 288.168 515.38 294.628 531.537C301.092 547.694 314.925 579.121 362.495 568.93C402.236 560.41 416.696 543.922 422.971 507.529C427.592 480.753 436.501 406.39 437.644 391.154" stroke="white" stroke-width="16.6201" stroke-linecap="round" stroke-linejoin="round"/>
<path d="M230.688 51.9063C230.688 51.9063 15.3266 -36.1151 25.3386 164.052C27.4679 206.636 86.3772 486.27 156.636 401.806C182.311 370.918 205.531 346.693 205.531 346.693" stroke="white" stroke-width="16.6201" stroke-linecap="round" stroke-linejoin="round"/>
<path d="M347.015 35.8409C339.56 38.1782 466.812 -10.6778 539.131 81.7302C564.676 114.376 535.073 247.756 464.26 352.836" stroke="white" stroke-width="16.6201" stroke-linecap="round" stroke-linejoin="round"/>
<path d="M464.259 352.835C464.259 352.835 468.873 375.55 535.944 361.706C565.331 355.637 547.645 378.738 517.841 392.579C493.381 403.931 438.543 406.841 437.647 391.154C435.341 350.681 466.508 362.977 464.259 352.835ZM464.259 352.835C462.225 343.702 448.288 334.738 439.068 312.385C431.019 292.874 328.673 143.253 467.451 165.474C472.535 164.422 431.256 33.4715 301.38 31.3421C171.533 29.2128 175.793 191.025 175.793 191.025" stroke="white" stroke-width="16.6201" stroke-linecap="round" stroke-linejoin="bevel"/>
<path d="M251.355 366.677C233.252 386.898 238.576 390.449 202.391 397.9C165.779 405.446 187.289 418.877 201.328 422.386C218.352 426.646 257.737 432.677 284.349 395.414C292.453 384.069 284.301 365.966 273.169 361.352C267.791 359.124 260.599 356.332 251.355 366.677Z" stroke="white" stroke-width="16.6201" stroke-linecap="round" stroke-linejoin="round"/>
<path d="M250.169 366.324C248.345 354.434 254.076 340.286 260.217 323.734C269.447 298.9 290.741 274.061 273.707 195.282C261.009 136.577 175.845 183.065 175.792 191.025C175.74 198.982 179.644 231.372 174.369 269.089C167.487 318.306 205.687 359.932 249.675 355.673" stroke="white" stroke-width="16.6201" stroke-linecap="round" stroke-linejoin="round"/>
<path d="M229.905 189.832C229.521 192.55 234.883 199.805 241.873 200.774C248.852 201.748 254.825 196.078 255.204 193.362C255.583 190.644 250.228 187.649 243.235 186.676C236.252 185.701 230.276 187.12 229.907 189.832H229.905Z" fill="white" stroke="white" stroke-width="5.54"/>
<path d="M442.471 184.289C442.849 187.008 437.495 194.262 430.503 195.232C423.519 196.205 417.545 190.536 417.163 187.82C416.793 185.101 422.149 182.106 429.135 181.133C436.12 180.16 442.092 181.577 442.471 184.29V184.289Z" fill="white" stroke="white" stroke-width="2.77"/>
<path d="M467.451 165.474C468.601 186.799 462.857 201.325 462.133 224.026C461.061 257.023 477.865 294.791 452.545 332.606" stroke="white" stroke-width="16.6201" stroke-linecap="round" stroke-linejoin="round"/>
</svg>
