<svg width="107" height="106" viewBox="0 0 107 106" fill="none" xmlns="http://www.w3.org/2000/svg">
<path d="M106.1 29.4001C106.1 28.3001 106.1 27.3001 106.1 26.2001C106 23.9001 105.9 21.5001 105.5 19.2001C105.1 16.9001 104.4 14.7001 103.3 12.6001C102.2 10.5001 100.9 8.60009 99.2 7.00009C97.5 5.30009 95.6 4.00009 93.6 2.90009C91.5 1.80009 89.3 1.1001 87 0.700104C84.7 0.300104 82.4 0.100098 80 0.100098C78.9 0.100098 77.9 0.100098 76.8 0.100098C75.5 0.100098 74.3 0.100098 73 0.100098H44.8999H33.3C32 0.100098 30.8 0.100098 29.5 0.100098C28.4 0.100098 27.4 0.100098 26.3 0.100098C25.7 0.100098 25.1 0.100104 24.6 0.200104C22.9 0.300104 21.0999 0.400104 19.3999 0.700104C17.6999 1.0001 15.9999 1.5001 14.3999 2.1001C13.8999 2.3001 13.3 2.60011 12.8 2.80011C11.2 3.60011 9.79995 4.6001 8.39995 5.7001C7.99995 6.1001 7.49996 6.50009 7.09996 6.90009C5.39996 8.60009 4.09995 10.5001 2.99995 12.5001C1.89995 14.6001 1.19996 16.8001 0.799957 19.1001C0.399957 21.4001 0.299951 23.7001 0.199951 26.1001C0.199951 27.2001 0.199951 28.2001 0.199951 29.3001C0.199951 30.6001 0.199951 31.8001 0.199951 33.1001V50.4001V72.8001C0.199951 74.1001 0.199951 75.3001 0.199951 76.6001C0.199951 77.7001 0.199951 78.7001 0.199951 79.8001C0.299951 82.1001 0.399957 84.5001 0.799957 86.8001C1.19996 89.1001 1.89995 91.3001 2.99995 93.4001C4.09995 95.5001 5.39996 97.4001 7.09996 99.0001C8.79996 100.7 10.7 102 12.7 103.1C14.8 104.2 17 104.9 19.3 105.3C21.6 105.7 23.9 105.9 26.3 105.9C27.4 105.9 28.4 105.9 29.5 105.9C30.8 105.9 32 105.9 33.3 105.9H73C74.3 105.9 75.5 105.9 76.8 105.9C77.9 105.9 78.9 105.9 80 105.9C82.3 105.8 84.7 105.7 87 105.3C89.3 104.9 91.5 104.2 93.6 103.1C95.7 102 97.6 100.7 99.2 99.0001C100.9 97.3001 102.2 95.4001 103.3 93.4001C104.4 91.3001 105.1 89.1001 105.5 86.8001C105.9 84.5001 106.1 82.2001 106.1 79.8001C106.1 78.7001 106.1 77.7001 106.1 76.6001C106.1 75.3001 106.1 74.1001 106.1 72.8001V33.1001C106.1 31.9001 106.1 30.7001 106.1 29.4001Z" fill="#F05138"/>
<path d="M84 65.5001C84.1 65.1001 84.2 64.7001 84.3 64.3001C88.7 46.8001 78 26.0001 59.8 15.1001C67.8 25.9001 71.3 39.0001 68.2 50.4001C67.9 51.4001 67.6 52.4001 67.2 53.4001C66.8 53.1001 66.3 52.8001 65.6 52.5001C65.6 52.5001 47.5 41.3001 27.9 21.6001C27.4 21.1001 38.4 37.3001 50.8 50.4001C44.9 47.1001 28.6 35.2001 18.2 25.8001C19.5 27.9001 21 30.0001 22.6 31.9001C31.2 42.9001 42.5 56.4001 56 66.8001C46.5 72.6001 33.1 73.1001 19.8 66.8001C16.5 65.3001 13.4 63.4001 10.5 61.3001C16.1 70.3001 24.8 78.1001 35.4 82.7001C48 88.1001 60.6 87.8001 69.9 82.8001C69.9 82.8001 70 82.8001 70 82.7001C70.4 82.5001 70.8 82.2001 71.2 82.0001C75.7 79.7001 84.5 77.4001 89.3 86.6001C90.7 88.7001 93.2 76.7001 84 65.5001Z" fill="white"/>
</svg>
