<svg width="2120" height="424" viewBox="0 0 2120 424" fill="none" xmlns="http://www.w3.org/2000/svg">
<path fill-rule="evenodd" clip-rule="evenodd" d="M417.023 418H6V6.97607H417.023V418Z" fill="#FFCC00" stroke="black" stroke-width="10"/>
<path fill-rule="evenodd" clip-rule="evenodd" d="M641.916 283.912L633.697 283.368L625.994 282.823L617.775 282.278L610.585 281.19L602.88 279.557L596.203 277.924L589.013 276.291L582.336 274.115L576.173 271.938L569.496 269.76L563.847 267.039L558.196 264.317L552.547 261.052L547.411 257.787L542.274 254.52L537.652 250.711L533.029 246.901L528.92 243.091L526.866 240.914L524.811 238.738L521.216 234.383L518.134 230.029L515.053 225.131L512.485 220.233L509.917 215.334L507.862 209.891L505.808 204.993L504.267 199.55L503.24 193.563L502.212 188.121L501.699 182.134V176.147V170.16L502.726 164.173L503.24 158.186L504.78 152.744L506.321 147.301L508.376 141.858L510.431 136.415L512.998 130.973L516.08 126.075L519.162 121.177L522.757 116.823L526.866 111.924L528.92 109.747L530.975 107.57L535.597 103.76L540.22 99.4051L545.356 95.5961L550.492 91.7861L556.142 88.5211L562.305 85.2541L568.469 82.5331L575.146 79.2681L581.823 76.5471L588.5 74.3701L595.69 72.1931L603.395 70.5591L611.099 68.3821L618.804 67.2941L627.021 66.2051L635.239 65.1171L643.97 64.5731L652.702 64.0281H661.947H673.76L685.059 64.5731L695.845 65.6611L706.118 67.2941L715.363 68.9271L723.581 71.1031L730.771 73.2811L733.853 73.8261L736.935 74.9141L724.608 104.305L719.472 102.671L713.822 100.495L707.145 98.8611L699.441 97.7731L691.223 96.1401L682.491 95.0521L672.733 94.5071H661.947H655.783H649.621L643.457 95.0521L637.807 96.1401L632.157 96.6841L627.021 97.7731L621.371 99.4051L616.749 100.495L611.612 102.127L606.989 103.76L602.88 105.936L598.772 108.114L594.663 110.291L590.554 112.468L583.364 117.911L580.281 120.631L577.2 123.354L572.064 129.884L569.496 133.15L567.442 136.415L563.333 143.491L561.792 146.757L560.251 150.566L559.224 154.376L558.196 158.186L557.683 161.996L557.169 166.35L556.656 174.514V178.868L557.169 183.222L557.683 187.577L558.71 191.931L559.737 195.74L561.278 199.55L562.818 203.361L564.36 207.17L566.414 210.98L568.469 214.246L571.037 217.512L573.604 220.777L576.687 223.497L579.769 226.764L582.85 229.485L585.932 232.206L593.635 236.561L601.34 240.914L605.449 243.091L610.072 244.724L618.804 247.446L623.426 249.079L628.562 250.166L638.834 251.799L649.106 252.889H659.892H671.191L681.464 252.343L690.709 251.255L698.928 250.166L706.631 248.535L713.822 246.901L726.662 243.091L735.907 271.938L729.745 273.57L722.04 275.747L712.795 277.924L702.522 279.557L691.223 281.19L678.382 282.823L665.028 283.912H657.838H650.134H641.916Z" fill="white"/>
<path fill-rule="evenodd" clip-rule="evenodd" d="M994.255 228.94L994.77 242.547V249.078L995.283 255.609L996.824 267.583L997.851 273.569L998.879 279.012H950.086L944.949 252.888H943.409L940.326 255.609L936.731 258.874L932.622 261.596L928.513 264.317L923.89 267.04L918.754 269.761L913.104 272.483L907.454 274.66L901.805 276.838L895.641 278.47L888.964 280.103L882.287 281.192L875.097 282.28L867.392 283.37L860.202 283.914H851.984H846.848H841.199L830.926 282.825L826.303 281.737L821.167 281.192L812.436 279.015L804.218 276.293L800.622 274.66L797.027 273.027L793.431 270.849L789.836 269.218L786.753 267.04L784.185 265.407L781.104 263.229L778.535 260.508L775.967 258.33L773.912 256.153L769.805 251.255L768.264 248.534L766.722 245.812L764.154 240.369L763.128 237.648L762.613 234.926L761.586 232.205V229.483L761.073 223.496V218.599L761.586 214.245L762.613 209.891L764.154 205.537L765.696 201.183L767.75 197.373L770.318 193.562L772.885 189.752L775.966 185.942L779.562 182.677L783.158 179.411L787.266 176.146L791.888 173.425L796.512 170.158L802.161 167.436L807.297 165.259L813.461 162.538L819.625 160.361L826.302 158.184L832.979 156.552L840.169 154.374L847.874 152.741L855.578 151.653L863.796 150.02L872.014 148.931L880.744 147.843L889.99 147.299L899.235 146.21L919.266 145.666L940.324 145.122V140.768L939.811 133.692L939.298 129.882L938.27 126.073L936.73 121.719L934.676 117.908L932.621 113.554L931.079 111.922L929.025 109.745L925.43 105.934L920.806 102.669L918.238 101.036L915.156 99.9479L912.075 98.3139L908.992 97.2259L901.288 95.0489L897.179 93.9599L893.07 93.4159L888.447 92.8719L883.311 92.3269H878.174H872.525H861.739L856.603 92.8719L851.466 93.4159L840.68 94.5039L830.409 96.1369L820.649 98.3139L811.404 101.036L802.672 104.302L794.455 107.567L782.128 81.9859L786.75 80.3529L791.886 78.1759L802.672 74.9099L813.972 71.6449L826.299 68.9229L839.14 66.7459L845.817 65.6569L852.494 65.1129L859.684 64.5689L866.361 64.0239H873.551H880.741H888.959L896.664 64.5689L904.368 65.1129L911.558 65.6569L924.912 68.3779L931.075 69.4669L937.239 71.0989L942.375 73.2759L947.511 75.4529L952.648 77.6309L956.757 79.8079L960.864 82.5289L964.973 85.2499L968.575 87.9759L971.656 91.2409L974.739 93.9619L977.821 97.2279L980.388 100.494L982.443 104.304L986.552 111.379L988.093 115.188L989.633 118.455L990.661 122.265L991.688 126.619L993.229 134.238L994.256 141.858V150.023L994.255 228.94ZM941.354 171.792H930.568H919.269L907.969 172.336L896.67 172.881L885.884 173.969L875.612 175.602L865.34 177.234L856.094 179.956L851.985 181.044L847.362 182.677L839.658 185.942L836.062 187.575L832.467 189.752L829.384 191.93L826.817 194.651L824.249 196.828L821.681 199.549L819.627 202.27L818.085 205.536L817.058 208.258L816.031 212.067L815.517 215.334L815.004 219.144L815.517 223.498L816.031 225.676V227.853L817.572 231.664L818.598 233.841L819.113 235.473L821.681 238.74L824.249 242.006L826.817 244.727L830.413 246.904L831.953 247.994L834.007 249.082L837.603 250.715L842.226 252.347L846.335 253.437L850.957 254.524L855.58 255.07L860.716 255.614H865.853H873.043L879.72 255.07L886.397 253.981L892.561 252.893L898.21 251.259L903.86 249.082L908.996 246.904L914.132 244.727L918.241 242.006L922.35 239.284L925.946 236.563L929.541 233.296L932.624 230.574L935.192 227.309L937.247 224.042L938.788 220.233L940.328 217.512L940.842 214.245L941.356 211.523V208.258V171.792H941.354Z" fill="white"/>
<path fill-rule="evenodd" clip-rule="evenodd" d="M1118.55 99.4051L1122.15 95.5961L1126.26 92.3301L1130.36 88.5211L1135.5 85.2541L1140.64 81.9891L1146.29 78.7241L1151.94 76.0031L1158.61 73.2811L1165.29 71.1031L1172.48 68.9271L1180.19 67.2941L1188.4 65.6611L1196.62 64.5731L1205.35 64.0281H1214.08H1218.19H1222.3L1230.52 64.5731L1239.25 65.6611L1247.98 67.8381L1257.23 70.0161L1261.34 71.6491L1265.96 73.2811L1270.07 74.9141L1274.18 77.0911L1278.29 79.2681L1282.4 81.4451L1286.5 84.1661L1290.1 86.8881L1293.69 90.1541L1297.29 93.4191L1300.37 96.6841L1303.45 100.495L1306.53 104.849L1309.1 109.203L1311.16 113.556L1313.21 118.455L1315.27 123.354L1316.81 128.796L1317.83 134.782L1318.86 140.77L1319.38 146.757V153.288V279.013H1265.44V157.642V151.656L1264.42 145.124L1263.39 139.682L1261.85 133.694L1259.8 128.252L1258.25 125.531L1257.23 123.354L1253.63 118.455L1250.04 113.556L1245.93 109.747L1240.79 105.936L1238.22 104.305L1235.14 102.671L1228.98 99.9511L1221.79 97.7731L1218.19 97.2291L1214.08 96.6841L1209.97 96.1401L1205.87 95.5961L1201.24 95.0521H1196.62L1189.94 95.5961L1183.78 96.1401L1177.62 96.6841L1171.45 98.3171L1165.8 99.9511L1160.67 102.127L1155.53 104.305L1150.4 106.481L1148.34 108.114L1146.29 109.747L1141.66 112.468L1138.07 115.733L1134.47 118.999L1130.88 122.809L1128.31 126.619L1125.74 130.429L1123.69 134.238L1122.15 138.048L1121.63 140.226L1121.12 142.947L1120.09 147.301V152.2V279.013H1065.65V125.531V109.747L1065.14 95.5961V88.5211L1064.62 81.9891L1064.11 74.9141L1063.59 68.3821H1111.36L1114.44 103.215H1115.98L1118.55 99.4051Z" fill="white"/>
<path fill-rule="evenodd" clip-rule="evenodd" d="M1602.38 228.94V242.547L1602.89 249.078L1603.4 255.609L1604.43 267.583L1605.46 273.569L1606.48 279.012H1558.21L1553.07 252.888H1551.02L1547.93 255.609L1544.34 258.874L1540.23 261.596L1536.12 264.317L1531.5 267.04L1526.36 269.761L1521.22 272.483L1515.58 274.66L1509.41 276.838L1503.25 278.47L1496.57 280.103L1489.89 281.192L1482.7 282.28L1475.51 283.37L1467.81 283.914H1460.11H1454.46H1449.32L1439.05 282.825L1433.91 281.737L1429.29 281.192L1420.56 279.015L1412.34 276.293L1408.23 274.66L1404.64 273.027L1401.04 270.849L1397.96 269.218L1394.88 267.04L1391.8 265.407L1389.23 263.229L1386.66 260.508L1384.09 258.33L1382.04 256.153L1377.93 251.255L1376.39 248.534L1374.85 245.812L1372.28 240.369L1371.25 237.648L1370.23 234.926L1369.71 232.205L1369.2 229.483L1368.68 223.496L1369.2 218.599L1369.71 214.245L1370.74 209.891L1371.77 205.537L1373.31 201.183L1375.36 197.373L1377.93 193.562L1380.5 189.752L1383.58 185.942L1387.17 182.677L1391.28 179.411L1395.39 176.146L1399.5 173.425L1404.64 170.158L1409.77 167.436L1415.42 165.259L1421.07 162.538L1427.23 160.361L1433.91 158.184L1440.59 156.552L1447.78 154.374L1455.48 152.741L1463.19 151.653L1471.41 150.02L1480.14 148.931L1488.87 147.843L1498.11 147.299L1507.36 146.21L1526.88 145.666L1547.93 145.122V140.768V133.692L1546.91 129.882L1545.88 126.073L1544.85 121.719L1542.8 117.908L1540.23 113.554L1538.69 111.922L1537.15 109.745L1533.04 105.934L1528.42 102.669L1525.85 101.036L1523.28 99.9479L1520.2 98.3139L1516.6 97.2259L1509.42 95.0489L1505.31 93.9599L1500.68 93.4159L1496.06 92.8719L1490.93 92.3269H1485.79H1480.14H1469.87L1464.22 92.8719L1459.08 93.4159L1448.81 94.5039L1438.54 96.1369L1428.78 98.3139L1419.02 101.036L1410.29 104.302L1402.07 107.567L1389.74 81.9859L1394.37 80.3529L1399.5 78.1759L1410.29 74.9099L1422.1 71.6449L1434.43 68.9229L1447.27 66.7459L1453.95 65.6569L1460.62 65.1129L1467.3 64.5689L1474.49 64.0239H1481.17H1488.36H1496.58L1504.8 64.5689L1512.5 65.1129L1519.69 65.6569L1533.04 68.3779L1539.21 69.4669L1544.86 71.0989L1550.51 73.2759L1555.64 75.4529L1560.27 77.6309L1564.89 79.8079L1568.99 82.5289L1572.59 85.2499L1576.19 87.9719L1579.78 91.2369L1582.86 93.9579L1585.43 97.2239L1588 100.49L1590.57 104.3L1594.16 111.375L1596.22 115.184L1597.24 118.451L1598.79 122.261L1599.81 126.615L1601.35 134.234L1601.87 141.854L1602.38 150.019V228.94H1602.38ZM1549.47 171.792H1538.18H1526.88L1515.58 172.336L1504.79 172.881L1494 173.969L1483.22 175.602L1473.46 177.234L1464.21 179.956L1459.59 181.044L1455.48 182.677L1447.27 185.942L1443.67 187.575L1440.59 189.752L1437.51 191.93L1434.42 194.651L1431.86 196.828L1429.8 199.549L1427.75 202.27L1426.21 205.536L1424.67 208.258L1423.64 212.067L1423.12 215.334V219.144V223.498L1423.64 225.676L1424.15 227.853L1425.18 231.664L1426.21 233.841L1427.23 235.473L1429.29 238.74L1431.86 242.006L1434.94 244.727L1438.02 246.904L1440.07 247.994L1441.61 249.082L1445.72 250.715L1449.83 252.347L1454.45 253.437L1459.08 254.524L1463.7 255.07L1468.32 255.614H1473.46H1480.65L1487.84 255.07L1494 253.981L1500.68 252.893L1506.33 251.259L1511.98 249.082L1517.11 246.904L1521.74 244.727L1526.36 242.006L1530.47 239.284L1534.06 236.563L1537.15 233.296L1540.23 230.574L1542.79 227.309L1544.85 224.042L1546.9 220.233L1547.93 217.512L1548.96 214.245V211.523L1549.47 208.258V171.792H1549.47Z" fill="white"/>
<path fill-rule="evenodd" clip-rule="evenodd" d="M1726.16 104.849L1729.75 99.9511L1733.35 95.0521L1737.46 90.6981L1741.56 86.8881L1746.19 83.0791L1751.32 79.2681L1756.46 76.5471L1762.11 73.2811L1768.27 71.1031L1773.92 68.9271L1780.6 67.2941L1786.77 65.6611L1793.44 64.5731L1800.12 64.0281H1806.8H1814.5L1821.69 65.1171V101.039L1812.44 100.495L1802.69 99.9511H1795.5L1788.82 101.039L1782.14 102.127L1775.98 103.76L1770.33 105.393L1764.68 108.114L1759.54 110.835L1754.41 113.556L1750.3 117.367L1746.19 120.631L1742.08 124.986L1739 129.34L1735.92 133.694L1734.89 135.872L1733.35 138.593L1731.29 143.491L1729.75 148.933L1728.73 152.744L1728.21 157.642V161.996L1727.7 166.894V279.013H1673.77L1674.28 134.238V116.278L1673.77 99.4051L1673.26 91.2421V83.6221L1672.74 76.0031L1671.71 68.3821H1719.48L1721.54 109.747H1723.59L1726.16 104.849Z" fill="white"/>
<path fill-rule="evenodd" clip-rule="evenodd" d="M2057.95 68.3821H2115.48L2033.81 218.6L2019.95 244.18L2013.27 255.61L2006.59 266.495L2000.43 276.836L1994.27 286.088L1988.1 295.341L1981.94 303.504L1976.29 311.124L1970.12 318.2L1963.96 324.731L1957.8 330.718L1951.64 336.161L1944.96 341.603L1938.79 346.501L1931.6 350.856L1926.47 354.122L1921.85 356.843L1911.57 361.198L1902.33 365.55L1893.6 368.817L1884.86 370.994L1877.68 373.17L1871 374.259L1865.35 375.348L1851.48 343.236L1857.13 342.147L1862.78 340.515L1868.43 338.881L1874.59 336.705L1880.76 333.984L1886.92 331.262L1893.08 327.996L1899.25 324.187L1904.9 320.92L1910.55 317.112L1916.71 312.757L1922.36 307.315L1928.52 301.872L1934.17 295.341L1936.74 292.075L1939.82 288.81L1942.39 285.543L1944.44 281.735L1947.53 276.836L1948.55 274.659L1949.07 272.482L1948.55 270.848L1948.04 268.671L1946.5 265.951L1944.44 263.229L1835.05 68.3821H1894.11L1958.82 193.019L1964.48 203.905L1969.61 215.334L1978.34 236.015H1979.88L1983.99 226.219L1988.62 215.334L1993.75 203.905L1998.89 191.931L2057.95 68.3821Z" fill="white"/>
<path fill-rule="evenodd" clip-rule="evenodd" d="M2088.26 108.658L2087.23 110.835L2088.26 108.658L2086.72 110.835L2088.26 108.658Z" fill="black"/>
<path fill-rule="evenodd" clip-rule="evenodd" d="M596.204 318.745L605.963 317.656H616.749H621.885H626.508L630.617 318.2L634.726 319.289L638.32 319.833L641.403 320.921L644.484 322.554L647.052 324.188L649.621 325.821L651.674 327.453L653.729 329.631L655.27 331.808L656.298 334.53L657.324 337.251L657.838 339.974V343.239V345.961L657.324 349.226L656.298 351.949L655.27 354.67L653.729 357.392L651.674 359.569L649.621 361.747L647.052 363.379L643.97 365.012L640.889 366.645L637.293 368.279L633.184 369.367L629.075 369.911L624.452 370.455L619.316 371H613.666H604.421L596.203 370.455L596.204 318.745ZM605.963 365.55H610.586H615.722H619.318L622.914 365.006L629.591 363.918L634.727 362.285L637.295 361.197L639.349 359.563L641.404 358.474L642.945 356.842L644.485 354.664L645.513 352.487L646.539 350.854L647.053 348.132L647.567 345.955V343.233V341.056L647.053 338.878L646.539 336.701L646.026 334.524L644.998 332.892L643.458 331.258L641.917 329.625L640.375 328.537L635.752 325.815L633.184 325.27L630.616 324.182L624.452 323.093H620.858H617.262H610.585L605.962 323.638V365.55H605.963Z" fill="white"/>
<path fill-rule="evenodd" clip-rule="evenodd" d="M696.359 354.122L688.654 370.449H678.381L704.063 317.656H715.362L741.043 370.449H730.771L722.553 354.122H696.359ZM720.499 348.678L713.309 333.44L711.255 328.542L709.715 323.644H709.2L707.66 328.542L705.605 333.44L698.414 348.678H720.499Z" fill="white"/>
<path fill-rule="evenodd" clip-rule="evenodd" d="M748.748 317.656H803.705V323.643H781.106V370.449H771.347V323.643H748.748V317.656Z" fill="white"/>
<path fill-rule="evenodd" clip-rule="evenodd" d="M829.899 354.122L822.194 370.449H811.922L837.603 317.656H849.416L874.584 370.449H864.312L856.608 354.122H829.899ZM854.553 348.678L846.848 333.44L844.793 328.542L843.253 323.644H842.739L841.199 328.542L839.144 333.44L831.953 348.678H854.553Z" fill="white"/>
<path fill-rule="evenodd" clip-rule="evenodd" d="M967.548 360.652L968.062 359.564V358.475L968.575 356.843V355.209L967.548 353.577L967.034 351.945L965.494 350.856L963.439 349.767L960.871 348.678L954.708 346.501L950.086 344.87L946.49 343.78L942.894 342.147L939.813 340.515L938.786 339.426L937.758 338.338L936.217 336.161L935.19 333.984L934.677 331.262V329.629L935.19 328.541L935.704 326.908L936.731 325.82L938.786 323.098L939.813 322.01L941.354 320.92L944.949 319.289L947.003 318.745L949.058 318.2L951.112 317.656L953.68 317.112H958.817H964.466L968.575 317.656L972.685 318.745L975.252 319.289L972.685 325.275L970.63 324.187L967.548 323.643L963.439 323.098L958.817 322.553H955.222L952.14 323.098L949.571 324.187L947.517 325.275L946.49 326.364L945.463 327.996L944.949 329.085L944.436 330.718L944.949 332.35L945.463 333.984L945.977 334.528L946.49 335.072L948.031 336.161L950.086 337.793L952.653 338.881L959.331 340.515L963.953 342.147L967.548 343.78L971.144 344.87L973.711 347.046L974.739 347.59L975.766 348.678L977.307 350.856L977.82 353.577L978.334 354.665V356.297L977.82 359.02L976.794 362.286L975.766 363.373L974.739 364.462L972.171 367.184L968.062 368.817L963.953 370.449L958.303 370.994L955.222 371.538H952.14L947.003 370.994L941.354 370.449L936.731 369.361L934.677 368.817L933.136 368.273L935.704 362.286L939.3 363.918L943.409 365.006L948.031 365.55H953.167H956.248L959.331 365.006L962.412 364.462L964.466 363.373L966.008 361.742L967.548 360.652Z" fill="white"/>
<path fill-rule="evenodd" clip-rule="evenodd" d="M1034.83 371.538H1031.24L1027.64 370.994L1024.05 370.449L1020.96 369.361L1017.88 368.273L1015.31 367.184L1012.74 365.55L1010.69 363.918L1008.12 362.285L1006.58 360.107L1005.04 357.93L1003.5 355.752L1002.47 353.031L1001.96 350.309L1001.45 347.588L1000.93 344.867L1001.45 341.6L1001.96 338.878L1002.47 336.157L1003.5 333.436L1005.04 330.714L1006.58 328.537L1008.64 326.359L1010.69 324.726L1013.26 322.548L1015.83 321.461L1018.91 319.827L1021.99 318.739L1025.07 318.194L1028.67 317.65L1032.26 317.106H1035.86H1039.45L1043.05 317.65L1046.65 318.194L1049.73 318.739L1052.81 319.827L1055.38 321.461L1057.94 322.548L1060.51 324.182L1062.57 326.359L1064.11 328.537L1065.65 330.714L1067.19 332.892L1068.22 335.613L1068.73 337.79L1069.24 341.056V343.777V347.044L1068.73 350.309L1067.7 353.031L1066.68 355.752L1065.14 357.93L1063.6 360.651L1061.54 362.285L1059.49 364.462L1056.92 366.095L1054.35 367.727L1051.27 368.817L1048.19 369.905L1045.1 370.449L1041.51 370.994L1038.43 371.538H1034.83ZM1035.34 366.095H1037.91L1040.48 365.55L1043.05 365.006L1045.1 364.462L1047.67 363.373L1049.21 362.285L1051.27 360.651L1052.81 359.563L1054.35 357.93L1055.38 356.296L1057.43 352.487L1058.46 348.133L1058.97 345.956V343.778V339.969L1058.46 338.336L1057.43 336.158L1055.89 332.347L1054.86 330.715L1053.32 329.082L1051.78 327.992L1049.73 326.36L1045.62 324.183L1043.56 323.639L1040.99 323.094L1038.43 322.549H1035.35H1032.27L1029.7 323.094L1027.13 323.639L1024.56 324.183L1022.51 325.271L1020.45 326.36L1018.91 327.992L1017.37 329.082L1015.83 330.715L1014.8 332.347L1012.75 336.158L1012.23 338.336L1011.72 340.513L1011.21 344.322L1011.72 348.676L1012.23 350.854L1012.75 352.487L1014.8 356.296L1017.37 359.563L1020.96 362.285L1023.02 363.373L1025.07 363.918L1029.7 365.55L1032.27 366.095H1034.83H1035.34Z" fill="white"/>
<path fill-rule="evenodd" clip-rule="evenodd" d="M1137.56 370.449H1095.44V317.656H1105.2V365.006H1137.56V370.449Z" fill="white"/>
<path fill-rule="evenodd" clip-rule="evenodd" d="M1176.59 364.462L1178.13 365.006L1181.73 365.55L1185.32 366.095L1188.92 365.55L1192.51 365.006L1194.05 364.462L1195.59 363.918L1198.16 361.742L1199.7 360.652L1200.73 359.564L1201.24 357.931L1202.27 356.843L1202.78 353.033L1203.3 351.399V349.222V317.656H1213.06V348.678V351.399L1212.54 354.122L1212.03 356.843L1211 359.02L1209.97 361.198L1208.43 362.83L1206.89 364.462L1204.84 366.095L1203.3 367.727L1200.73 368.817L1198.68 369.361L1196.11 370.449L1193.54 370.994H1190.46L1187.89 371.538H1184.81L1179.16 370.994H1176.59L1174.02 370.449L1171.97 369.361L1169.4 368.817L1167.34 367.727L1165.8 366.639L1163.75 365.006L1162.21 363.373L1161.18 361.198L1160.15 359.564L1159.13 357.387L1158.61 354.665L1158.1 351.945V348.678V317.656H1167.86V349.222V351.399V353.033L1168.37 355.209L1168.89 356.843L1169.91 358.475L1170.43 359.564L1172.48 361.742L1175.05 363.918L1176.59 364.462Z" fill="white"/>
<path fill-rule="evenodd" clip-rule="evenodd" d="M1235.14 317.656H1290.61V323.643H1267.5V370.449H1257.74V323.643H1235.14V317.656Z" fill="white"/>
<path fill-rule="evenodd" clip-rule="evenodd" d="M1312.7 370.449V317.656H1322.46V370.449H1312.7Z" fill="white"/>
<path fill-rule="evenodd" clip-rule="evenodd" d="M1382.04 371.538H1378.44L1375.36 370.994L1371.76 370.449L1368.68 369.361L1365.6 368.273L1363.03 367.184L1360.46 365.55L1357.9 363.918L1355.84 362.285L1354.3 360.107L1352.24 357.93L1351.22 355.752L1350.19 353.031L1349.17 350.309L1348.65 347.588V344.867V341.6L1349.17 338.878L1350.19 336.157L1351.22 333.436L1352.76 330.714L1354.3 328.537L1356.35 326.359L1358.41 324.726L1360.98 322.548L1363.55 321.461L1366.63 319.827L1369.71 318.739L1372.79 318.194L1375.87 317.65L1379.47 317.106H1383.06H1387.17L1390.77 317.65L1393.85 318.194L1397.44 318.739L1400.01 319.827L1403.09 321.461L1405.66 322.548L1407.72 324.182L1409.77 326.359L1411.83 328.537L1413.37 330.714L1414.39 332.892L1415.42 335.613L1416.45 337.79L1416.96 341.056V343.777V347.044L1416.45 350.309L1415.42 353.031L1414.39 355.752L1412.85 357.93L1411.31 360.651L1409.26 362.285L1406.69 364.462L1404.12 366.095L1401.56 367.727L1398.99 368.817L1395.91 369.905L1392.82 370.449L1389.23 370.994L1386.15 371.538H1382.55H1382.04ZM1382.55 366.095H1385.63L1388.2 365.55L1390.77 365.006L1392.82 364.462L1394.88 363.373L1396.93 362.285L1398.98 360.651L1400.53 359.563L1402.07 357.93L1403.09 356.296L1405.15 352.487L1406.18 348.133L1406.69 345.956V343.778L1406.18 339.969L1405.66 338.336L1405.15 336.158L1403.61 332.347L1402.07 330.715L1401.04 329.082L1398.98 327.992L1397.44 326.36L1393.33 324.183L1390.77 323.639L1388.71 323.094L1385.63 322.549H1383.06H1379.98L1377.41 323.094L1374.85 323.639L1372.28 324.183L1370.22 325.271L1368.17 326.36L1366.63 327.992L1364.57 329.082L1363.55 330.715L1362.01 332.347L1360.46 336.158L1359.44 338.336L1358.92 340.513V344.322V348.676L1359.44 350.854L1360.46 352.487L1362.52 356.296L1365.09 359.563L1368.17 362.285L1370.22 363.373L1372.28 363.918L1377.42 365.55L1379.98 366.095H1382.55Z" fill="white"/>
<path fill-rule="evenodd" clip-rule="evenodd" d="M1490.41 317.656H1499.65V370.449H1489.9L1466.27 343.78L1458.56 335.072L1454.97 330.718L1452.4 326.364H1451.89L1452.4 336.161V348.134V370.449H1443.67V317.656H1453.94L1478.08 344.324L1485.27 353.577L1488.35 357.387L1491.44 361.742L1490.92 356.297V351.399L1490.41 339.971V317.656Z" fill="white"/>
<path fill-rule="evenodd" clip-rule="evenodd" d="M1560.77 360.652L1561.29 359.564L1561.8 358.475V356.843V355.209L1561.29 353.577L1560.26 351.945L1558.72 350.856L1556.66 349.767L1554.1 348.678L1547.93 346.501L1543.31 344.87L1539.72 343.78L1536.12 342.147L1533.55 340.515L1532.01 339.426L1530.98 338.338L1529.44 336.161L1528.42 333.984L1527.9 331.262L1528.42 329.629V328.541L1528.93 326.908L1529.96 325.82L1532.01 323.098L1533.04 322.01L1534.58 320.92L1538.18 319.289L1540.23 318.745L1542.28 318.2L1544.85 317.656L1546.91 317.112H1552.04H1557.69L1562.31 317.656L1565.91 318.745L1568.48 319.289L1565.91 325.275L1563.85 324.187L1560.77 323.643L1556.66 323.098L1552.04 322.553H1548.45L1545.36 323.098L1542.8 324.187L1541.26 325.275L1539.72 326.364L1538.69 327.996L1538.18 329.085L1537.66 330.718L1538.18 332.35L1538.69 333.984L1539.2 334.528L1539.72 335.072L1541.26 336.161L1543.31 337.793L1545.88 338.881L1552.56 340.515L1557.18 342.147L1560.77 343.78L1564.37 344.87L1566.94 347.046L1567.96 347.59L1568.99 348.678L1570.53 350.856L1571.56 353.577V354.665V356.297L1571.05 359.02L1570.02 362.286L1568.99 363.373L1567.96 364.462L1565.4 367.184L1561.8 368.817L1557.18 370.449L1551.53 370.994L1548.96 371.538H1545.36L1540.23 370.994L1535.09 370.449L1529.96 369.361L1528.42 368.817L1526.36 368.273L1528.93 362.286L1532.52 363.918L1536.63 365.006L1541.26 365.55H1546.39H1549.99L1553.07 365.006L1555.64 364.462L1557.69 363.373L1559.75 361.742L1560.77 360.652Z" fill="white"/>
<path fill-rule="evenodd" clip-rule="evenodd" d="M1677.88 370.449H1636.28V317.656H1646.03V365.006H1677.88V370.449Z" fill="white"/>
<path fill-rule="evenodd" clip-rule="evenodd" d="M1684.04 317.656H1739V323.643H1716.4V370.449H1706.64V323.643H1684.04V317.656Z" fill="white"/>
<path fill-rule="evenodd" clip-rule="evenodd" d="M1761.6 318.745L1770.84 317.656H1782.14H1787.28H1791.9L1796.01 318.2L1800.12 319.289L1803.71 319.833L1806.8 320.921L1809.88 322.554L1812.44 324.188L1814.5 325.821L1817.07 327.453L1818.61 329.631L1820.15 331.808L1821.18 334.53L1822.2 337.251L1822.72 339.974V343.239V345.961L1822.2 349.226L1821.18 351.949L1820.15 354.67L1818.61 357.392L1816.55 359.569L1814.5 361.747L1812.44 363.379L1809.36 365.012L1806.28 366.645L1802.17 368.279L1798.58 369.367L1793.95 369.911L1789.33 370.455L1784.19 371H1779.06H1769.3L1761.59 370.455V318.745H1761.6ZM1771.36 365.55H1775.46H1781.11H1784.71L1788.3 365.006L1794.47 363.918L1800.12 362.285L1802.69 361.197L1804.74 359.563L1806.28 358.474L1808.34 356.842L1809.36 354.664L1810.9 352.487L1811.42 350.854L1812.44 348.132V345.955L1812.96 343.233L1812.44 341.056V338.878L1811.93 336.701L1810.9 334.524L1809.88 332.892L1808.85 331.258L1807.31 329.625L1805.25 328.537L1801.15 325.815L1798.58 325.27L1796.01 324.182L1789.85 323.093H1786.25H1782.66H1775.98L1771.36 323.638V365.55Z" fill="white"/>
</svg>
