<?xml version="1.0" encoding="UTF-8" standalone="no"?>
<!-- Generator: Adobe Illustrator 12.0.0, SVG Export Plug-In . SVG Version: 6.00 Build 51448)  -->

<svg
   xmlns:dc="http://purl.org/dc/elements/1.1/"
   xmlns:cc="http://creativecommons.org/ns#"
   xmlns:rdf="http://www.w3.org/1999/02/22-rdf-syntax-ns#"
   xmlns:svg="http://www.w3.org/2000/svg"
   xmlns="http://www.w3.org/2000/svg"
   xmlns:sodipodi="http://sodipodi.sourceforge.net/DTD/sodipodi-0.dtd"
   xmlns:inkscape="http://www.inkscape.org/namespaces/inkscape"
   version="1.1"
   id="Layer_1"
   width="2120"
   height="424"
   viewBox="0 0 2120 424.00001"
   overflow="visible"
   enable-background="new 0 0 2109.479 411.024"
   xml:space="preserve"
   sodipodi:docname="canary-logo.svg"
   inkscape:version="0.92.1 r15371"
   style="overflow:visible"><metadata
   id="metadata3867"><rdf:RDF><cc:Work
       rdf:about=""><dc:format>image/svg+xml</dc:format><dc:type
         rdf:resource="http://purl.org/dc/dcmitype/StillImage" /><dc:title></dc:title></cc:Work></rdf:RDF></metadata><defs
   id="defs3865">
	
	
	
	
	
	
	
	
	
	
	
	
	
	
	
	
	
	
	
	
	
	
	
	
</defs><sodipodi:namedview
   pagecolor="#ffffff"
   bordercolor="#666666"
   borderopacity="1"
   objecttolerance="10"
   gridtolerance="10"
   guidetolerance="10"
   inkscape:pageopacity="0"
   inkscape:pageshadow="2"
   inkscape:window-width="2498"
   inkscape:window-height="1417"
   id="namedview3863"
   showgrid="false"
   inkscape:zoom="0.42906172"
   inkscape:cx="229.54512"
   inkscape:cy="618.40881"
   inkscape:window-x="1494"
   inkscape:window-y="812"
   inkscape:window-maximized="1"
   inkscape:current-layer="Layer_1"
   fit-margin-top="1"
   fit-margin-left="1"
   fit-margin-right="1"
   fit-margin-bottom="1" />
<polygon
   style="clip-rule:evenodd;fill:#ffcc00;fill-rule:evenodd;stroke:#000000;stroke-width:10;stroke-miterlimit:4;stroke-dasharray:none;stroke-opacity:1"
   id="polygon3812"
   points="411.023,411.024 0,411.024 0,0 411.023,0 "
   transform="translate(6,6.9760132)" /><polygon
   style="clip-rule:evenodd;fill-rule:evenodd"
   id="polygon3814"
   points="635.916,276.936 627.697,276.392 619.994,275.847 611.775,275.302 604.585,274.214 596.88,272.581 590.203,270.948 583.013,269.315 576.336,267.139 570.173,264.962 563.496,262.784 557.847,260.063 552.196,257.341 546.547,254.076 541.411,250.811 536.274,247.544 531.652,243.735 527.029,239.925 522.92,236.115 520.866,233.938 518.811,231.762 515.216,227.407 512.134,223.053 509.053,218.155 506.485,213.257 503.917,208.358 501.862,202.915 499.808,198.017 498.267,192.574 497.24,186.587 496.212,181.145 495.699,175.158 495.699,169.171 495.699,163.184 496.726,157.197 497.24,151.21 498.78,145.768 500.321,140.325 502.376,134.882 504.431,129.439 506.998,123.997 510.08,119.099 513.162,114.201 516.757,109.847 520.866,104.948 522.92,102.771 524.975,100.594 529.597,96.784 534.22,92.429 539.356,88.62 544.492,84.81 550.142,81.545 556.305,78.278 562.469,75.557 569.146,72.292 575.823,69.571 582.5,67.394 589.69,65.217 597.395,63.583 605.099,61.406 612.804,60.318 621.021,59.229 629.239,58.141 637.97,57.597 646.702,57.052 655.947,57.052 667.76,57.052 679.059,57.597 689.845,58.685 700.118,60.318 709.363,61.951 717.581,64.127 724.771,66.305 727.853,66.85 730.935,67.938 718.608,97.329 713.472,95.695 707.822,93.519 701.145,91.885 693.441,90.797 685.223,89.164 676.491,88.076 666.733,87.531 655.947,87.531 649.783,87.531 643.621,87.531 637.457,88.076 631.807,89.164 626.157,89.708 621.021,90.797 615.371,92.429 610.749,93.519 605.612,95.151 600.989,96.784 596.88,98.96 592.772,101.138 588.663,103.315 584.554,105.492 577.364,110.935 574.281,113.655 571.2,116.378 566.064,122.908 563.496,126.174 561.442,129.439 557.333,136.515 555.792,139.781 554.251,143.59 553.224,147.4 552.196,151.21 551.683,155.02 551.169,159.374 550.656,167.538 550.656,171.892 551.169,176.246 551.683,180.601 552.71,184.955 553.737,188.764 555.278,192.574 556.818,196.385 558.36,200.194 560.414,204.004 562.469,207.27 565.037,210.536 567.604,213.801 570.687,216.521 573.769,219.788 576.85,222.509 579.932,225.23 587.635,229.585 595.34,233.938 599.449,236.115 604.072,237.748 612.804,240.47 617.426,242.103 622.562,243.19 632.834,244.823 643.106,245.913 653.892,245.913 665.191,245.913 675.464,245.367 684.709,244.279 692.928,243.19 700.631,241.559 707.822,239.925 720.662,236.115 729.907,264.962 723.745,266.594 716.04,268.771 706.795,270.948 696.522,272.581 685.223,274.214 672.382,275.847 659.028,276.936 651.838,276.936 644.134,276.936 "
   transform="translate(6,6.9760132)" /><path
   style="clip-rule:evenodd;fill-rule:evenodd"
   inkscape:connector-curvature="0"
   id="path3816"
   d="m 994.255,228.94001 0.515,13.607 v 6.531 l 0.513,6.531 1.541,11.974 1.027,5.986 1.028,5.443 h -48.793 l -5.137,-26.124 h -1.54 l -3.083,2.721 -3.595,3.265 -4.109,2.722 -4.109,2.721 -4.623,2.723 -5.136,2.721 -5.65,2.722 -5.65,2.177 -5.649,2.178 -6.164,1.632 -6.677,1.633 -6.677,1.089 -7.19,1.088 -7.705,1.09 -7.19,0.544 h -8.218 -5.136 -5.649 l -10.273,-1.089 -4.623,-1.088 -5.136,-0.545 -8.731,-2.177 -8.218,-2.722 -3.596,-1.633 -3.595,-1.633 -3.596,-2.178 -3.595,-1.631 -3.083,-2.178 -2.568,-1.633 -3.081,-2.178 -2.569,-2.721 -2.568,-2.178 -2.055,-2.177 -4.107,-4.898 -1.541,-2.721 -1.542,-2.722 -2.568,-5.443 -1.026,-2.721 -0.515,-2.722 -1.027,-2.721 v -2.722 l -0.513,-5.987 v -4.897 l 0.513,-4.354 1.027,-4.354 1.541,-4.354 1.542,-4.354 2.054,-3.81 2.568,-3.811 2.567,-3.81 3.081,-3.81 3.596,-3.265 3.596,-3.266 4.108,-3.265 4.622,-2.721 4.624,-3.267 5.649,-2.722 5.136,-2.177 6.164,-2.721 6.164,-2.177 6.677,-2.177 6.677,-1.632 7.19,-2.178 7.705,-1.633 7.704,-1.088 8.218,-1.633 8.218,-1.089 8.73,-1.088 9.246,-0.544 9.245,-1.089 20.031,-0.544 21.058,-0.544 v -4.354 l -0.513,-7.076 -0.513,-3.81 -1.028,-3.809 -1.54,-4.354 -2.054,-3.811 -2.055,-4.354 -1.542,-1.632 -2.054,-2.177 -3.595,-3.811 -4.624,-3.265 -2.568,-1.633 -3.082,-1.087997 -3.081,-1.634 -3.083,-1.088 -7.704,-2.177 -4.109,-1.089 -4.109,-0.544 -4.623,-0.544 -5.136,-0.545 h -5.137 -5.649 -10.786 l -5.136,0.545 -5.137,0.544 -10.786,1.088 -10.271,1.633 -9.76,2.177 -9.245,2.721997 -8.732,3.266 -8.217,3.265 -12.327,-25.580997 4.622,-1.633 5.136,-2.177 10.786,-3.266 11.3,-3.265 12.327,-2.722 12.841,-2.177 6.677,-1.089 6.677,-0.544 7.19,-0.544 6.677,-0.545 h 7.19 7.19 8.218 l 7.705,0.545 7.704,0.544 7.19,0.544 13.354,2.721 6.163,1.089 6.164,1.632 5.136,2.177 5.136,2.177 5.137,2.178 4.109,2.177 4.107,2.721 4.109,2.721 3.602,2.726 3.081,3.265 3.083,2.721 3.082,3.266 2.567,3.265997 2.055,3.81 4.109,7.075 1.541,3.809 1.54,3.267 1.028,3.81 1.027,4.354 1.541,7.619 1.027,7.62 v 8.165 78.917 z m -52.901,-57.148 h -10.786 -11.299 l -11.3,0.544 -11.299,0.545 -10.786,1.088 -10.272,1.633 -10.272,1.632 -9.246,2.722 -4.109,1.088 -4.623,1.633 -7.704,3.265 -3.596,1.633 -3.595,2.177 -3.083,2.178 -2.567,2.721 -2.568,2.177 -2.568,2.721 -2.054,2.721 -1.542,3.266 -1.027,2.722 -1.027,3.809 -0.514,3.267 -0.513,3.81 0.513,4.354 0.514,2.178 v 2.177 l 1.541,3.811 1.026,2.177 0.515,1.632 2.568,3.267 2.568,3.266 2.568,2.721 3.596,2.177 1.54,1.09 2.054,1.088 3.596,1.633 4.623,1.632 4.109,1.09 4.622,1.087 4.623,0.546 5.136,0.544 h 5.137 7.19 l 6.677,-0.544 6.677,-1.089 6.164,-1.088 5.649,-1.634 5.65,-2.177 5.136,-2.178 5.136,-2.177 4.109,-2.721 4.109,-2.722 3.596,-2.721 3.595,-3.267 3.083,-2.722 2.568,-3.265 2.055,-3.267 1.541,-3.809 1.54,-2.721 0.514,-3.267 0.514,-2.722 v -3.265 -36.466 z" /><polygon
   style="clip-rule:evenodd;fill-rule:evenodd"
   id="polygon3818"
   points="1112.551,92.429 1116.146,88.62 1120.255,85.354 1124.364,81.545 1129.5,78.278 1134.636,75.013 1140.286,71.748 1145.936,69.027 1152.612,66.305 1159.289,64.127 1166.48,61.951 1174.185,60.318 1182.403,58.685 1190.62,57.597 1199.352,57.052 1208.083,57.052 1212.192,57.052 1216.301,57.052 1224.52,57.597 1233.251,58.685 1241.982,60.862 1251.228,63.04 1255.337,64.673 1259.959,66.305 1264.067,67.938 1268.176,70.115 1272.285,72.292 1276.395,74.469 1280.503,77.19 1284.098,79.912 1287.693,83.178 1291.289,86.443 1294.371,89.708 1297.452,93.519 1300.534,97.873 1303.103,102.227 1305.157,106.58 1307.212,111.479 1309.266,116.378 1310.806,121.82 1311.834,127.806 1312.86,133.794 1313.375,139.781 1313.375,146.312 1313.375,272.037 1259.444,272.037 1259.444,150.666 1259.444,144.68 1258.418,138.148 1257.39,132.706 1255.85,126.718 1253.795,121.276 1252.254,118.555 1251.228,116.378 1247.632,111.479 1244.036,106.58 1239.928,102.771 1234.791,98.96 1232.224,97.329 1229.142,95.695 1222.979,92.975 1215.788,90.797 1212.192,90.253 1208.083,89.708 1203.974,89.164 1199.866,88.62 1195.243,88.076 1190.62,88.076 1183.942,88.62 1177.78,89.164 1171.616,89.708 1165.453,91.341 1159.804,92.975 1154.667,95.151 1149.531,97.329 1144.396,99.505 1142.341,101.138 1140.286,102.771 1135.664,105.492 1132.068,108.757 1128.474,112.023 1124.878,115.833 1122.31,119.643 1119.742,123.453 1117.688,127.262 1116.146,131.072 1115.633,133.25 1115.12,135.971 1114.092,140.325 1114.092,145.224 1114.092,272.037 1059.649,272.037 1059.649,118.555 1059.649,102.771 1059.135,88.62 1059.135,81.545 1058.621,75.013 1058.108,67.938 1057.595,61.406 1105.36,61.406 1108.442,96.239 1109.982,96.239 "
   transform="translate(6,6.9760132)" /><path
   style="clip-rule:evenodd;fill-rule:evenodd"
   inkscape:connector-curvature="0"
   id="path3820"
   d="m 1602.377,228.94001 v 13.607 l 0.513,6.531 0.514,6.531 1.028,11.974 1.026,5.986 1.027,5.443 h -48.279 l -5.137,-26.124 h -2.054 l -3.083,2.721 -3.595,3.265 -4.108,2.722 -4.109,2.721 -4.623,2.723 -5.135,2.721 -5.138,2.722 -5.648,2.177 -6.164,2.178 -6.163,1.632 -6.678,1.633 -6.677,1.089 -7.19,1.088 -7.19,1.09 -7.705,0.544 h -7.703 -5.65 -5.136 l -10.273,-1.089 -5.135,-1.088 -4.623,-0.545 -8.731,-2.177 -8.218,-2.722 -4.108,-1.633 -3.596,-1.633 -3.596,-2.178 -3.081,-1.631 -3.082,-2.178 -3.082,-1.633 -2.568,-2.178 -2.567,-2.721 -2.567,-2.178 -2.055,-2.177 -4.109,-4.898 -1.541,-2.721 -1.541,-2.722 -2.568,-5.443 -1.026,-2.721 -1.027,-2.722 -0.515,-2.721 -0.513,-2.722 -0.514,-5.987 0.514,-4.897 0.513,-4.354 1.028,-4.354 1.026,-4.354 1.541,-4.354 2.055,-3.81 2.568,-3.811 2.567,-3.81 3.083,-3.81 3.595,-3.265 4.108,-3.266 4.109,-3.265 4.109,-2.721 5.136,-3.267 5.136,-2.722 5.65,-2.177 5.649,-2.721 6.163,-2.177 6.678,-2.177 6.677,-1.632 7.19,-2.178 7.704,-1.633 7.704,-1.088 8.219,-1.633 8.731,-1.089 8.731,-1.088 9.244,-0.544 9.245,-1.089 19.518,-0.544 21.058,-0.544 v -4.354 -7.076 l -1.026,-3.81 -1.028,-3.809 -1.026,-4.354 -2.055,-3.811 -2.567,-4.354 -1.542,-1.632 -1.54,-2.177 -4.108,-3.811 -4.622,-3.265 -2.57,-1.633 -2.567,-1.087997 -3.081,-1.634 -3.596,-1.088 -7.19,-2.177 -4.109,-1.089 -4.622,-0.544 -4.623,-0.544 -5.135,-0.545 h -5.138 -5.648 -10.273 l -5.649,0.545 -5.137,0.544 -10.271,1.088 -10.272,1.633 -9.759,2.177 -9.759,2.721997 -8.73,3.266 -8.219,3.265 -12.327,-25.580997 4.623,-1.633 5.137,-2.177 10.786,-3.266 11.813,-3.265 12.326,-2.722 12.841,-2.177 6.677,-1.089 6.677,-0.544 6.678,-0.544 7.19,-0.545 h 6.677 7.191 8.217 l 8.219,0.545 7.703,0.544 7.191,0.544 13.354,2.721 6.162,1.089 5.65,1.632 5.65,2.177 5.136,2.177 4.623,2.178 4.622,2.177 4.108,2.721 3.596,2.721 3.595,2.722 3.597,3.265 3.08,2.721 2.568,3.266 2.568,3.265997 2.568,3.81 3.595,7.075 2.055,3.809 1.028,3.267 1.54,3.81 1.027,4.354 1.54,7.619 0.515,7.62 0.514,8.165 v 78.921 z m -52.903,-57.148 h -11.299 -11.3 l -11.299,0.544 -10.786,0.545 -10.786,1.088 -10.786,1.633 -9.758,1.632 -9.246,2.722 -4.622,1.088 -4.109,1.633 -8.218,3.265 -3.595,1.633 -3.082,2.177 -3.081,2.178 -3.083,2.721 -2.567,2.177 -2.055,2.721 -2.055,2.721 -1.54,3.266 -1.541,2.722 -1.027,3.809 -0.515,3.267 v 3.81 4.354 l 0.515,2.178 0.514,2.177 1.026,3.811 1.028,2.177 1.026,1.632 2.055,3.267 2.568,3.266 3.082,2.721 3.081,2.177 2.055,1.09 1.541,1.088 4.108,1.633 4.109,1.632 4.622,1.09 4.622,1.087 4.624,0.546 4.622,0.544 h 5.137 7.189 l 7.19,-0.544 6.164,-1.089 6.677,-1.088 5.65,-1.634 5.649,-2.177 5.137,-2.178 4.622,-2.177 4.623,-2.721 4.109,-2.722 3.594,-2.721 3.082,-3.267 3.082,-2.722 2.567,-3.265 2.055,-3.267 2.055,-3.809 1.026,-2.721 1.028,-3.267 v -2.722 l 0.513,-3.265 v -36.466 z" /><polygon
   style="clip-rule:evenodd;fill-rule:evenodd"
   id="polygon3822"
   points="1720.158,97.873 1723.753,92.975 1727.349,88.076 1731.458,83.722 1735.565,79.912 1740.189,76.103 1745.325,72.292 1750.461,69.571 1756.111,66.305 1762.274,64.127 1767.924,61.951 1774.601,60.318 1780.765,58.685 1787.441,57.597 1794.119,57.052 1800.796,57.052 1808.499,57.052 1815.69,58.141 1815.69,94.063 1806.444,93.519 1796.687,92.975 1789.496,92.975 1782.819,94.063 1776.143,95.151 1769.979,96.784 1764.328,98.417 1758.679,101.138 1753.544,103.859 1748.406,106.58 1744.298,110.391 1740.189,113.655 1736.08,118.01 1732.998,122.364 1729.917,126.718 1728.889,128.896 1727.349,131.617 1725.294,136.515 1723.753,141.957 1722.727,145.768 1722.212,150.666 1722.212,155.02 1721.698,159.918 1721.698,272.037 1667.77,272.037 1668.282,127.262 1668.282,109.302 1667.77,92.429 1667.256,84.266 1667.256,76.646 1666.743,69.027 1665.715,61.406 1713.481,61.406 1715.535,102.771 1717.589,102.771 "
   transform="translate(6,6.9760132)" /><polygon
   style="clip-rule:evenodd;fill-rule:evenodd"
   id="polygon3824"
   points="2051.954,61.406 2109.479,61.406 2027.813,211.624 2013.946,237.204 2007.27,248.634 2000.593,259.519 1994.429,269.86 1988.265,279.112 1982.101,288.365 1975.938,296.528 1970.288,304.148 1964.125,311.224 1957.962,317.755 1951.799,323.742 1945.635,329.185 1938.958,334.627 1932.794,339.525 1925.604,343.88 1920.468,347.146 1915.846,349.867 1905.573,354.222 1896.328,358.574 1887.597,361.841 1878.865,364.018 1871.675,366.194 1864.998,367.283 1859.348,368.372 1845.48,336.26 1851.13,335.171 1856.78,333.539 1862.431,331.905 1868.593,329.729 1874.756,327.008 1880.92,324.286 1887.083,321.02 1893.246,317.211 1898.896,313.944 1904.545,310.136 1910.709,305.781 1916.358,300.339 1922.522,294.896 1928.173,288.365 1930.74,285.099 1933.822,281.834 1936.39,278.567 1938.444,274.759 1941.526,269.86 1942.554,267.683 1943.067,265.506 1942.554,263.872 1942.039,261.695 1940.499,258.975 1938.444,256.253 1829.045,61.406 1888.11,61.406 1952.825,186.043 1958.476,196.929 1963.611,208.358 1972.343,229.039 1973.884,229.039 1977.992,219.243 1982.616,208.358 1987.752,196.929 1992.888,184.955 "
   transform="translate(6,6.9760132)" /><polygon
   style="clip-rule:evenodd;fill-rule:evenodd"
   id="polygon3826"
   points="2082.257,101.682 2081.229,103.859 2082.257,101.682 2080.717,103.859 "
   transform="translate(6,6.9760132)" /><path
   style="clip-rule:evenodd;fill-rule:evenodd"
   inkscape:connector-curvature="0"
   id="path3828"
   d="m 596.204,318.74501 9.759,-1.089 h 10.786 5.136 4.623 l 4.109,0.544 4.109,1.089 3.594,0.544 3.083,1.088 3.081,1.633 2.568,1.634 2.569,1.633 2.053,1.632 2.055,2.178 1.541,2.177 1.028,2.722 1.026,2.721 0.514,2.723 v 3.265 2.722 l -0.514,3.265 -1.026,2.723 -1.028,2.721 -1.541,2.722 -2.055,2.177 -2.053,2.178 -2.569,1.632 -3.082,1.633 -3.081,1.633 -3.596,1.634 -4.109,1.088 -4.109,0.544 -4.623,0.544 -5.136,0.545 h -5.65 -9.245 l -8.218,-0.545 v -51.71 z m 9.759,46.805 h 4.623 5.136 3.596 l 3.596,-0.544 6.677,-1.088 5.136,-1.633 2.568,-1.088 2.054,-1.634 2.055,-1.089 1.541,-1.632 1.54,-2.178 1.028,-2.177 1.026,-1.633 0.514,-2.722 0.514,-2.177 v -2.722 -2.177 l -0.514,-2.178 -0.514,-2.177 -0.513,-2.177 -1.028,-1.632 -1.54,-1.634 -1.541,-1.633 -1.542,-1.088 -4.623,-2.722 -2.568,-0.545 -2.568,-1.088 -6.164,-1.089 h -3.594 -3.596 -6.677 l -4.623,0.545 v 41.912 z" /><path
   style="clip-rule:evenodd;fill-rule:evenodd"
   inkscape:connector-curvature="0"
   id="path3830"
   d="m 696.359,354.12201 -7.705,16.327 h -10.273 l 25.682,-52.793 h 11.299 l 25.681,52.793 h -10.272 l -8.218,-16.327 z m 24.14,-5.444 -7.19,-15.238 -2.054,-4.898 -1.54,-4.898 H 709.2 l -1.54,4.898 -2.055,4.898 -7.191,15.238 z" /><polygon
   style="clip-rule:evenodd;fill-rule:evenodd"
   id="polygon3832"
   points="742.748,310.68 797.705,310.68 797.705,316.667 775.106,316.667 775.106,363.473 765.347,363.473 765.347,316.667 742.748,316.667 "
   transform="translate(6,6.9760132)" /><path
   style="clip-rule:evenodd;fill-rule:evenodd"
   inkscape:connector-curvature="0"
   id="path3834"
   d="m 829.899,354.12201 -7.705,16.327 h -10.272 l 25.681,-52.793 h 11.813 l 25.168,52.793 h -10.272 l -7.704,-16.327 z m 24.654,-5.444 -7.705,-15.238 -2.055,-4.898 -1.54,-4.898 h -0.514 l -1.54,4.898 -2.055,4.898 -7.191,15.238 z" /><polygon
   style="clip-rule:evenodd;fill-rule:evenodd"
   id="polygon3836"
   points="961.548,353.676 962.062,352.588 962.062,351.499 962.575,349.867 962.575,348.233 961.548,346.601 961.034,344.969 959.494,343.88 957.439,342.791 954.871,341.702 948.708,339.525 944.086,337.894 940.49,336.804 936.894,335.171 933.813,333.539 932.786,332.45 931.758,331.362 930.217,329.185 929.19,327.008 928.677,324.286 928.677,322.653 929.19,321.565 929.704,319.932 930.731,318.844 932.786,316.122 933.813,315.034 935.354,313.944 938.949,312.313 941.003,311.769 943.058,311.224 945.112,310.68 947.68,310.136 952.817,310.136 958.466,310.136 962.575,310.68 966.685,311.769 969.252,312.313 966.685,318.299 964.63,317.211 961.548,316.667 957.439,316.122 952.817,315.577 949.222,315.577 946.14,316.122 943.571,317.211 941.517,318.299 940.49,319.388 939.463,321.02 938.949,322.109 938.436,323.742 938.949,325.374 939.463,327.008 939.977,327.552 940.49,328.096 942.031,329.185 944.086,330.817 946.653,331.905 953.331,333.539 957.953,335.171 961.548,336.804 965.144,337.894 967.711,340.07 968.739,340.614 969.766,341.702 971.307,343.88 971.82,346.601 972.334,347.689 972.334,349.321 971.82,352.044 970.794,355.31 969.766,356.397 968.739,357.486 966.171,360.208 962.062,361.841 957.953,363.473 952.303,364.018 949.222,364.562 946.14,364.562 941.003,364.018 935.354,363.473 930.731,362.385 928.677,361.841 927.136,361.297 929.704,355.31 933.3,356.942 937.409,358.03 942.031,358.574 947.167,358.574 950.248,358.574 953.331,358.03 956.412,357.486 958.466,356.397 960.008,354.766 "
   transform="translate(6,6.9760132)" /><path
   style="clip-rule:evenodd;fill-rule:evenodd"
   inkscape:connector-curvature="0"
   id="path3838"
   d="m 1034.832,371.53801 h -3.596 l -3.596,-0.544 -3.595,-0.545 -3.083,-1.088 -3.082,-1.088 -2.567,-1.089 -2.568,-1.634 -2.054,-1.632 -2.568,-1.633 -1.542,-2.178 -1.541,-2.177 -1.54,-2.178 -1.028,-2.721 -0.514,-2.722 -0.513,-2.721 -0.514,-2.721 0.514,-3.267 0.513,-2.722 0.514,-2.721 1.028,-2.721 1.54,-2.722 1.541,-2.177 2.055,-2.178 2.055,-1.633 2.568,-2.178 2.568,-1.087 3.083,-1.634 3.081,-1.088 3.081,-0.545 3.596,-0.544 3.596,-0.544 h 3.594 3.596 l 3.595,0.544 3.596,0.544 3.082,0.545 3.083,1.088 2.567,1.634 2.568,1.087 2.568,1.634 2.054,2.177 1.542,2.178 1.541,2.177 1.541,2.178 1.027,2.721 0.514,2.177 0.513,3.266 v 2.721 3.267 l -0.513,3.265 -1.028,2.722 -1.026,2.721 -1.541,2.178 -1.54,2.721 -2.055,1.634 -2.055,2.177 -2.568,1.633 -2.569,1.632 -3.082,1.09 -3.081,1.088 -3.083,0.544 -3.595,0.545 -3.082,0.544 z m 0.513,-5.443 h 2.568 l 2.568,-0.545 2.568,-0.544 2.055,-0.544 2.568,-1.089 1.542,-1.088 2.054,-1.634 1.542,-1.088 1.54,-1.633 1.027,-1.634 2.055,-3.809 1.027,-4.354 0.515,-2.177 v -2.178 -3.809 l -0.515,-1.633 -1.027,-2.178 -1.541,-3.811 -1.027,-1.632 -1.541,-1.633 -1.542,-1.09 -2.054,-1.632 -4.108,-2.177 -2.055,-0.544 -2.569,-0.545 -2.567,-0.545 h -3.082 -3.081 l -2.569,0.545 -2.568,0.545 -2.568,0.544 -2.054,1.088 -2.055,1.089 -1.54,1.632 -1.542,1.09 -1.541,1.633 -1.027,1.632 -2.055,3.811 -0.513,2.178 -0.514,2.177 -0.514,3.809 0.514,4.354 0.514,2.178 0.513,1.633 2.055,3.809 2.568,3.267 3.595,2.722 2.055,1.088 2.054,0.545 4.623,1.632 2.569,0.545 h 2.568 z" /><polygon
   style="clip-rule:evenodd;fill-rule:evenodd"
   id="polygon3840"
   points="1131.555,363.473 1089.438,363.473 1089.438,310.68 1099.196,310.68 1099.196,358.03 1131.555,358.03 "
   transform="translate(6,6.9760132)" /><polygon
   style="clip-rule:evenodd;fill-rule:evenodd"
   id="polygon3842"
   points="1170.589,357.486 1172.13,358.03 1175.726,358.574 1179.32,359.119 1182.916,358.574 1186.512,358.03 1188.052,357.486 1189.593,356.942 1192.161,354.766 1193.702,353.676 1194.729,352.588 1195.243,350.955 1196.271,349.867 1196.783,346.057 1197.297,344.423 1197.297,342.246 1197.297,310.68 1207.056,310.68 1207.056,341.702 1207.056,344.423 1206.543,347.146 1206.028,349.867 1205.002,352.044 1203.974,354.222 1202.434,355.854 1200.893,357.486 1198.838,359.119 1197.297,360.751 1194.729,361.841 1192.675,362.385 1190.106,363.473 1187.538,364.018 1184.457,364.018 1181.89,364.562 1178.807,364.562 1173.158,364.018 1170.589,364.018 1168.021,363.473 1165.967,362.385 1163.398,361.841 1161.345,360.751 1159.804,359.663 1157.749,358.03 1156.208,356.397 1155.182,354.222 1154.153,352.588 1153.127,350.411 1152.612,347.689 1152.1,344.969 1152.1,341.702 1152.1,310.68 1161.858,310.68 1161.858,342.246 1161.858,344.423 1161.858,346.057 1162.372,348.233 1162.886,349.867 1163.912,351.499 1164.427,352.588 1166.481,354.766 1169.049,356.942 "
   transform="translate(6,6.9760132)" /><polygon
   style="clip-rule:evenodd;fill-rule:evenodd"
   id="polygon3844"
   points="1229.142,310.68 1284.612,310.68 1284.612,316.667 1261.499,316.667 1261.499,363.473 1251.741,363.473 1251.741,316.667 1229.142,316.667 "
   transform="translate(6,6.9760132)" /><polygon
   style="clip-rule:evenodd;fill-rule:evenodd"
   id="polygon3846"
   points="1306.698,363.473 1306.698,310.68 1316.456,310.68 1316.456,363.473 "
   transform="translate(6,6.9760132)" /><path
   style="clip-rule:evenodd;fill-rule:evenodd"
   inkscape:connector-curvature="0"
   id="path3848"
   d="m 1382.036,371.53801 h -3.596 l -3.082,-0.544 -3.596,-0.545 -3.081,-1.088 -3.082,-1.088 -2.568,-1.089 -2.567,-1.634 -2.568,-1.632 -2.055,-1.633 -1.541,-2.178 -2.055,-2.177 -1.026,-2.178 -1.026,-2.721 -1.028,-2.722 -0.513,-2.721 v -2.721 -3.267 l 0.513,-2.722 1.028,-2.721 1.026,-2.721 1.541,-2.722 1.54,-2.177 2.055,-2.178 2.055,-1.633 2.567,-2.178 2.569,-1.087 3.081,-1.634 3.081,-1.088 3.083,-0.545 3.081,-0.544 3.596,-0.544 h 3.595 4.109 l 3.596,0.544 3.081,0.544 3.596,0.545 2.568,1.088 3.081,1.634 2.567,1.087 2.055,1.634 2.055,2.177 2.055,2.178 1.541,2.177 1.026,2.178 1.028,2.721 1.026,2.177 0.515,3.266 v 2.721 3.267 l -0.515,3.265 -1.026,2.722 -1.028,2.721 -1.54,2.178 -1.541,2.721 -2.055,1.634 -2.567,2.177 -2.568,1.633 -2.567,1.632 -2.569,1.09 -3.081,1.088 -3.082,0.544 -3.596,0.545 -3.081,0.544 h -3.596 z m 0.513,-5.443 h 3.081 l 2.569,-0.545 2.568,-0.544 2.054,-0.544 2.055,-1.089 2.055,-1.088 2.054,-1.634 1.541,-1.088 1.541,-1.633 1.027,-1.634 2.055,-3.809 1.027,-4.354 0.514,-2.177 v -2.178 l -0.514,-3.809 -0.515,-1.633 -0.513,-2.178 -1.54,-3.811 -1.542,-1.632 -1.027,-1.633 -2.055,-1.09 -1.54,-1.632 -4.109,-2.177 -2.567,-0.544 -2.055,-0.545 -3.083,-0.545 h -2.567 -3.081 l -2.568,0.545 -2.568,0.545 -2.568,0.544 -2.054,1.088 -2.055,1.089 -1.541,1.632 -2.055,1.09 -1.026,1.633 -1.541,1.632 -1.541,3.811 -1.026,2.178 -0.515,2.177 v 3.809 4.354 l 0.515,2.178 1.026,1.633 2.055,3.809 2.567,3.267 3.082,2.722 2.055,1.088 2.054,0.545 5.137,1.632 2.568,0.545 z" /><polygon
   style="clip-rule:evenodd;fill-rule:evenodd"
   id="polygon3850"
   points="1484.409,310.68 1493.654,310.68 1493.654,363.473 1483.895,363.473 1460.269,336.804 1452.564,328.096 1448.97,323.742 1446.4,319.388 1445.887,319.388 1446.4,329.185 1446.4,341.158 1446.4,363.473 1437.67,363.473 1437.67,310.68 1447.941,310.68 1472.082,337.348 1479.272,346.601 1482.354,350.411 1485.436,354.766 1484.923,349.321 1484.923,344.423 1484.409,332.995 "
   transform="translate(6,6.9760132)" /><polygon
   style="clip-rule:evenodd;fill-rule:evenodd"
   id="polygon3852"
   points="1554.773,353.676 1555.287,352.588 1555.802,351.499 1555.802,349.867 1555.802,348.233 1555.287,346.601 1554.261,344.969 1552.719,343.88 1550.664,342.791 1548.097,341.702 1541.933,339.525 1537.311,337.894 1533.716,336.804 1530.12,335.171 1527.552,333.539 1526.011,332.45 1524.984,331.362 1523.443,329.185 1522.417,327.008 1521.902,324.286 1522.417,322.653 1522.417,321.565 1522.93,319.932 1523.957,318.844 1526.011,316.122 1527.039,315.034 1528.579,313.944 1532.175,312.313 1534.229,311.769 1536.284,311.224 1538.852,310.68 1540.906,310.136 1546.042,310.136 1551.692,310.136 1556.314,310.68 1559.91,311.769 1562.479,312.313 1559.91,318.299 1557.855,317.211 1554.773,316.667 1550.664,316.122 1546.042,315.577 1542.447,315.577 1539.364,316.122 1536.797,317.211 1535.256,318.299 1533.716,319.388 1532.688,321.02 1532.175,322.109 1531.661,323.742 1532.175,325.374 1532.688,327.008 1533.201,327.552 1533.716,328.096 1535.256,329.185 1537.311,330.817 1539.878,331.905 1546.556,333.539 1551.179,335.171 1554.773,336.804 1558.369,337.894 1560.938,340.07 1561.964,340.614 1562.991,341.702 1564.533,343.88 1565.56,346.601 1565.56,347.689 1565.56,349.321 1565.046,352.044 1564.019,355.31 1562.991,356.397 1561.964,357.486 1559.396,360.208 1555.802,361.841 1551.179,363.473 1545.528,364.018 1542.961,364.562 1539.364,364.562 1534.229,364.018 1529.094,363.473 1523.957,362.385 1522.417,361.841 1520.362,361.297 1522.93,355.31 1526.524,356.942 1530.634,358.03 1535.256,358.574 1540.393,358.574 1543.987,358.574 1547.069,358.03 1549.638,357.486 1551.692,356.397 1553.747,354.766 "
   transform="translate(6,6.9760132)" /><polygon
   style="clip-rule:evenodd;fill-rule:evenodd"
   id="polygon3854"
   points="1671.878,363.473 1630.275,363.473 1630.275,310.68 1640.034,310.68 1640.034,358.03 1671.878,358.03 "
   transform="translate(6,6.9760132)" /><polygon
   style="clip-rule:evenodd;fill-rule:evenodd"
   id="polygon3856"
   points="1678.042,310.68 1732.998,310.68 1732.998,316.667 1710.399,316.667 1710.399,363.473 1700.641,363.473 1700.641,316.667 1678.042,316.667 "
   transform="translate(6,6.9760132)" /><path
   style="clip-rule:evenodd;fill-rule:evenodd"
   inkscape:connector-curvature="0"
   id="path3858"
   d="m 1761.597,318.74501 9.246,-1.089 h 11.3 5.136 4.622 l 4.109,0.544 4.109,1.089 3.595,0.544 3.082,1.088 3.081,1.633 2.567,1.634 2.055,1.633 2.568,1.632 1.541,2.178 1.541,2.177 1.027,2.722 1.027,2.721 0.514,2.723 v 3.265 2.722 l -0.514,3.265 -1.027,2.723 -1.027,2.721 -1.541,2.722 -2.055,2.177 -2.055,2.178 -2.055,1.632 -3.081,1.633 -3.081,1.633 -4.109,1.634 -3.596,1.088 -4.622,0.544 -4.622,0.544 -5.137,0.545 h -5.137 -9.758 l -7.705,-0.545 v -51.71 z m 9.759,46.805 h 4.109 5.648 3.596 l 3.595,-0.544 6.164,-1.088 5.65,-1.633 2.567,-1.088 2.055,-1.634 1.541,-1.089 2.055,-1.632 1.026,-2.178 1.542,-2.177 0.513,-1.633 1.026,-2.722 v -2.177 l 0.516,-2.722 -0.516,-2.177 v -2.178 l -0.513,-2.177 -1.026,-2.177 -1.028,-1.632 -1.026,-1.634 -1.541,-1.633 -2.055,-1.088 -4.109,-2.722 -2.568,-0.545 -2.567,-1.088 -6.164,-1.089 h -3.595 -3.596 -6.677 l -4.622,0.545 z" />
</svg>