<svg width="353" height="352" viewBox="0 0 353 352" fill="none" xmlns="http://www.w3.org/2000/svg">
<path d="M0 175.375C1.30764 174.207 2.8365 173.636 3.89034 172.588C26.0845 150.512 48.2251 128.383 70.5222 106.118C105.809 141.412 141.079 176.691 176.441 212.061C211.944 176.113 247.222 140.392 282.71 104.458C284.447 106.094 285.781 107.29 287.046 108.554C307.544 129.034 328.03 149.526 348.533 170.001C349.82 171.287 351.222 172.458 352.785 173.342C353 174.067 353 175.133 352.785 176.259C351.223 177.541 349.817 178.707 348.537 179.997C312.822 216.008 277.15 252.061 241.404 288.042C221.463 308.114 201.392 328.058 181.431 348.11C180.379 349.166 179.799 350.693 179 352C177.611 352 176.222 352 174.765 351.792C174.182 350.94 173.723 350.238 173.143 349.658C116.392 292.879 59.6346 236.106 2.84023 179.37C2.13809 178.668 0.957343 178.446 0 178C1e-06 177.25 1e-06 176.5 0 175.375ZM322.472 171.98C309.343 158.859 296.213 145.738 283.53 133.062C252.216 164.377 221.418 195.175 191.467 225.127C205.395 239.06 219.59 253.26 233.513 267.188C263.881 236.811 294.692 205.991 325.832 174.841C325.027 174.172 324 173.318 322.472 171.98ZM32.5152 171.989C30.8421 173.278 29.1689 174.566 28.0412 175.434C59.2933 206.691 89.7612 237.163 119.923 267.329C133.87 253.393 148.082 239.191 162.519 224.765C132.186 194.908 101.37 164.575 70.3799 134.071C57.9255 146.541 45.4669 159.015 32.5152 171.989ZM204.499 295.999C209.371 291.262 214.242 286.525 218.682 282.208C204.22 267.755 190.133 253.678 176.896 240.45C162.947 254.394 148.745 268.592 135.328 282.005C148.844 295.524 162.805 309.489 176.915 323.604C185.644 314.868 194.822 305.684 204.499 295.999Z" fill="#21CE99"/>
<path d="M177.6 4.30039e-09C178.095 0.602804 177.969 1.4258 178.318 1.77655C190.291 13.8168 202.221 25.9025 214.347 37.7875C225.135 48.3602 236.147 58.7035 246.932 69.0251C223.199 92.7646 199.786 116.185 176.483 139.494C153.239 116.243 129.828 92.8246 106.237 69.2261C127.486 47.9905 148.903 26.594 170.304 5.18108C171.825 3.65897 173.226 2.01629 174.341 0.214835C175.067 -9.53674e-07 176.133 -9.957e-07 177.6 4.30039e-09ZM145 81.5001C155.301 91.8006 165.602 102.101 175.801 112.3C190.465 97.6475 204.593 83.5307 218.411 69.7239C204.367 55.6862 190.268 41.592 176.938 28.2671C162.927 42.2735 148.72 56.4768 134.093 71.1007C137.277 74.1296 140.888 77.5648 145 81.5001Z" fill="#21CE99"/>
</svg>
