<svg width="566" height="167" viewBox="0 0 566 167" fill="none" xmlns="http://www.w3.org/2000/svg">
<path d="M474.469 167C472.205 165.374 470.345 163.813 468.627 162.11C464.374 157.893 463.899 153.849 466.908 148.432C469.726 143.36 472.451 142.336 478.768 143.899C479.564 144.096 480.456 143.905 481.249 144.108C489.797 146.301 495.283 145.735 493.946 134.261C492.736 123.883 491.066 113.559 489.612 103.21C488.067 92.2171 486.477 81.2297 485.045 70.2219C484.724 67.757 484.905 65.2148 484.986 62.7123C485.151 57.5694 488.721 55.1601 492.976 54.1063C498.355 52.7742 504.236 52.8929 507.295 58.1713C509.292 61.6179 509.508 66.2579 509.935 70.4234C511.125 82.0196 511.971 93.6508 513.069 105.257C513.192 106.556 514.063 107.785 514.9 109.798C522.214 97.0915 529.092 85.1531 535.959 73.2076C538.471 68.8358 540.708 64.282 543.504 60.1013C548.837 52.128 559.56 51.5234 565.754 57.3443C566 61.0244 566 65.049 565.633 69.5463C562.424 74.2689 559.468 78.4465 556.762 82.7808C544.475 102.463 532.341 122.242 519.981 141.879C513.792 151.711 507.366 161.442 495.386 165.289C495.104 165.38 495.122 166.409 495 167C488.312 167 481.625 167 474.469 167Z" fill="#FF5200"/>
<path d="M59.5352 0C62.391 1.87343 64.5766 4.12494 67.2084 5.55536C79.1052 12.0213 91.1358 18.2404 103.103 24.5778C110.07 28.2677 112.157 34.5712 107.838 40.8528C106.427 42.9051 103.13 44.8038 100.679 44.825C69.8616 45.0909 39.0399 45.0917 8.22205 44.8271C5.71713 44.8055 3.23316 42.3436 0.369672 41.0078C-0.00011155 36.9755 -0.00011152 32.9509 0.371233 28.4553C4.98827 24.8407 9.64855 23.7408 15.0045 23.8959C26.6548 24.2332 38.3217 24.011 49.9817 23.9845C51.3013 23.9815 52.6204 23.7663 53.9397 23.6495C53.061 22.1339 52.1361 21.5365 51.1609 21.0374C41.8604 16.2773 40.4169 11.2057 45.7812 2.38852C46.1544 1.77505 45.9407 0.804497 45.9999 0C50.3568 0 54.7137 0 59.5352 0Z" fill="#FF5200"/>
<path d="M205.044 100.293C207.06 93.1851 208.126 86.0697 211.186 79.9511C223.715 54.8961 254.296 45.489 278.161 58.6675C288.986 64.6451 294.583 74.5456 295.849 86.3924C297.618 102.94 292.681 117.427 280.364 129.196C263.708 145.11 236.833 148.162 218.107 133.372C211.015 127.771 207.127 119.68 206.011 110.527C205.614 107.274 205.341 104.005 205.044 100.293ZM230.988 95.7144C226.785 108.687 235.471 122.579 249.84 120.994C261.489 119.709 273.059 103.674 271.401 90.3824C269.647 76.3284 254.312 70.5922 243.068 78.0142C236.935 82.0624 233.375 88.0557 230.988 95.7144Z" fill="#FF5200"/>
<path d="M128.677 121.999C132.335 120.897 135.57 119.865 138.747 118.676C143.096 117.048 147.659 115.341 151.802 118.398C158.733 123.513 156.757 131.678 150.928 135.396C135.988 144.924 112.673 146.282 97.5439 135.661C89.0117 129.671 84.9333 120.828 83.8242 110.132C82.38 96.2033 85.9629 84.0078 94.0531 73.0284C103.287 60.4964 115.865 53.817 131.49 52.9897C139.146 52.5843 146.682 53.1768 153.373 57.1877C162.785 62.8295 168.385 71.0958 168.975 82.3044C169.14 85.4604 169.265 88.6591 168.953 91.7927C167.762 103.731 164.03 106.71 153.905 106.921C138.754 107.237 123.592 107.023 108.435 107.046C108.111 107.046 107.788 107.181 107.465 107.255C109.295 118.237 114.596 122.001 128.677 121.999ZM130.493 90.0001C134.325 89.9996 138.167 89.8346 141.987 90.0517C144.935 90.2192 145.7 88.5027 145.97 86.2188C146.568 81.1512 142.354 74.911 137.293 74.1128C133.867 73.5725 130.237 73.6296 126.787 74.0897C120.035 74.9903 111.666 83.3354 110.483 90.0001C116.843 90.0001 123.169 90.0001 130.493 90.0001Z" fill="#FF5200"/>
<path d="M355.573 76.0081C347.652 73.538 340.948 74.9583 335.173 80.3424C327.507 87.4903 323.369 95.8349 324.817 106.806C326.763 121.546 341.845 124.436 353.086 117.497C355.633 115.924 358.578 114.65 361.501 114.114C366.103 113.271 369.43 115.595 371.326 119.834C373.194 124.01 372.187 129.696 368.906 132.55C352.257 147.032 323.105 146.659 308.494 129.833C303.084 123.603 300.225 116.098 299.864 107.467C299.351 95.2521 301.653 84.1289 308.951 74.1335C320.568 58.2237 339.454 50.1158 359.687 53.7761C367.641 55.215 374.163 58.5589 379.694 64.2006C385.008 69.6213 385.371 77.278 380.288 82.0931C376.371 85.804 366.666 86.8907 362.487 81.1602C360.922 79.0136 358.184 77.7219 355.573 76.0081Z" fill="#FF5200"/>
<path d="M79.7375 81.7741C67.3802 99.7936 55.4073 117.64 43.1072 135.257C38.6859 141.59 29.8014 144.488 22.7411 141.612C19.9238 140.465 16.8469 136.882 16.2366 133.923C13.6724 121.493 11.8653 108.898 10.0357 96.3261C8.50659 85.8196 7.0448 75.287 6.1073 64.7169C5.54316 58.3563 11.0716 53.3536 17.8327 53.1074C25.0234 52.8455 30.5025 57.9175 31.073 64.512C32.1311 76.7415 33.6571 88.9302 34.915 101.143C35.1182 103.116 34.9436 105.128 34.9436 108.748C37.1901 106.313 38.8232 104.994 39.8896 103.316C48.9611 89.0364 58.0037 74.7378 66.8971 60.3474C71.2958 53.2299 78.4989 52.4074 85.0193 54.5735C88.7729 55.8204 91.4656 61.7229 89.5114 65.7493C86.8427 71.2477 83.2114 76.2789 79.7375 81.7741Z" fill="#FF5200"/>
<path d="M425.268 57.246C428.996 55.6908 432.443 54.4096 436.539 52.8871C438.068 48.7701 439.604 43.4828 441.955 38.5871C445.08 32.0809 451.609 29.981 458.232 32.7083C463.354 34.8181 465.462 40.2503 463.819 47.3102C463.345 49.3482 462.674 51.3404 462.078 53.407C465.874 53.9863 469.625 54.2197 473.175 55.1898C477.223 56.2958 480.572 62.136 479.941 66.0318C478.973 72.0118 475.027 75.7871 469.69 76.0174C465.155 76.2131 459.503 75.0358 456.426 77.297C453.596 79.3763 453.437 85.2028 452.284 89.4282C450.19 97.1011 448.192 104.801 446.23 112.509C445.092 116.978 447.286 119.773 451.951 119.999C458.299 120.306 461.268 122.241 461.978 126.534C463.123 133.461 461.202 138.065 455.392 140.055C446.494 143.104 437.325 143.551 428.538 139.73C420.86 136.391 417.091 128.078 419.206 119.7C422.463 106.802 425.996 93.9738 429.448 81.1254C430.106 78.6774 430.84 76.5991 427.772 74.8665C421.02 71.0536 420.008 63.8916 425.268 57.246Z" fill="#FF5200"/>
<path d="M198.31 94.32C195.051 106.291 192.061 117.92 188.967 129.521C185.699 141.771 175.31 144.094 169.028 140.569C165.026 138.323 162.66 132.433 164.17 126.767C170.183 104.197 176.316 81.6588 182.449 59.121C184.874 50.2086 187.237 41.2728 189.959 32.4497C192.141 25.3761 195.781 23.5098 202.925 22.867C211.128 22.1287 215.534 29.523 213.537 37.0172C208.482 55.9858 203.528 74.9815 198.31 94.32Z" fill="#FF5200"/>
<path d="M413.266 81.415C409.676 94.9861 406.44 108.229 402.8 121.359C401.346 126.603 399.416 131.812 396.938 136.644C394.643 141.12 389.991 142.307 385.225 141.932C381.516 141.64 377.711 140.347 376.92 136.279C376.196 132.55 375.915 128.385 376.811 124.75C381.659 105.068 386.93 85.4901 392.063 65.8787C394.022 58.3973 400.983 52.5319 406.84 53.4028C415.359 54.6693 418.956 60.3415 416.786 69.3612C415.839 73.2939 414.576 77.1504 413.266 81.415Z" fill="#FF5200"/>
<path d="M419.042 45.4583C416.016 46.1504 413.292 46.8921 410.555 46.942C401.478 47.1074 396.937 40.599 399.944 32.0073C402.224 25.4937 407.24 22.8672 417.146 23.0001C422.27 23.0689 425.622 25.6187 427.214 30.5908C428.672 35.1461 425.71 41.9915 419.042 45.4583Z" fill="#FF5200"/>
</svg>
