<svg width="2552" height="618" viewBox="0 0 2552 618" fill="none" xmlns="http://www.w3.org/2000/svg">
<path d="M992.232 281.34C983.115 252.787 958.54 235.08 931.126 235.08C881.419 235.08 856.287 277.336 856.287 322.457C856.287 367.634 878.554 409.89 927.096 409.89C968.795 409.89 986.533 380.172 997.405 353.901L1056.82 385.315C1037.38 427.601 1004.24 473.861 925.953 473.861C837.437 473.861 783.174 408.751 783.174 322.457C783.174 236.219 837.437 171.083 931.126 171.083C1001.38 171.083 1035.66 209.918 1053.36 253.344L992.232 281.34ZM1367.03 322.465C1367.03 408.729 1312.73 473.869 1219.07 473.869C1125.36 473.869 1071.09 408.729 1071.09 322.465C1071.09 236.201 1125.36 171.061 1219.07 171.061C1312.73 171.061 1367.03 236.201 1367.03 322.465ZM1144.21 322.465C1144.21 367.616 1169.37 409.898 1219.07 409.898C1268.75 409.898 1293.92 367.616 1293.92 322.465C1293.92 277.344 1268.75 235.058 1219.07 235.058C1169.37 235.058 1144.21 277.344 1144.21 322.465ZM1656.69 418.462C1656.69 448.154 1663.56 460.718 1667.53 467.03H1593.83C1589.27 460.162 1586.99 448.154 1586.99 440.759C1560.14 462.444 1528.72 473.868 1492.75 473.868C1437.87 473.868 1394.45 439.034 1394.45 383.044C1394.45 326.469 1439.59 301.337 1482.44 292.746L1511.57 287.047C1536.73 281.904 1569.28 276.205 1586.99 269.923V261.359C1586.99 232.78 1562.42 224.772 1532.14 224.772C1491.55 224.772 1478.43 236.784 1478.43 268.197L1408.74 265.336C1408.74 197.362 1468.73 171.061 1532.14 171.061C1594.42 171.061 1656.69 183.659 1656.69 265.919V418.462ZM1586.99 322.465C1577.85 327.055 1566.42 330.472 1553.82 332.751L1515.55 340.758C1489.3 345.901 1467.59 353.326 1467.59 380.736C1467.59 402.477 1487.58 416.736 1512.74 416.736C1545.26 416.736 1586.99 400.755 1586.99 363.612V322.465ZM1865.21 228.204V177.91H1802.94V80.834L1733.21 119.03V177.91H1690.93V228.204H1733.21V400.736C1733.21 444.714 1752.64 470.462 1809.8 470.462C1831.49 470.462 1848.64 467.011 1865.21 463.594V406.461C1854.89 407.604 1844.05 409.882 1834.35 409.882C1807.5 409.882 1802.94 397.315 1802.94 374.465V228.204H1865.21ZM2118.62 368.736C2111.78 378.439 2090.07 409.883 2035.22 409.883C1997.52 409.883 1961.52 381.887 1960.38 339.044H2174.03C2174.03 235.626 2131.77 171.072 2035.22 171.072C1941.53 171.072 1887.23 236.212 1887.23 322.476C1887.23 408.744 1941.53 473.85 2035.22 473.85C2110.47 473.85 2151.85 439.514 2174.35 407.575L2118.62 368.736ZM2035.22 228.205C2082.06 228.205 2100.91 269.934 2100.91 285.333H1960.38C1967.8 254.475 1994.66 228.205 2035.22 228.205ZM2449.02 329.75C2431.05 306.575 2397.79 297.401 2365.47 291.263C2351.71 288.05 2339.26 286.677 2326.75 284.164C2326.26 284.103 2325.79 284.103 2325.29 284.016C2300.31 279.808 2295.46 277.239 2290.52 274.344C2282.31 269.783 2277.51 262.741 2278.62 254.824C2280.32 242.343 2295.92 232.118 2314.6 230.392L2314.57 230.305C2320.47 229.632 2331.37 228.057 2346.89 230.979C2385.93 236.882 2401.53 262.741 2407.2 271.07L2460.74 231.97C2458.98 229.401 2457.06 226.797 2455.07 224.228C2434.38 197.487 2399.93 171.217 2342.85 167.621C2342.59 167.595 2342.27 167.565 2341.98 167.534C2338.68 167.33 2335.23 167.273 2331.78 167.243C2330.96 167.243 2330.2 167.156 2329.38 167.156C2329.27 167.156 2329.18 167.182 2329.09 167.182C2328.92 167.182 2328.77 167.156 2328.59 167.156C2283.77 167.156 2241.01 183.024 2220.29 216.981C2212.05 230.453 2207.2 246.669 2207.2 266.014C2207.2 283.782 2212.03 297.401 2220 308.009C2230.02 321.451 2245.25 330.015 2262.26 336.062C2272.43 339.249 2297.71 345.152 2337.74 352.604C2378.77 360.229 2386.75 371.567 2387.04 380.979C2387.07 381.096 2387.07 381.24 2387.07 381.387V381.648C2387.07 382.496 2387.04 383.317 2386.92 384.161C2385.14 396.933 2368.6 407.424 2348.84 409.179L2348.88 409.293C2342.59 409.967 2331.08 411.575 2314.65 408.563C2273.3 402.546 2254.25 378.375 2248.23 369.845L2194.05 407.571C2195.98 410.273 2197.98 412.914 2200.07 415.492C2221.99 442.841 2258.46 469.729 2318.89 473.411C2319.18 473.437 2319.5 473.468 2319.8 473.498C2323.33 473.702 2326.96 473.759 2330.61 473.789C2331.52 473.789 2332.3 473.876 2333.18 473.876C2333.27 473.876 2333.35 473.846 2333.47 473.846C2333.65 473.846 2333.83 473.876 2334 473.876C2381.49 473.876 2426.75 457.657 2448.7 422.913C2457.41 409.119 2462.55 392.521 2462.55 372.736C2462.55 354.56 2457.44 340.622 2449.02 329.75Z" fill="black"/>
<path d="M329.802 0V82.294H536.223V287.952H618.544V0H329.802Z" fill="#EE3035"/>
<path d="M0 329.145V617.214H288.595V534.893H82.29V329.145H0Z" fill="#75BB43"/>
<path d="M0 0.00292969V288.041H82.29V82.2929H288.595V0.00292969H0Z" fill="#00A2DE"/>
<path d="M536.212 329.028V534.893H329.866V617.213H618.533V329.028H536.212Z" fill="#FEC325"/>
<path d="M2513.75 398.158C2520.03 398.158 2526.17 399.766 2532.16 403.01C2538.15 406.222 2542.82 410.839 2546.16 416.86C2549.52 422.881 2551.19 429.133 2551.19 435.649C2551.19 442.109 2549.55 448.304 2546.25 454.265C2542.94 460.229 2538.33 464.846 2532.4 468.146C2526.43 471.449 2520.24 473.084 2513.75 473.084C2507.26 473.084 2501.04 471.449 2495.1 468.146C2489.17 464.846 2484.53 460.229 2481.22 454.265C2477.92 448.304 2476.26 442.109 2476.26 435.649C2476.26 429.133 2477.92 422.881 2481.28 416.86C2484.64 410.839 2489.32 406.222 2495.34 403.01C2501.3 399.766 2507.47 398.158 2513.75 398.158ZM2513.75 404.383C2508.49 404.383 2503.38 405.727 2498.38 408.414C2493.38 411.104 2489.5 414.96 2486.69 419.986C2483.88 425.015 2482.45 430.215 2482.45 435.649C2482.45 441.057 2483.85 446.23 2486.6 451.169C2489.38 456.108 2493.24 459.964 2498.2 462.741C2503.17 465.485 2508.35 466.889 2513.75 466.889C2519.13 466.889 2524.33 465.485 2529.3 462.741C2534.23 459.964 2538.09 456.108 2540.84 451.169C2543.62 446.23 2544.96 441.057 2544.96 435.649C2544.96 430.215 2543.59 425.015 2540.78 419.986C2537.97 414.96 2534.09 411.104 2529.09 408.414C2524.1 405.727 2518.98 404.383 2513.75 404.383ZM2497.3 456.369V416.043H2511.15C2515.88 416.043 2519.33 416.421 2521.44 417.152C2523.57 417.912 2525.24 419.199 2526.49 421.038C2527.75 422.908 2528.39 424.868 2528.39 426.972C2528.39 429.924 2527.34 432.463 2525.24 434.658C2523.13 436.849 2520.35 438.075 2516.88 438.34C2518.31 438.923 2519.45 439.653 2520.3 440.471C2521.93 442.049 2523.89 444.709 2526.26 448.452L2531.17 456.369H2523.22L2519.65 450C2516.85 445.001 2514.57 441.875 2512.85 440.618C2511.65 439.684 2509.92 439.214 2507.64 439.214H2503.82V456.369H2497.3ZM2503.82 433.663H2511.7C2515.48 433.663 2518.04 433.106 2519.42 431.967C2520.79 430.858 2521.49 429.367 2521.49 427.498C2521.49 426.329 2521.17 425.246 2520.5 424.312C2519.83 423.347 2518.92 422.646 2517.75 422.207C2516.55 421.742 2514.39 421.507 2511.21 421.507H2503.82V433.663Z" fill="black"/>
</svg>
