<svg width="400" height="83" viewBox="0 0 400 83" fill="none" xmlns="http://www.w3.org/2000/svg">
<path d="M66.9069 0.364868H109.932V82.2946H0.472961V0.364868H43.3336L55.2027 38.4449L66.9069 0.364868Z" fill="#F12B6B"/>
<path d="M126.351 75.6431L131.721 6.74972C134.693 6.20938 138.205 5.9392 142.258 5.9392C146.31 5.9392 149.856 6.20938 152.896 6.74972L158.873 31.5716C161.237 42.7837 162.487 48.8963 162.622 49.9094H163.331C163.601 48.2208 164.851 42.1082 167.079 31.5716L173.158 6.74972C176.13 6.20938 179.642 5.9392 183.695 5.9392C187.747 5.9392 191.293 6.20938 194.333 6.74972L199.703 75.6431C197.609 76.1835 195.025 76.4536 191.952 76.4536C188.879 76.4536 186.363 76.2848 184.404 75.9471L182.783 47.7818C182.31 36.5698 182.04 28.7686 181.973 24.3783H181.365L171.335 65.613C168.903 66.0183 166.117 66.2209 162.976 66.2209C159.836 66.2209 157.049 66.0183 154.618 65.613L144.689 24.3783H143.98C143.98 30.3896 143.71 38.1908 143.169 47.7818L141.65 75.9471C139.691 76.2848 137.175 76.4536 134.102 76.4536C131.029 76.4536 128.445 76.1835 126.351 75.6431ZM229.691 61.3579C227.868 61.3579 226.517 61.3241 225.639 61.2566L221.282 75.9471C219.661 76.3523 217.399 76.5549 214.494 76.5549C211.252 76.5549 208.618 76.1835 206.592 75.4405L206.085 74.63L228.374 6.6484C231.009 6.24315 234.082 6.04052 237.594 6.04052C241.579 6.04052 244.753 6.27692 247.117 6.74972L269.001 74.8326C266.637 76.1159 263.969 76.7576 260.997 76.7576C257.485 76.7576 255.02 76.1497 253.601 74.9339C252.183 73.7182 250.967 71.3879 249.954 67.9433L248.029 61.2566C247.151 61.3241 245.834 61.3579 244.078 61.3579H229.691ZM229.387 48.5923L233.44 48.491H240.836C241.174 48.491 241.765 48.5079 242.609 48.5417C243.453 48.5754 244.078 48.5923 244.483 48.5923L242.761 42.3109C241.14 36.6373 239.282 29.6804 237.189 21.4402H236.581C236.04 24.3446 234.419 30.7949 231.718 40.7912L229.387 48.5923ZM277.714 75.8457V6.6484C279.808 6.24315 282.51 6.04052 285.819 6.04052C289.129 6.04052 291.864 6.24315 294.026 6.6484V75.8457C291.864 76.251 289.129 76.4536 285.819 76.4536C282.51 76.4536 279.808 76.251 277.714 75.8457ZM335.26 62.1684H352.788C352.788 64.8701 352.619 67.1834 352.281 69.1084C351.943 71.0333 350.863 72.6881 349.039 74.0728C347.215 75.4574 344.818 76.1497 341.846 76.1497H318.949C316.045 76.1497 313.748 75.3054 312.06 73.6168C310.371 71.9283 309.527 69.6318 309.527 66.7275V6.6484L310.236 5.9392H316.213C322.562 5.9392 325.737 9.38387 325.737 16.2732V62.5736C328.709 62.3035 331.883 62.1684 335.26 62.1684ZM378.015 23.7704L384.803 6.6484C386.559 6.24315 388.822 6.04052 391.591 6.04052C394.563 6.04052 397.129 6.44577 399.291 7.25629L400 8.0668L380.345 54.5698V75.8457C378.251 76.251 375.55 76.4536 372.24 76.4536C368.93 76.4536 366.229 76.251 364.135 75.8457V54.1646L344.581 8.57336C347.688 6.74971 350.66 5.83789 353.497 5.83789C356.334 5.83789 358.377 6.32757 359.626 7.30694C360.876 8.28631 361.974 9.95799 362.919 12.322L367.782 24.3783C369.538 28.701 371.058 33.5303 372.341 38.8662H372.949C374.03 34.611 375.718 29.5791 378.015 23.7704Z" fill="#F12B6B"/>
</svg>
