<svg width="156" height="44" viewBox="0 0 156 44" fill="none" xmlns="http://www.w3.org/2000/svg">
<path d="M115.297 33.3281C110.004 33.3281 106.715 30.2621 106.715 25.3201C106.715 20.1911 109.75 17.0001 114.637 17.0001H115.047C115.66 17.0001 116.504 17.0201 117.657 17.1641V10.9731H121.109V32.7701C121.109 32.7701 117.829 33.3281 115.297 33.3281ZM115.266 19.7181C111.922 19.7181 110.296 21.5231 110.296 25.2341C110.296 28.5661 112.258 30.6371 115.41 30.6371C116.016 30.6371 116.71 30.5971 117.656 30.5161V19.9401C116.711 19.7881 115.949 19.7181 115.266 19.7181ZM68.0121 32.8281L58.6871 16.5551L58.6841 32.8281H55.4341V12.2271H59.9841L69.3091 28.3551L69.3051 12.2271H72.5981V32.8281H68.0121ZM97.7151 33.1451C96.1451 33.1451 94.5081 32.9691 92.5591 32.5941L92.3481 32.5541V29.6761L92.6561 29.7421C94.3751 30.1091 95.8591 30.4221 97.3441 30.4221C98.5431 30.4221 101.336 30.2341 101.336 28.4691C101.336 26.9891 99.4061 26.6171 97.8561 26.3201L97.7581 26.3001C97.4681 26.2461 97.1951 26.1911 96.9651 26.1331C94.6911 25.5431 92.2651 24.6561 92.2651 21.6091C92.2651 18.6371 94.6171 16.9341 98.7191 16.9341C100.688 16.9341 102.117 17.1441 103.266 17.3161L103.824 17.3981V20.1911L103.527 20.1371C102.227 19.8981 100.703 19.6521 99.2381 19.6521C97.6091 19.6521 95.6761 19.9571 95.6761 21.4061C95.6761 22.6091 97.2581 22.9531 99.0901 23.3521C101.652 23.9061 104.828 24.6021 104.828 28.0981C104.828 31.3051 102.238 33.1451 97.7151 33.1451ZM130.8 33.1451C127.227 33.1451 123.918 32.5151 123.918 27.9531C123.918 22.9881 129.035 22.9881 132.094 22.9881C132.398 22.9881 133.836 23.0551 134.277 23.0741C134.273 20.2891 134.238 19.6251 130.199 19.6251C128.598 19.6251 126.82 19.9411 125.25 20.2231L124.95 20.2771V17.5271L125.152 17.4841C126.972 17.1141 128.727 16.9341 130.516 16.9341C134.43 16.9341 137.746 17.3281 137.746 22.1841V32.7741L137.508 32.8011C134.797 33.1051 132.644 33.1451 130.8 33.1451ZM132.008 25.4451C129.058 25.4451 127.23 25.8791 127.23 28.0391C127.23 30.5391 129.562 30.7461 131.75 30.7461C132.566 30.7461 134.035 30.6411 134.484 30.6091V25.5311C133.852 25.5041 132.207 25.4451 132.008 25.4451ZM82.3631 33.1451C78.7851 33.1451 75.4771 32.5151 75.4771 27.9531C75.4771 22.9881 80.5941 22.9881 83.6521 22.9881C83.9571 22.9881 85.3981 23.0551 85.8401 23.0741C85.8361 20.2891 85.7971 19.6251 81.7581 19.6251C80.1561 19.6251 78.3781 19.9411 76.8081 20.2231L76.5081 20.2771V17.5271L76.7151 17.4841C78.4785 17.1195 80.2744 16.9352 82.0751 16.9341C85.9881 16.9341 89.3051 17.3281 89.3051 22.1841V32.7741L89.0661 32.8011C86.3561 33.1051 84.2031 33.1451 82.3631 33.1451ZM83.5661 25.4451C80.6171 25.4451 78.7931 25.8791 78.7931 28.0391C78.7931 30.5391 81.1211 30.7461 83.3091 30.7461C84.1291 30.7461 85.5981 30.6411 86.0471 30.6091V25.5311C85.4101 25.5041 83.7651 25.4451 83.5661 25.4451Z" fill="#231F20"/>
<path d="M151.492 39.8279V33.0699C150.145 33.2579 149.43 33.2579 148.852 33.2579C147.484 33.2579 145.965 32.9609 144.789 32.4649C142.156 31.3699 140.586 28.5899 140.586 25.0229C140.586 23.2429 141.02 19.9879 143.922 18.2339C145.379 17.3639 147.098 16.9919 149.684 16.9919C150.609 16.9919 151.859 17.0619 153.066 17.1319L155.027 17.2339V38.2619L151.492 39.8279ZM149.426 19.7109C145.918 19.7099 144.14 21.4999 144.14 25.0229C144.14 29.5589 146.792 30.5119 149.022 30.5119C149.565 30.5119 150.175 30.5119 151.526 30.3399V19.8089C150.468 19.7389 149.98 19.7109 149.426 19.7109Z" fill="#231F20"/>
<path d="M40.0121 0.0161133L28.5941 31.3861C28.4529 31.7724 28.2058 32.1111 27.8811 32.3634C27.5564 32.6158 27.1672 32.7716 26.7581 32.8131V32.8281H38.8281C39.7731 32.8281 40.5821 32.2271 40.8831 31.3871L52.3051 0.0161133H40.0121Z" fill="#0996C7"/>
<path d="M25.7731 32.3521C26.4731 32.3521 27.0861 32.0041 27.4611 31.4771C27.5001 31.4221 27.6371 31.2301 27.7341 30.9691L31.9221 19.4571L29.4721 12.7341C29.3294 12.3937 29.0982 12.0976 28.8026 11.8765C28.507 11.6555 28.1576 11.5175 27.7907 11.4769C27.4238 11.4363 27.0527 11.4946 26.7159 11.6456C26.3791 11.7967 26.0888 12.0351 25.8751 12.3361C25.8351 12.3911 25.6721 12.6361 25.6021 12.8441L21.4141 24.3521L23.8751 31.1021C24.0347 31.4731 24.2996 31.7892 24.6369 32.0114C24.9742 32.2335 25.3692 32.352 25.7731 32.3521Z" fill="#0996C7"/>
<path d="M26.668 10.9839H14.465C13.52 10.9839 12.711 11.5819 12.406 12.4259L0.988037 43.7959H13.281L24.7 12.4269C24.8482 12.0188 25.1144 11.664 25.4649 11.4077C25.8154 11.1515 26.2342 11.0053 26.668 10.9879V10.9839Z" fill="#0996C7"/>
</svg>
