<svg width="155" height="44" viewBox="0 0 155 44" fill="none" xmlns="http://www.w3.org/2000/svg">
<g clip-path="url(#clip0_126_22)">
<path d="M114.297 33.3281C109.004 33.3281 105.715 30.2621 105.715 25.3201C105.715 20.1911 108.75 17.0001 113.637 17.0001H114.047C114.66 17.0001 115.504 17.0201 116.657 17.1641V10.9731H120.109V32.7701C120.109 32.7701 116.829 33.3281 114.297 33.3281ZM114.266 19.7181C110.922 19.7181 109.296 21.5231 109.296 25.2341C109.296 28.5661 111.258 30.6371 114.41 30.6371C115.016 30.6371 115.71 30.5971 116.656 30.5161V19.9401C115.711 19.7881 114.949 19.7181 114.266 19.7181ZM67.012 32.8281L57.687 16.5551L57.684 32.8281H54.434V12.2271H58.984L68.309 28.3551L68.305 12.2271H71.598V32.8281H67.012ZM96.715 33.1451C95.145 33.1451 93.508 32.9691 91.559 32.5941L91.348 32.5541V29.6761L91.656 29.7421C93.375 30.1091 94.859 30.4221 96.344 30.4221C97.543 30.4221 100.336 30.2341 100.336 28.4691C100.336 26.9891 98.406 26.6171 96.856 26.3201L96.758 26.3001C96.468 26.2461 96.195 26.1911 95.965 26.1331C93.691 25.5431 91.265 24.6561 91.265 21.6091C91.265 18.6371 93.617 16.9341 97.719 16.9341C99.688 16.9341 101.117 17.1441 102.266 17.3161L102.824 17.3981V20.1911L102.527 20.1371C101.227 19.8981 99.703 19.6521 98.238 19.6521C96.609 19.6521 94.676 19.9571 94.676 21.4061C94.676 22.6091 96.258 22.9531 98.09 23.3521C100.652 23.9061 103.828 24.6021 103.828 28.0981C103.828 31.3051 101.238 33.1451 96.715 33.1451ZM129.8 33.1451C126.227 33.1451 122.918 32.5151 122.918 27.9531C122.918 22.9881 128.035 22.9881 131.094 22.9881C131.398 22.9881 132.836 23.0551 133.277 23.0741C133.273 20.2891 133.238 19.6251 129.199 19.6251C127.598 19.6251 125.82 19.9411 124.25 20.2231L123.95 20.2771V17.5271L124.152 17.4841C125.972 17.1141 127.727 16.9341 129.516 16.9341C133.43 16.9341 136.746 17.3281 136.746 22.1841V32.7741L136.508 32.8011C133.797 33.1051 131.644 33.1451 129.8 33.1451ZM131.008 25.4451C128.058 25.4451 126.23 25.8791 126.23 28.0391C126.23 30.5391 128.562 30.7461 130.75 30.7461C131.566 30.7461 133.035 30.6411 133.484 30.6091V25.5311C132.852 25.5041 131.207 25.4451 131.008 25.4451ZM81.363 33.1451C77.785 33.1451 74.477 32.5151 74.477 27.9531C74.477 22.9881 79.594 22.9881 82.652 22.9881C82.957 22.9881 84.398 23.0551 84.84 23.0741C84.836 20.2891 84.797 19.6251 80.758 19.6251C79.156 19.6251 77.378 19.9411 75.808 20.2231L75.508 20.2771V17.5271L75.715 17.4841C77.4784 17.1195 79.2743 16.9352 81.075 16.9341C84.988 16.9341 88.305 17.3281 88.305 22.1841V32.7741L88.066 32.8011C85.356 33.1051 83.203 33.1451 81.363 33.1451ZM82.566 25.4451C79.617 25.4451 77.793 25.8791 77.793 28.0391C77.793 30.5391 80.121 30.7461 82.309 30.7461C83.129 30.7461 84.598 30.6411 85.047 30.6091V25.5311C84.41 25.5041 82.765 25.4451 82.566 25.4451Z" fill="white"/>
<path d="M150.492 39.8279V33.0699C149.145 33.2579 148.43 33.2579 147.852 33.2579C146.484 33.2579 144.965 32.9609 143.789 32.4649C141.156 31.3699 139.586 28.5899 139.586 25.0229C139.586 23.2429 140.02 19.9879 142.922 18.2339C144.379 17.3639 146.098 16.9919 148.684 16.9919C149.609 16.9919 150.859 17.0619 152.066 17.1319L154.027 17.2339V38.2619L150.492 39.8279ZM148.426 19.7109C144.918 19.7099 143.14 21.4999 143.14 25.0229C143.14 29.5589 145.792 30.5119 148.022 30.5119C148.565 30.5119 149.175 30.5119 150.526 30.3399V19.8089C149.468 19.7389 148.98 19.7109 148.426 19.7109Z" fill="white"/>
<path d="M39.012 0.0161133L27.594 31.3861C27.4528 31.7724 27.2057 32.1111 26.881 32.3634C26.5563 32.6158 26.1671 32.7716 25.758 32.8131V32.8281H37.828C38.773 32.8281 39.582 32.2271 39.883 31.3871L51.305 0.0161133H39.012Z" fill="#0996C7"/>
<path d="M24.773 32.3521C25.473 32.3521 26.086 32.0041 26.461 31.4771C26.5 31.4221 26.637 31.2301 26.734 30.9691L30.922 19.4571L28.472 12.7341C28.3293 12.3937 28.0981 12.0976 27.8025 11.8765C27.5069 11.6555 27.1575 11.5175 26.7906 11.4769C26.4237 11.4363 26.0526 11.4946 25.7158 11.6456C25.379 11.7967 25.0887 12.0351 24.875 12.3361C24.835 12.3911 24.672 12.6361 24.602 12.8441L20.414 24.3521L22.875 31.1021C23.0346 31.4731 23.2995 31.7892 23.6368 32.0114C23.9741 32.2335 24.3691 32.352 24.773 32.3521Z" fill="#0996C7"/>
<path d="M25.668 10.9839H13.465C12.52 10.9839 11.711 11.5819 11.406 12.4259L-0.0119934 43.7959H12.281L23.7 12.4269C23.8482 12.0188 24.1144 11.664 24.4649 11.4077C24.8154 11.1515 25.2342 11.0053 25.668 10.9879V10.9839Z" fill="#0996C7"/>
</g>
<defs>
<clipPath id="clip0_126_22">
<rect width="155" height="44" fill="white"/>
</clipPath>
</defs>
</svg>
