<svg width="405" height="102" viewBox="0 0 405 102" fill="none" xmlns="http://www.w3.org/2000/svg">
<path d="M42.988 21.1122H60.4037V78.4296H42.988V72.6978C42.2164 74.6819 37.0358 79.5318 28.2178 79.5318C15.1009 79.5318 0 70.1626 0 49.6607C0 29.9303 15.1009 20.1202 28.2178 20.1202C37.0358 20.1202 42.2164 25.1906 42.988 26.403V21.1122ZM30.753 64.2105C37.9176 64.2105 43.7596 59.2503 43.7596 49.6607C43.7596 40.4017 37.9176 35.4415 30.753 35.4415C23.2576 35.4415 16.8645 40.5119 16.8645 49.6607C16.8645 59.1401 23.2576 64.2105 30.753 64.2105ZM89.0624 0.5V78.4296H71.6467V0.5H89.0624ZM141.53 21.1122H158.945V78.4296C158.945 95.8452 141.309 101.136 128.523 101.136C122.461 101.136 116.949 100.144 113.422 98.2702V84.0511C116.949 85.9249 122.24 86.6965 128.523 86.6965C138.774 86.6965 141.53 81.4057 141.53 78.4296V72.6978C140.758 74.6819 135.578 79.5318 126.76 79.5318C113.643 79.5318 98.5418 70.1626 98.5418 49.6607C98.5418 29.9303 113.643 20.1202 126.76 20.1202C135.578 20.1202 140.758 25.1906 141.53 26.403V21.1122ZM129.295 64.2105C136.459 64.2105 142.301 59.2503 142.301 49.6607C142.301 40.4017 136.459 35.4415 129.295 35.4415C121.799 35.4415 115.406 40.5119 115.406 49.6607C115.406 59.1401 121.799 64.2105 129.295 64.2105ZM198.627 20.1202C211.633 20.1202 228.829 29.9303 228.829 49.9913C228.829 70.1626 211.633 79.5318 198.627 79.5318C185.62 79.5318 168.425 70.1626 168.425 49.9913C168.425 29.9303 185.62 20.1202 198.627 20.1202ZM198.627 35.4415C192.013 35.4415 185.289 40.5119 185.289 49.9913C185.289 59.1401 192.013 64.2105 198.627 64.2105C205.24 64.2105 212.074 59.1401 212.074 49.9913C212.074 40.5119 205.24 35.4415 198.627 35.4415ZM314.915 20.2304C327.15 20.2304 337.952 28.1666 337.952 47.5664V78.4296H320.536V48.1175C320.536 40.8426 317.45 35.3313 309.404 35.3313C302.68 35.3313 298.161 41.2835 296.838 46.5743V78.4296H279.422V48.1175C279.422 40.8426 274.903 35.3313 268.289 35.3313C261.125 35.3313 256.826 40.1813 255.724 46.5743V78.4296H238.308V21.1122H255.724V31.5836C255.944 28.9382 261.566 20.2304 272.809 20.2304C281.076 20.2304 289.012 24.6394 293.752 32.6859C295.074 29.5996 301.688 20.2304 314.915 20.2304ZM376.972 20.1202C389.979 20.1202 408.166 29.9303 404.528 55.8333H364.516C366.5 61.7855 371.681 64.8718 378.625 64.8718C385.68 64.8718 387.884 63.3286 391.852 61.6753L401.442 70.9342C396.372 75.8944 389.538 79.5318 377.964 79.5318C363.745 79.5318 346.77 69.7217 346.77 49.9913C346.77 29.9303 363.965 20.1202 376.972 20.1202ZM376.972 35.0006C372.012 35.0006 366.941 37.8665 364.737 43.5983H389.097C387.333 37.8665 381.932 35.0006 376.972 35.0006Z" fill="#1898EE"/>
</svg>
