<svg width="43" height="50" viewBox="0 0 43 50" fill="none" xmlns="http://www.w3.org/2000/svg">
<path d="M21.4286 41.7858L7.14285 33.3929V16.6072L21.4286 8.21436L35.7143 16.6072V33.3929L21.4286 41.7858ZM10.7143 31.4286L21.4286 37.6786L32.1429 31.4286V18.7501L21.4286 12.5001L10.7143 18.7501V31.4286Z" fill="white"/>
<path d="M41.0714 11.0714L23.2143 0.535714C22.6786 0.178571 22.1429 0 21.4286 0C20.7143 0 20.1786 0.178571 19.6429 0.535714L1.78571 11.0714C0.714286 11.7857 0 12.8571 0 14.1071V35.8929C0 37.1429 0.714286 38.3929 1.78571 38.9286L19.6429 49.4643C20.1786 49.8214 20.8929 50 21.4286 50C21.9643 50 22.6786 49.8214 23.2143 49.4643L41.0714 38.9286C42.1429 38.2143 42.8571 37.1429 42.8571 35.8929V14.1071C42.8571 12.8571 42.1429 11.6071 41.0714 11.0714ZM39.2857 35.8929L21.4286 46.4286L3.57143 35.8929V14.1071L21.4286 3.57143L39.2857 14.1071V35.8929Z" fill="white"/>
</svg>
