<svg
  width="404.99999999999994"
  height="141.13606051016714"
  viewBox="0 0 300 104.54523000753122"
  class="css-1j8o68f"
  xmlns="http://www.w3.org/2000/svg"
>
  <defs id="SvgjsDefs1707"></defs>
  <g
    id="SvgjsG1708"
    featurekey="ewgXDI-0"
    transform="matrix(4.082433562966068,0,0,4.082433562966068,-2.8577027154138404,6.076940722611173)"
    fill="#1898ee"
  >
    <path
      d="M8.5 9.6 l3.16 0 l0 10.4 l-3.16 0 l0 -1.04 c-0.14 0.36 -1.08 1.24 -2.68 1.24 c-2.38 0 -5.12 -1.7 -5.12 -5.42 c0 -3.58 2.74 -5.36 5.12 -5.36 c1.6 0 2.54 0.92 2.68 1.14 l0 -0.96 z M6.28 17.42 c1.3 0 2.36 -0.9 2.36 -2.64 c0 -1.68 -1.06 -2.58 -2.36 -2.58 c-1.36 0 -2.52 0.92 -2.52 2.58 c0 1.72 1.16 2.64 2.52 2.64 z M16.86 5.859999999999999 l0 14.14 l-3.16 0 l0 -14.14 l3.16 0 z M26.38 9.6 l3.16 0 l0 10.4 c0 3.16 -3.2 4.12 -5.52 4.12 c-1.1 0 -2.1 -0.18 -2.74 -0.52 l0 -2.58 c0.64 0.34 1.6 0.48 2.74 0.48 c1.86 0 2.36 -0.96 2.36 -1.5 l0 -1.04 c-0.14 0.36 -1.08 1.24 -2.68 1.24 c-2.38 0 -5.12 -1.7 -5.12 -5.42 c0 -3.58 2.74 -5.36 5.12 -5.36 c1.6 0 2.54 0.92 2.68 1.14 l0 -0.96 z M24.16 17.42 c1.3 0 2.36 -0.9 2.36 -2.64 c0 -1.68 -1.06 -2.58 -2.36 -2.58 c-1.36 0 -2.52 0.92 -2.52 2.58 c0 1.72 1.16 2.64 2.52 2.64 z M36.739999999999995 9.42 c2.36 0 5.48 1.78 5.48 5.42 c0 3.66 -3.12 5.36 -5.48 5.36 s-5.48 -1.7 -5.48 -5.36 c0 -3.64 3.12 -5.42 5.48 -5.42 z M36.739999999999995 12.2 c-1.2 0 -2.42 0.92 -2.42 2.64 c0 1.66 1.22 2.58 2.42 2.58 s2.44 -0.92 2.44 -2.58 c0 -1.72 -1.24 -2.64 -2.44 -2.64 z M57.84 9.44 c2.22 0 4.18 1.44 4.18 4.96 l0 5.6 l-3.16 0 l0 -5.5 c0 -1.32 -0.56 -2.32 -2.02 -2.32 c-1.22 0 -2.04 1.08 -2.28 2.04 l0 5.78 l-3.16 0 l0 -5.5 c0 -1.32 -0.82 -2.32 -2.02 -2.32 c-1.3 0 -2.08 0.88 -2.28 2.04 l0 5.78 l-3.16 0 l0 -10.4 l3.16 0 l0 1.9 c0.04 -0.48 1.06 -2.06 3.1 -2.06 c1.5 0 2.94 0.8 3.8 2.26 c0.24 -0.56 1.44 -2.26 3.84 -2.26 z M69.1 9.42 c2.36 0 5.66 1.78 5 6.48 l-7.26 0 c0.36 1.08 1.3 1.64 2.56 1.64 c1.28 0 1.68 -0.28 2.4 -0.58 l1.74 1.68 c-0.92 0.9 -2.16 1.56 -4.26 1.56 c-2.58 0 -5.66 -1.78 -5.66 -5.36 c0 -3.64 3.12 -5.42 5.48 -5.42 z M69.1 12.120000000000001 c-0.9 0 -1.82 0.52 -2.22 1.56 l4.42 0 c-0.32 -1.04 -1.3 -1.56 -2.2 -1.56 z"
    ></path>
  </g>
</svg>
