<svg width="516" height="120" viewBox="0 0 516 120" fill="none" xmlns="http://www.w3.org/2000/svg">
<g clip-path="url(#clip0_143_17)">
<path fill-rule="evenodd" clip-rule="evenodd" d="M11.1 90.7L43.3 109.3L52.7 114.7C55.5 116.3 58.7 117.2 62.1 117.2C65.5 117.2 68.8 116.3 71.5 114.7L96.8 100.1C102.4 96.8 106.2 90.7 106.2 83.8V72.5L84.4 59L43.3 82.8L29.7 90.7C27 92.2 23.8 93.2 20.4 93.2C17 93.1 13.8 92.3 11.1 90.7Z" fill="url(#paint0_linear_143_17)"/>
<path fill-rule="evenodd" clip-rule="evenodd" d="M106.2 35.3V46.4001V83.4C106.2 76.4 102.4 70.3 96.8 67L83.7 59.4001L43.2 36.1V9.90005L53.6 3.90005C56.2 2.60005 59.1 1.80005 62.2 1.80005C65.6 1.80005 68.9 2.70005 71.6 4.30005L96.3 18.6C102.3 21.9 106.2 28.2 106.2 35.3Z" fill="url(#paint1_linear_143_17)"/>
<path fill-rule="evenodd" clip-rule="evenodd" d="M11.1 90.7001C5.40001 87.5001 1.60001 81.4001 1.60001 74.4001V44.8001C1.60001 38.2001 5.00001 32.4001 10.1 29.0001L20.6 23.0001L51.6 5.1001C46.6 8.5001 43.2 14.3001 43.2 20.9001V82.9001L29.6 90.8001C26.9 92.4001 23.7 93.3001 20.3 93.3001C17 93.1001 13.8 92.3001 11.1 90.7001Z" fill="url(#paint2_linear_143_17)"/>
<path d="M436.9 38.0999H415.8C415.3 38.0999 414.8 37.6999 414.8 37.0999V24.5999L406.3 26.0999V72.7999C406.3 78.3999 406.8 85.2999 410.3 89.8999C414 94.5999 419.9 95.5999 425.5 95.5999C430.2 95.5999 434.4 94.6999 438.8 92.8999L437.2 86.0999C435.1 86.8999 433 87.6999 430.7 88.0999C427.8 88.4999 424.1 88.5999 421.4 87.5999C415.3 85.5999 414.7 78.1999 414.7 72.6999V45.7999C414.7 45.2999 415.1 44.7999 415.7 44.7999H436.8V38.0999H436.9Z" fill="white"/>
<path d="M335.9 66.1999C335.9 71.8999 334.8 77.7999 331.3 82.3999C328.1 86.5999 323.7 88.4999 318.5 88.4999C313.3 88.4999 308.9 86.4999 305.7 82.3999C302.6 78.3999 301.1 72.9999 301.1 66.1999C301.1 59.3999 302.6 53.9999 305.7 49.9999C308.9 45.7999 313.3 43.8999 318.5 43.8999C323.7 43.8999 328.1 45.8999 331.3 49.9999C334.8 54.5999 335.9 60.4999 335.9 66.1999ZM344.3 72.5999C345.8 62.9999 344 51.9999 337.4 44.6999C332.5 39.2999 325.8 36.5999 318.5 36.5999C311.2 36.5999 304.5 39.1999 299.6 44.6999C294.3 50.4999 292.2 58.3999 292.2 66.1999C292.2 73.9999 294.3 81.7999 299.6 87.6999C304.5 93.1999 311.2 95.7999 318.5 95.7999C325.8 95.7999 332.5 93.1999 337.4 87.6999C341.2 83.4999 343.4 78.0999 344.3 72.5999Z" fill="white"/>
<path d="M211.8 36.5999C207 36.5999 200.6 37.1999 196 38.7999L197 45.4999C197.4 45.3999 197.9 45.1999 198.4 45.0999C199.4 44.8999 200.5 44.5999 201.8 44.3999C204.4 43.8999 207.5 43.6999 211 43.6999C214.4 43.6999 217.6 44.2999 220.4 46.3999C222.5 48.0999 223.9 50.4999 224.5 53.1999C224.8 54.6999 225.4 60.1999 225.1 61.5999C225 62.0999 224.5 62.3999 223.9 62.2999C221.2 61.5999 217.8 61.0999 215.1 60.8999C211.6 60.6999 207.8 61.0999 204.4 61.7999C200.7 62.5999 196.8 64.2999 194.1 67.0999C191.2 70.0999 190.1 73.6999 190.1 77.7999C190.1 83.0999 191.6 88.1999 196.1 91.3999C200.5 94.5999 206.5 95.3999 211.7 95.3999C216.4 95.3999 221 94.9999 225.7 94.3999C228.3 94.0999 230.9 93.6999 233.5 93.2999V57.8999C233.5 52.4999 232.6 46.6999 228.9 42.4999C227.3 40.5999 225.1 39.1999 222.3 38.1999C218.8 36.9999 215.1 36.5999 211.8 36.5999ZM212.6 88.6999C209.2 88.6999 205.4 88.1999 202.4 86.3999C199.7 84.7999 198.4 81.8999 198.4 77.7999C198.4 73.7999 200.4 70.8999 204 69.1999C206.5 67.9999 209 67.5999 211.7 67.4999C214.9 67.2999 221.3 67.3999 224.2 68.7999C224.6 68.8999 224.8 69.2999 224.8 69.6999V86.9999C224.8 87.3999 224.5 87.7999 224.1 87.8999C220.7 88.6999 216.2 88.6999 212.6 88.6999Z" fill="white"/>
<path d="M400.4 66.3001C400.4 58.5001 398.3 50.5001 392.7 44.7001C387.3 39.1001 379.9 36.8 372.2 36.8C364.7 36.8 358.4 37.9 351.2 39.6V115H359.7V92.7C359.7 92 360.5 91.5001 361.2 91.9001C365.1 94.4001 370.7 95.6 375.3 95.6C382.6 95.6 389.1 93.1001 393.9 87.4001C398.7 81.6001 400.4 73.7001 400.4 66.3001ZM390.2 57C391.1 59.7 391.5 62.8001 391.5 66.3001C391.5 70.3001 391 74.9 389.3 78.6C386.4 85.2 380.9 88.4001 373.9 88.4001C369.2 88.4001 363.7 86.7001 360.1 83.8001C359.8 83.6001 359.7 83.3 359.7 83V46.3C359.7 45.9 360 45.5001 360.4 45.4001C364.1 44.4001 368.4 44.2001 372.2 44.2001C380.6 44.2001 387.5 48.6 390.2 57Z" fill="white"/>
<path d="M486.7 66.1999C486.7 71.8999 485.6 77.7999 482.1 82.3999C478.9 86.5999 474.6 88.4999 469.3 88.4999C464.1 88.4999 459.7 86.4999 456.5 82.3999C453.4 78.3999 451.9 72.9999 451.9 66.1999C451.9 59.3999 453.4 53.9999 456.5 49.9999C459.7 45.7999 464.1 43.8999 469.3 43.8999C474.5 43.8999 478.9 45.8999 482.1 49.9999C485.6 54.5999 486.7 60.4999 486.7 66.1999ZM495.1 72.5999C496.6 62.9999 494.8 51.9999 488.2 44.6999C483.3 39.2999 476.6 36.5999 469.3 36.5999C462 36.5999 455.3 39.1999 450.4 44.6999C445.1 50.4999 443 58.3999 443 66.1999C443 73.9999 445.1 81.7999 450.4 87.6999C455.3 93.1999 462.1 95.7999 469.3 95.7999C476.6 95.7999 483.3 93.1999 488.2 87.6999C492 83.4999 494.2 78.0999 495.1 72.5999Z" fill="white"/>
<path d="M153.8 30.3999C155.5 30.2999 157.4 30.2999 159.5 30.2999C162.1 30.2999 164.7 30.4999 167.3 30.8999C169.6 31.2999 171.9 31.9999 173.9 33.1999C175.8 34.2999 177.4 35.8999 178.6 37.7999C179.9 39.9999 180.3 42.5999 180.3 45.0999C180.3 48.9999 179.4 52.4999 176.6 55.2999C174.9 56.9999 172.8 57.9999 170.6 58.7999C167.9 59.6999 165 59.9999 162.2 60.2999C159.5 60.4999 156.7 60.4999 154 60.4999C152.3 60.4999 150.6 60.4999 148.9 60.4999V30.6999C150.5 30.5999 152.1 30.4999 153.8 30.3999ZM171.9 24.4999C166.1 23.0999 160.1 22.8999 154.1 23.1999C149.5 23.3999 144.8 23.6999 140.3 24.6999V94.2999H148.8V67.5999C154 67.5999 159.5 67.7999 164.7 67.2999C171.7 66.6999 179.6 64.8999 184.6 59.4999C188.2 55.4999 189.4 50.5999 189.4 45.3999C189.4 40.0999 188 35.2999 184.7 31.5999C181.4 27.7999 176.6 25.6999 171.9 24.4999Z" fill="white"/>
<path d="M240.6 39.5V94.2H249.1V46.2001C249.1 45.7001 249.4 45.3 249.9 45.3C253.7 44.5 257.9 44.2001 261.7 44.2001C266.3 44.2001 271 45.1 273.9 49.1C276.1 52.1 276.7 56.3001 277 59.9001C277.1 61.4001 277.2 63.1001 277.2 64.9001V94.3001H285.7V62.6C285.7 60.6 285.6 58.8 285.4 57C284.9 52.3 283.9 47.7001 280.9 43.9001C276.5 38.3001 269.6 36.8 262.8 36.8C255.1 36.8 248.1 37.8 240.6 39.5Z" fill="white"/>
<path d="M499.879 34.8477V33.9102H506.425V34.8477H503.68V42.6375H502.624V34.8477H499.879ZM508.056 33.9102H509.317L512.283 41.1545H512.385L515.351 33.9102H516.613V42.6375H515.624V36.0068H515.539L512.811 42.6375H511.857L509.13 36.0068H509.044V42.6375H508.056V33.9102Z" fill="white"/>
</g>
<defs>
<linearGradient id="paint0_linear_143_17" x1="40.9161" y1="118.057" x2="74.0446" y2="65.5384" gradientUnits="userSpaceOnUse">
<stop offset="0.1133" stop-color="#C6DE89"/>
<stop offset="0.3134" stop-color="#92BC71"/>
<stop offset="0.6278" stop-color="#539453"/>
<stop offset="0.8666" stop-color="#297E43"/>
<stop offset="1" stop-color="#11773D"/>
</linearGradient>
<linearGradient id="paint1_linear_143_17" x1="43.2452" y1="42.6375" x2="106.193" y2="42.6375" gradientUnits="userSpaceOnUse">
<stop offset="0.2266" stop-color="#11773D"/>
<stop offset="0.3348" stop-color="#227C41"/>
<stop offset="0.5004" stop-color="#428A4C"/>
<stop offset="0.7027" stop-color="#6EA460"/>
<stop offset="0.9321" stop-color="#ADCD7D"/>
<stop offset="1" stop-color="#C6DE89"/>
</linearGradient>
<linearGradient id="paint2_linear_143_17" x1="26.4686" y1="72.9549" x2="26.6257" y2="22.9273" gradientUnits="userSpaceOnUse">
<stop stop-color="#11773D"/>
<stop offset="1" stop-color="#C6DE89"/>
</linearGradient>
<clipPath id="clip0_143_17">
<rect width="515.9" height="119.1" fill="white"/>
</clipPath>
</defs>
</svg>
