<svg width="1274" height="252" viewBox="0 0 1274 252" fill="none" xmlns="http://www.w3.org/2000/svg">
<path d="M0.145996 0.102783L3.34601 8.60278L17.646 46.1028L95.946 251.503H353.646L147.146 44.0028C119.646 16.5028 82.246 0.102783 43.346 0.102783H0.145996Z" fill="url(#paint0_linear_414_132)"/>
<path d="M17.646 46.1028C45.846 94.3028 119.946 99.4028 127.946 174.303C128.246 177.403 130.646 179.803 133.746 180.303C176.446 187.003 218.046 204.503 254.146 233.503C254.346 233.703 254.646 233.803 254.946 233.803C255.246 233.803 255.546 233.703 255.846 233.503C256.346 233.003 256.346 232.203 255.846 231.703C230.846 205.403 200.246 184.403 165.946 170.603L155.546 166.403C150.146 164.203 146.446 158.903 146.646 152.803C147.246 130.403 200.146 135.003 205.546 124.203L206.446 122.303C195.546 113.003 182.546 106.003 168.346 102.103C168.246 102.603 167.846 105.303 170.746 110.003C173.946 115.103 167.346 123.303 157.646 114.503L156.846 113.803C85.246 48.2028 31.646 82.2028 3.24597 8.60278L17.646 46.1028Z" fill="white"/>
<path d="M165.746 118.303V136.203C173.446 134.003 182.246 132.603 189.646 131.003V121.003C189.646 121.003 177.946 121.603 170.746 109.803C172.946 113.403 170.546 118.303 165.746 118.303Z" fill="url(#paint1_linear_414_132)"/>
<path d="M142.546 181.903C182.146 189.503 220.446 206.603 254.046 233.503C200.246 187.503 167.446 180.503 152.346 180.503C146.546 180.603 143.246 181.703 142.546 181.903Z" fill="url(#paint2_linear_414_132)"/>
<path d="M3.34595 8.50293L17.6459 46.0029C45.8459 94.3029 119.946 99.4029 127.946 174.303C119.746 78.7029 77.7459 93.0029 32.6459 49.4029C21.0459 41.2029 11.2459 29.0029 3.34595 8.50293Z" fill="url(#paint3_linear_414_132)"/>
<path d="M381.346 178.203C409.146 178.203 432.546 164.403 432.546 145.503C432.546 126.603 409.146 112.803 381.346 112.803C353.546 112.803 330.146 126.603 330.146 145.503C330.146 164.403 353.546 178.203 381.346 178.203ZM379.846 205.303C328.846 205.303 296.546 178.803 296.546 145.603C296.546 111.803 330.846 85.9028 381.346 85.9028C431.846 85.9028 466.146 112.003 466.146 144.303C466.146 158.803 459.746 170.703 447.446 180.603H477.446L470.246 192.903C465.746 200.703 460.146 205.303 448.146 205.303H379.846Z" fill="white"/>
<path d="M535.946 160.903H588.946L564.346 117.103C563.746 116.103 563.346 115.803 562.446 115.803C561.546 115.803 561.146 116.103 560.546 117.103L535.946 160.903ZM602.546 185.103H522.346L510.946 205.303H477.646L533.246 108.903C537.646 101.303 543.946 95.4028 556.546 95.4028H568.946C581.546 95.4028 587.846 101.303 592.246 108.903L647.846 205.303H613.846L602.546 185.103Z" fill="white"/>
<path d="M806.346 95.5029V205.303H776.646L689.346 132.503V205.303H659.646V95.5029H678.246C687.746 95.5029 692.546 98.0029 698.046 102.703L776.646 168.203V95.6029L806.346 95.5029Z" fill="white"/>
<path d="M912.146 120.203V205.303H882.446V120.203H821.546V95.5029H973.146V120.203H912.146Z" fill="white"/>
<path d="M1005.35 160.903H1058.35L1033.75 117.103C1033.15 116.103 1032.75 115.803 1031.85 115.803C1030.95 115.803 1030.55 116.103 1029.95 117.103L1005.35 160.903ZM1072.05 185.103H991.846L980.446 205.303H947.246L1002.85 108.903C1007.25 101.303 1013.55 95.4028 1026.15 95.4028H1038.55C1051.15 95.4028 1057.45 101.303 1061.85 108.903L1117.45 205.303H1083.45L1072.05 185.103Z" fill="white"/>
<path d="M1127.65 197.403L1124.85 196.503L1132.35 172.603C1153.75 179.503 1176.55 182.303 1197.25 182.303C1231.05 182.303 1239.45 178.303 1239.45 174.103C1239.45 172.303 1238.25 171.003 1235.65 170.103C1232.25 168.903 1222.95 167.003 1195.25 162.503C1164.65 157.503 1150.85 155.003 1140.75 150.303C1130.65 145.603 1124.45 138.103 1124.45 127.203C1124.45 118.903 1128.55 112.103 1135.15 106.803C1146.85 97.7028 1166.95 94.1028 1188.75 94.1028C1216.85 94.1028 1240.45 96.4028 1266.65 102.903L1268.95 103.603L1262.65 126.903C1233.35 120.603 1217.15 118.803 1194.85 118.603C1179.15 118.503 1168.35 119.603 1162.65 121.403C1159.45 122.403 1158.15 123.903 1158.15 125.703C1158.15 127.303 1159.15 128.803 1162.45 129.803C1165.95 131.003 1171.65 132.303 1201.65 137.103C1234.15 142.403 1244.85 144.603 1253.75 148.103C1265.95 152.803 1273.25 161.403 1273.25 172.303C1273.25 185.903 1262.75 196.003 1244.35 201.603C1233.05 205.003 1217.95 206.903 1201.05 206.903C1174.35 206.803 1145.95 203.303 1127.65 197.403Z" fill="white"/>
<defs>
<linearGradient id="paint0_linear_414_132" x1="224.532" y1="251.113" x2="52.473" y2="-0.172657" gradientUnits="userSpaceOnUse">
<stop stop-color="#BE0000" stop-opacity="0.9961"/>
<stop offset="1" stop-color="#FF0000"/>
</linearGradient>
<linearGradient id="paint1_linear_414_132" x1="176.656" y1="137.147" x2="178.975" y2="110.649" gradientUnits="userSpaceOnUse">
<stop stop-color="white"/>
<stop offset="0.65" stop-color="white"/>
<stop offset="0.95" stop-color="#A2A5A3"/>
<stop offset="1" stop-color="#A2A5A3"/>
</linearGradient>
<linearGradient id="paint2_linear_414_132" x1="142.57" y1="207.073" x2="254.084" y2="207.073" gradientUnits="userSpaceOnUse">
<stop stop-color="white"/>
<stop offset="0.9" stop-color="#A2A5A3"/>
<stop offset="1" stop-color="#A2A5A3"/>
</linearGradient>
<linearGradient id="paint3_linear_414_132" x1="3.33374" y1="91.4204" x2="128" y2="91.4204" gradientUnits="userSpaceOnUse">
<stop stop-color="white"/>
<stop offset="0.43" stop-color="white"/>
<stop offset="1" stop-color="#A2A5A3"/>
</linearGradient>
</defs>
</svg>
