<?xml version="1.0" encoding="utf-8"?>
<!-- Generator: Adobe Illustrator 21.0.2, SVG Export Plug-In . SVG Version: 6.00 Build 0)  -->
<svg version="1.1"
	 id="svg2" inkscape:version="0.91 r13725" sodipodi:docname="Qantas logo 2016.svg" xmlns:cc="http://creativecommons.org/ns#" xmlns:dc="http://purl.org/dc/elements/1.1/" xmlns:inkscape="http://www.inkscape.org/namespaces/inkscape" xmlns:rdf="http://www.w3.org/1999/02/22-rdf-syntax-ns#" xmlns:sodipodi="http://sodipodi.sourceforge.net/DTD/sodipodi-0.dtd" xmlns:svg="http://www.w3.org/2000/svg"
	 xmlns="http://www.w3.org/2000/svg" xmlns:xlink="http://www.w3.org/1999/xlink" x="0px" y="0px" width="1315px" height="292px"
	 viewBox="0 0 1315 292" style="enable-background:new 0 0 1315 292;" xml:space="preserve">
<style type="text/css">
	.st0{fill:url(#path4725_1_);}
	.st1{fill:#FFFFFF;}
	.st2{fill:url(#path4801_1_);}
	.st3{fill:url(#path4861_1_);}
	.st4{fill:url(#path4921_1_);}
	.st5{fill:#ffffff;}
</style>
<sodipodi:namedview  bordercolor="#000000" borderopacity="1.0" fit-margin-bottom="0" fit-margin-left="0" fit-margin-right="0" fit-margin-top="0" id="base" inkscape:current-layer="layer1" inkscape:cx="62.633686" inkscape:cy="12.7675" inkscape:document-units="px" inkscape:pageopacity="0.0" inkscape:pageshadow="2" inkscape:window-height="706" inkscape:window-maximized="1" inkscape:window-width="1366" inkscape:window-x="-8" inkscape:window-y="-8" inkscape:zoom="7.25051" pagecolor="#ffffff" showgrid="false" showguides="false" units="px">
	</sodipodi:namedview>
<g id="layer1" transform="translate(-266.85393,379.80287)" inkscape:groupmode="layer" inkscape:label="Layer 1">
	<g id="g8062" transform="translate(0.49987607,-0.50000008)">
		
			<linearGradient id="path4725_1_" gradientUnits="userSpaceOnUse" x1="438.9926" y1="56.6768" x2="449.2374" y2="56.6768" gradientTransform="matrix(-16.7948 -24.5281 -24.5281 16.7948 9279.8535 9710.5889)">
			<stop  offset="0" style="stop-color:#BE0000;stop-opacity:0.9961"/>
			<stop  offset="1" style="stop-color:#FF0000"/>
		</linearGradient>
		<path id="path4725" inkscape:connector-curvature="0" class="st0" d="M292.5-356.2L292.5-356.2l3.2,8.5l14.3,37.5l78.3,205.4H646
			L439.5-312.3c-27.5-27.5-64.9-43.9-103.8-43.9l0,0L292.5-356.2L292.5-356.2z"/>
		<path id="path4737" inkscape:connector-curvature="0" class="st1" d="M310-310.2C338.2-262,412.3-256.9,420.3-182
			c0.3,3.1,2.7,5.5,5.8,6c42.7,6.7,84.3,24.2,120.4,53.2l0,0c0.2,0.2,0.5,0.3,0.8,0.3c0.3,0,0.6-0.1,0.9-0.3c0.5-0.5,0.5-1.3,0-1.8
			c-25-26.3-55.6-47.3-89.9-61.1l-10.4-4.2c-5.4-2.2-9.1-7.5-8.9-13.6c0.6-22.4,53.5-17.8,58.9-28.6l0.9-1.9
			c-10.9-9.3-23.9-16.3-38.1-20.2c-0.1,0.5-0.5,3.2,2.4,7.9c3.2,5.1-3.4,13.3-13.1,4.5l-0.8-0.7c-71.6-65.6-125.2-31.6-153.6-105.2
			L310-310.2L310-310.2z"/>
		
			<linearGradient id="path4801_1_" gradientUnits="userSpaceOnUse" x1="344.3729" y1="41.0721" x2="354.6186" y2="41.0721" gradientTransform="matrix(0.2263 -2.5863 -2.5863 -0.2263 497.3036 680.7906)">
			<stop  offset="0" style="stop-color:#FFFFFF"/>
			<stop  offset="0.65" style="stop-color:#FFFFFF"/>
			<stop  offset="0.95" style="stop-color:#A2A5A3"/>
			<stop  offset="1" style="stop-color:#A2A5A3"/>
		</linearGradient>
		<path id="path4801" inkscape:connector-curvature="0" class="st2" d="M458.1-238v17.9c7.7-2.2,16.5-3.6,23.9-5.2l0,0v-10
			c0,0-11.7,0.6-18.9-11.2l0,0C465.3-242.9,462.9-238,458.1-238"/>
		
			<linearGradient id="path4861_1_" gradientUnits="userSpaceOnUse" x1="447.6147" y1="19.5208" x2="457.8591" y2="19.5208" gradientTransform="matrix(10.8854 0 0 -10.8854 -4437.5415 63.2625)">
			<stop  offset="0" style="stop-color:#FFFFFF"/>
			<stop  offset="0.9" style="stop-color:#A2A5A3"/>
			<stop  offset="1" style="stop-color:#A2A5A3"/>
		</linearGradient>
		<path id="path4861" inkscape:connector-curvature="0" class="st3" d="M434.9-174.4c39.6,7.6,77.9,24.7,111.5,51.6l0,0l0,0
			c-53.8-46-86.6-53-101.7-53l0,0C438.9-175.7,435.6-174.6,434.9-174.4"/>
		
			<linearGradient id="path4921_1_" gradientUnits="userSpaceOnUse" x1="437.5746" y1="31.3837" x2="447.8199" y2="31.3837" gradientTransform="matrix(12.1681 0 0 -12.1681 -5028.7637 116.9975)">
			<stop  offset="0" style="stop-color:#FFFFFF"/>
			<stop  offset="0.43" style="stop-color:#FFFFFF"/>
			<stop  offset="1" style="stop-color:#A2A5A3"/>
		</linearGradient>
		<path id="path4921" inkscape:connector-curvature="0" class="st4" d="M295.7-347.8l14.3,37.5C338.2-262,412.3-256.9,420.3-182l0,0
			c-8.2-95.6-50.2-81.3-95.3-124.9l0,0C313.4-315.1,303.6-327.3,295.7-347.8L295.7-347.8z"/>
		<path id="path4993" inkscape:connector-curvature="0" class="st5" d="M673.7-178.1c27.8,0,51.2-13.8,51.2-32.7
			s-23.4-32.7-51.2-32.7c-27.8,0-51.2,13.8-51.2,32.7S645.9-178.1,673.7-178.1 M672.2-151c-51,0-83.3-26.5-83.3-59.7
			c0-33.8,34.3-59.7,84.8-59.7c50.5,0,84.8,26.1,84.8,58.4c0,14.5-6.4,26.4-18.7,36.3h30l-7.2,12.3c-4.5,7.8-10.1,12.4-22.1,12.4
			L672.2-151L672.2-151z"/>
		<path id="path4997" inkscape:connector-curvature="0" class="st5" d="M828.3-195.4h53l-24.6-43.8c-0.6-1-1-1.3-1.9-1.3
			c-0.9,0-1.3,0.3-1.9,1.3L828.3-195.4z M894.9-171.2h-80.2L803.3-151H770l55.6-96.4c4.4-7.6,10.7-13.5,23.3-13.5h12.4
			c12.6,0,18.9,5.9,23.3,13.5l55.6,96.4h-34L894.9-171.2z"/>
		<path id="path5001" inkscape:connector-curvature="0" class="st5" d="M1098.7-260.8V-151H1069l-87.3-72.8v72.8H952v-109.8h18.6
			c9.5,0,14.3,2.5,19.8,7.2l78.6,65.5v-72.6L1098.7-260.8L1098.7-260.8z"/>
		<path id="path5005" inkscape:connector-curvature="0" class="st5" d="M1204.5-236.1v85.1h-29.7v-85.1h-60.9v-24.7h151.6v24.7
			H1204.5z"/>
		<path id="path5009" inkscape:connector-curvature="0" class="st5" d="M1297.7-195.4h53l-24.6-43.8c-0.6-1-1-1.3-1.9-1.3
			c-0.9,0-1.3,0.3-1.9,1.3L1297.7-195.4z M1364.4-171.2h-80.2l-11.4,20.2h-33.2l55.6-96.4c4.4-7.6,10.7-13.5,23.3-13.5h12.4
			c12.6,0,18.9,5.9,23.3,13.5l55.6,96.4h-34L1364.4-171.2z"/>
		<path id="path5013" inkscape:connector-curvature="0" class="st5" d="M1420-158.9l-2.8-0.9l7.5-23.9c21.4,6.9,44.2,9.7,64.9,9.7
			c33.8,0,42.2-4,42.2-8.2c0-1.8-1.2-3.1-3.8-4c-3.4-1.2-12.7-3.1-40.4-7.6c-30.6-5-44.4-7.5-54.5-12.2
			c-10.1-4.7-16.3-12.2-16.3-23.1c0-8.3,4.1-15.1,10.7-20.4c11.7-9.1,31.8-12.7,53.6-12.7c28.1,0,51.7,2.3,77.9,8.8l2.3,0.7
			l-6.3,23.3c-29.3-6.3-45.5-8.1-67.8-8.3c-15.7-0.1-26.5,1-32.2,2.8c-3.2,1-4.5,2.5-4.5,4.3c0,1.6,1,3.1,4.3,4.1
			c3.5,1.2,9.2,2.5,39.2,7.3c32.5,5.3,43.2,7.5,52.1,11c12.2,4.7,19.5,13.3,19.5,24.2c0,13.6-10.5,23.7-28.9,29.3
			c-11.3,3.4-26.4,5.3-43.3,5.3C1466.7-149.5,1438.3-153,1420-158.9"/>
	</g>
</g>
</svg>
