<svg width="602" height="144" viewBox="0 0 602 144" fill="none" xmlns="http://www.w3.org/2000/svg">
<path d="M489.185 57.9735V105.907C487.965 124.903 460.035 124.903 458.815 105.907V57.9735H432.398V111.099C432.398 129.04 451.002 143.586 473.902 143.586C496.802 143.586 515.406 129.04 515.406 111.099V57.9735H489.185ZM575.089 0.998535V140.499H601.652V0.998535H575.089ZM529.99 140.499H556.552V0.998535H529.99V140.499ZM399.894 67.936C407.252 61.3319 411.494 51.9402 411.615 42.061C411.598 33.1527 408.165 24.5985 402.023 18.1485C395.773 11.1819 384.465 7.27353 369.306 7.27353H323.869V140.499H382.56C405.023 140.153 423.185 123.161 423.185 102.344C423.152 87.1944 417.815 76.3652 399.894 67.936ZM377.64 117.29H352.223V30.2444H369.931C377.885 30.6152 384.135 37.2235 384.052 45.186C384.052 52.9819 377.723 59.2944 369.931 59.2777H360.715V83.2194H377.64C400.444 83.2194 400.444 117.403 377.64 117.403V117.29ZM89.6191 46.7152C89.5233 36.1985 85.2483 26.1444 77.7233 18.7694C70.2233 11.3985 60.0775 7.31103 49.5525 7.41103H0.935852V140.499H29.2025V30.2444H43.84C53.765 29.9027 62.0525 37.761 62.215 47.6944C61.7775 57.6319 53.4233 65.4027 43.465 65.086H36.9025V96.9402L65.0275 140.499H98.1524L59.09 84.9152C76.8816 80.7777 89.5066 64.9777 89.6191 46.7152ZM139.057 54.5277C114.944 55.1777 95.7441 74.9027 95.7441 99.0069C95.7441 123.132 114.944 142.853 139.057 143.511C157.59 143.511 172.032 135.124 179.502 122.011L157.902 112.028C154.777 118.349 148.277 122.282 141.248 122.119C131.627 122.54 123.511 115.061 123.152 105.436V104.524H181.711C181.89 102.749 181.969 100.982 181.952 99.186C182.365 70.311 163.34 54.5277 139.057 54.5277ZM123.057 89.3735C122.648 80.1277 130.04 72.4152 139.298 72.4152C148.54 72.4152 155.927 80.1277 155.527 89.3735H123.057ZM287.59 140.499V0.998535H260.994V67.0235C253.927 59.8944 244.306 55.8652 234.269 55.811C212.394 55.811 194.523 75.2819 194.523 99.2819C194.523 123.274 212.34 142.936 234.269 142.936C244.411 142.853 254.077 138.686 261.119 131.411V140.786L287.59 140.499ZM241.806 120.115C231.065 120.115 222.306 110.561 222.306 98.7777C222.306 86.9985 231.065 77.311 241.806 77.311C252.565 77.311 261.336 86.8819 261.336 98.6819C261.336 110.499 252.598 120.115 241.806 120.115Z" fill="#EE2A53"/>
</svg>
