<svg width="38" height="50" xmlns="http://www.w3.org/2000/svg">
  <defs>
    <clipPath id="a"><path d="M375 0v2380H0V0h375Z"></path></clipPath>
    <clipPath id="b">
      <path d="m14.875 0-.017 16.874C6.625 15.536.3 8.537 0 0h14.875Z"></path>
    </clipPath>
    <clipPath id="c">
      <path
        d="M14.264 0c3.848 3.252 6.308 8.105 6.308 13.54-.004 9.803-7.943 17.74-17.744 17.74-.962 0-1.903-.078-2.828-.226Z"
      ></path>
    </clipPath>
    <clipPath id="d">
      <path d="M.017 0C8.25 1.338 14.575 8.337 14.875 16.874H0Z"></path>
    </clipPath>
    <clipPath id="e">
      <path
        d="M17.743 0c.962 0 1.904.079 2.829.227L6.308 31.28C2.46 28.029 0 23.176 0 17.74.004 7.938 7.943 0 17.743 0Z"
      ></path>
    </clipPath>
    <clipPath id="f"><path d="M4.795 0v4.852H0V0h4.795Z"></path></clipPath>
    <clipPath id="g">
      <path
        d="M2.392 0a2.413 2.413 0 0 1 2.403 2.424c0 1.34-1.074 2.429-2.403 2.429C1.072 4.853 0 3.763 0 2.424 0 1.086 1.072 0 2.392 0Zm0 .464c-1.068 0-1.934.878-1.934 1.96 0 1.083.866 1.962 1.934 1.962 1.07 0 1.935-.88 1.935-1.962 0-1.082-.865-1.96-1.935-1.96Zm.111.645c.533 0 .899.321.899.8 0 .347-.146.6-.448.73l.46 1.025h-.489l-.415-.943h-.49v.935h-.454V1.109h.937Zm0 .418h-.49v.783h.49c.357 0 .44-.173.44-.401 0-.234-.128-.382-.44-.382Z"
      ></path>
    </clipPath>
  </defs>
  <g clip-path="url(#a)" transform="translate(-20 -20)">
    <g clip-path="url(#b)" transform="translate(20 52.893)">
      <path fill="#00ff00" d="M0 0h14.875v16.874H0V0z"></path>
    </g>
    <g clip-path="url(#c)" transform="translate(34.894 38.72)">
      <path fill="#00ff00" d="M0 0h20.572v31.28H0V0z"></path>
    </g>
    <g clip-path="url(#d)" transform="translate(40.59 20.233)">
      <path fill="#00ff00" d="M0 0h14.875v16.874H0V0z"></path>
    </g>
    <g clip-path="url(#e)" transform="translate(20 20)">
      <path fill="#00ff00" d="M0 0h20.572v31.28H0V0z"></path>
    </g>
    <g clip-path="url(#f)" transform="translate(53.205 20)">
      <g clip-path="url(#g)">
        <path fill="#00ff00" d="M0 0h4.795v4.853H0V0z"></path>
      </g>
    </g>
  </g>
</svg>
