<svg
  width="1em"
  height="1em"
  viewBox="0 0 357 75"
  fill="none"
  xmlns="http://www.w3.org/2000/svg"
  class="icon-svg icon-svg--logo"
  style="height: 2rem; width: 9.375rem"
>
  <g clip-path="url(#logo_svg__a)" fill="#0b65df">
    <path
      d="M33.245 55.019C27.074 70.89 20.709 79.297 3.037 72.83l1.518-9.795c7.98 3.524 12.116.517 14.959-7.597l1.81-5.043L0 3.133V1.516h14.861l6.559 16.488 6.365 18.006h.323l5.557-17.91 5.847-16.584h14.345v1.617L33.245 55.019ZM79.121 51.269c-12.923 0-25.975-8.502-25.975-25.571C53.146 8.822 65.876.223 78.701.126c13.053-.097 26.073 8.406 26.073 25.572.032 17.069-12.826 25.57-25.653 25.57Zm-.29-12.35c5.977.098 11.921-4.331 11.921-13.254 0-8.696-5.654-13.157-11.63-13.157-5.977 0-11.922 4.396-11.922 13.19 0 8.793 5.75 13.221 11.63 13.221ZM157.048 1.516V35.59c0 4.558.194 6.174 4.555 5.851l.097 8.793c-6.881 1.616-17.802 2.328-17.802-7.08-2.713 5.658-9.498 7.791-15.572 7.791-14.054 0-18.092-9.407-18.092-21.53V1.516h14.248v27.9c-.291 6.885 3.424 10.409 8.4 10.409 5.653.097 10.015-4.138 10.015-10.733V1.516h14.151ZM198.272-.003C202.02-.1 205.865 1 208.675 3.133l-3.133 11.832c-2.94-1.908-5.977-2.716-9.111-2.619-6.171 0-11.405 4.041-11.405 11.541v26.38h-13.86V15.87c0-4.041-.42-6.66-4.846-5.948V1.226c7.075-1.617 17.478-1.617 18.286 7.08 2.036-5.561 7.689-8.309 13.666-8.309ZM245.247 19.106c-1.712-4.559-5.848-6.79-10.209-6.66-6.074.097-12.342 4.558-12.342 13.254 0 8.793 6.268 13.449 12.342 13.449 4.458 0 8.69-2.425 10.403-7.597h13.44c-2.036 13.06-13.053 19.623-24.263 19.72-12.826.096-25.976-8.406-25.976-25.572 0-17.1 13.246-25.7 26.073-25.7 11.017 0 21.743 6.369 23.94 19.106h-13.408ZM279.689 51.168c-9.079 0-17.382-5.852-17.673-15.259-.517-11.929 8.077-17.586 18.9-17.586 4.33 0 9.305.808 12.923 3.136v-3.362c0-5.981-7.269-6.983-12.115-6.983-5.169 0-9.918.614-14.054 2.942l-1.809-10.119C271.03 1.513 277.589.284 284.147.284c12.536 0 23.229 4.138 23.229 18.2v17.587c0 4.138-.097 6.562 4.556 6.271l.097 7.888c-7.366 1.617-15.476 1.229-15.476-7.467-2.907 6.077-10.597 8.405-16.864 8.405Zm13.86-20.916c-2.843-1.907-6.559-2.845-10.113-2.845-4.458.29-8.077 2.845-7.592 7.597.291 3.524 3.425 5.27 6.655 5.27 4.653 0 10.5-2.328 11.017-7.468v-2.554h.033ZM346.597-.003C350.345-.1 354.189 1 357 3.133l-3.134 11.832c-2.94-1.908-5.977-2.716-9.111-2.619-6.17 0-11.404 4.041-11.404 11.541v26.38h-13.828V15.87c0-4.041-.42-6.66-4.846-5.948V1.226c7.075-1.617 17.478-1.617 18.286 7.08 2.003-5.561 7.657-8.309 13.634-8.309Z"
    ></path>
  </g>
  <defs>
    <clipPath id="logo_svg__a">
      <path fill="#fff" d="M0 0h357v75H0z"></path>
    </clipPath>
  </defs>
</svg>
