<svg width="238" height="51" viewBox="0 0 238 51" fill="none" xmlns="http://www.w3.org/2000/svg">
<path d="M22.1542 37.4048C18.0419 47.9812 13.8003 53.5835 2.02384 49.274L3.03542 42.7466C8.35324 45.095 11.1094 43.0912 13.004 37.684L14.2102 34.3234L0 2.82836V1.75081H9.90327L14.2741 12.7383L18.5157 24.7374H18.731L22.4341 12.8023L26.3305 1.75081H35.8899V2.82836L22.1542 37.4048ZM52.7257 34.9059C44.1139 34.9059 35.4161 29.2402 35.4161 17.8655C35.4161 6.61947 43.8993 0.88916 52.4458 0.82452C61.1442 0.75988 69.8207 6.42622 69.8207 17.8655C69.842 29.2402 61.2735 34.9059 52.7257 34.9059ZM52.5324 26.6759C56.5155 26.7412 60.4765 23.7898 60.4765 17.8435C60.4765 12.0486 56.7087 9.0758 52.7263 9.0758C48.7433 9.0758 44.7816 12.0053 44.7816 17.8655C44.7816 23.7251 48.614 26.6759 52.5324 26.6759ZM104.656 1.75081V24.4575C104.656 27.4949 104.785 28.5718 107.691 28.3565L107.756 34.2161C103.17 35.293 95.8926 35.7675 95.8926 29.4981C94.0847 33.2685 89.5632 34.6899 85.5155 34.6899C76.1501 34.6899 73.4592 28.4212 73.4592 20.3425V1.75081H82.9539V20.3432C82.76 24.9313 85.2357 27.2797 88.5516 27.2797C92.3188 27.3443 95.2256 24.5221 95.2256 20.1273V1.75081H104.656ZM132.127 0.738555C134.625 0.673915 137.187 1.40695 139.06 2.82836L136.972 10.7131C135.013 9.44165 132.989 8.9032 130.9 8.96784C126.788 8.96784 123.3 11.6607 123.3 16.6587V34.2381H114.064V11.3162C114.064 8.62332 113.784 6.87803 110.834 7.3525V1.55755C115.549 0.479995 122.482 0.479995 123.02 6.27561C124.377 2.5698 128.144 0.738555 132.127 0.738555ZM163.431 13.4727C162.29 10.4346 159.534 8.94785 156.628 9.03448C152.58 9.09912 148.403 12.0719 148.403 17.8669C148.403 23.7264 152.58 26.8292 156.628 26.8292C159.598 26.8292 162.419 25.2132 163.56 21.7666H172.516C171.16 30.4697 163.818 34.8432 156.348 34.9079C147.801 34.9718 139.038 29.3062 139.038 17.8669C139.038 6.47153 147.865 0.740554 156.412 0.740554C163.754 0.740554 170.902 4.98481 172.366 13.4727H163.431ZM186.383 34.8385C180.333 34.8385 174.8 30.9388 174.606 24.6701C174.261 16.7207 179.988 12.9509 187.2 12.9509C190.086 12.9509 193.401 13.4893 195.812 15.0407V12.8003C195.812 8.81457 190.968 8.14685 187.739 8.14685C184.294 8.14685 181.13 8.55601 178.373 10.1074L177.168 3.36414C180.612 1.74881 184.983 0.92981 189.354 0.92981C197.707 0.92981 204.833 3.68734 204.833 13.0582V24.778C204.833 27.5355 204.769 29.1509 207.869 28.957L207.934 34.2135C203.025 35.291 197.621 35.0325 197.621 29.2375C195.684 33.2872 190.559 34.8385 186.383 34.8385ZM195.619 20.9003C193.724 19.6295 191.248 19.0044 188.88 19.0044C185.909 19.1976 183.497 20.9003 183.821 24.067C184.014 26.4153 186.103 27.5789 188.255 27.5789C191.356 27.5789 195.252 26.0275 195.597 22.6022V20.9003H195.619ZM230.97 0.738555C233.467 0.673915 236.029 1.40695 237.902 2.82836L235.814 10.7131C233.855 9.44165 231.831 8.9032 229.742 8.96784C225.631 8.96784 222.143 11.6607 222.143 16.6587V34.2381H212.928V11.3162C212.928 8.62332 212.648 6.87803 209.699 7.3525V1.55755C214.413 0.479995 221.346 0.479995 221.884 6.27561C223.219 2.5698 226.987 0.738555 230.97 0.738555Z" fill="#0B65DF"/>
</svg>
