<svg width="829" height="185" viewBox="0 0 829 185" fill="none" xmlns="http://www.w3.org/2000/svg">
<path d="M784.749 99.2367V108.166H802.221V99.2367C802.221 77.5394 801.358 71.3941 793.389 71.3941C785.421 71.3941 784.749 77.7314 784.749 99.2367ZM828.624 122.951H784.749V129.383C784.749 150.122 785.228 157.226 793.774 157.226C802.221 157.226 804.142 150.697 804.333 137.257L827.665 138.313C829.392 163.946 816.144 175.275 793.677 175.275C766.41 175.275 758.346 157.418 758.346 124.967V104.421C758.346 70.2421 767.372 53.5367 794.445 53.5367C821.712 53.5367 828.624 67.7461 828.624 103.269V122.951Z" fill="#212121"/>
<path d="M721.105 105.381C721.105 78.1145 718.801 72.1625 711.409 72.1625C706.415 72.1625 701.614 76.5785 699.695 85.0279V150.025C701.998 154.537 706.031 156.457 710.255 156.457C718.225 156.457 721.105 148.009 721.105 122.471V105.381ZM748.181 105.381V121.127C748.181 159.147 740.115 175.083 722.257 175.083C711.409 175.083 703.247 170.283 699.023 162.219H698.927L697.199 173.355H674.157V6.29987H699.695V40.0959C699.695 48.9292 699.886 57.7612 699.118 68.3225H699.406C703.823 59.4892 711.409 53.3452 723.313 53.3452C740.403 53.3452 748.181 64.4812 748.181 105.381Z" fill="#212121"/>
<path d="M588.143 144.168V55.6483H614.642V141.384C614.642 151.754 616.946 156.362 622.418 156.362C626.547 156.362 630.578 154.538 633.458 146.858V55.6483H659.956V173.355H637.491L635.955 157.514H635.859C632.595 168.747 626.163 175.659 612.818 175.659C595.151 175.659 588.143 164.331 588.143 144.168Z" fill="#212121"/>
<path d="M542.734 173.355V34.9112H516.525V12.2526H595.444V34.9112H569.233V173.355H542.734Z" fill="#212121"/>
<path d="M452.302 144.168V55.6483H478.8V141.384C478.8 151.754 481.104 156.362 486.576 156.362C490.706 156.362 494.736 154.538 497.616 146.858V55.6483H524.115V173.355H501.65L500.114 157.514H500.018C496.754 168.747 490.322 175.659 476.976 175.659C459.31 175.659 452.302 164.331 452.302 144.168Z" fill="#212121"/>
<path d="M414.29 100.773C414.29 78.1144 412.178 71.5864 404.69 71.5864C397.009 71.5864 394.705 78.1144 394.705 100.773V127.848C394.705 151.273 397.009 157.225 404.306 157.225C412.178 157.225 414.29 151.273 414.29 127.848V100.773ZM441.173 109.798V119.206C441.173 161.066 431.956 175.274 404.497 175.274C376.27 175.274 367.822 160.682 367.822 119.206V109.798C367.822 66.9784 378.766 53.3451 405.074 53.3451C431.38 53.3451 441.173 67.5531 441.173 109.798Z" fill="#212121"/>
<path d="M319.439 173.547V123.143L289.004 12.2527H315.407L326.352 61.4087C328.848 72.7394 331.44 88.9634 332.592 94.8207H332.784C333.936 89.1567 336.432 72.9314 339.024 61.602L350.355 12.2527H376.756L345.937 123.143V173.547H319.439Z" fill="#212121"/>
<path d="M105.846 132.263L174.013 92.7074L105.846 53.3448V132.263Z" fill="white"/>
<path d="M105.846 132.263L174.013 92.7075L105.846 53.3448V132.263ZM29.4247 179.307C18.0954 176.235 9.26207 167.21 5.99807 156.074C0.622067 135.527 0.62207 92.7075 0.62207 92.7075C0.62207 92.7075 0.622067 49.8888 5.99807 29.5355C9.26207 18.2062 18.0954 9.37283 29.4247 6.30083C49.7781 0.732833 131.961 0.73284 131.961 0.73284C131.961 0.73284 214.335 0.732833 234.69 6.30083C246.21 9.37283 254.851 18.2062 257.925 29.5355C263.491 49.8888 263.491 92.7075 263.491 92.7075C263.491 92.7075 263.491 135.527 257.925 156.074C254.851 167.21 246.21 176.235 234.69 179.307C214.335 184.875 131.961 184.875 131.961 184.875C131.961 184.875 49.7781 184.875 29.4247 179.307Z" fill="#FF0033"/>
</svg>
